G04*
G04 #@! TF.GenerationSoftware,Altium Limited,Altium Designer,18.1.9 (240)*
G04*
G04 Layer_Color=8388736*
%FSLAX25Y25*%
%MOIN*%
G70*
G01*
G75*
%ADD10C,0.07690*%
%ADD11C,0.40170*%
%ADD12C,0.09461*%
%ADD13C,0.06706*%
D10*
X452756Y98425D02*
D03*
Y39370D02*
D03*
X433071Y98425D02*
D03*
Y39370D02*
D03*
X413386Y98425D02*
D03*
Y39370D02*
D03*
X393701Y98425D02*
D03*
Y39370D02*
D03*
X374016Y98425D02*
D03*
Y39370D02*
D03*
X354331Y98425D02*
D03*
Y39370D02*
D03*
X334646Y98425D02*
D03*
Y39370D02*
D03*
X314961Y98425D02*
D03*
Y39370D02*
D03*
X295275Y98425D02*
D03*
Y39370D02*
D03*
X275590Y98425D02*
D03*
Y39370D02*
D03*
X255905Y98425D02*
D03*
Y39370D02*
D03*
X236220Y98425D02*
D03*
Y39370D02*
D03*
X216535Y98425D02*
D03*
Y39370D02*
D03*
X196850Y98425D02*
D03*
Y39370D02*
D03*
X177165Y98425D02*
D03*
Y39370D02*
D03*
X157480Y98425D02*
D03*
Y39370D02*
D03*
X137795Y98425D02*
D03*
Y39370D02*
D03*
X118110Y98425D02*
D03*
Y39370D02*
D03*
X98425Y98425D02*
D03*
Y39370D02*
D03*
X78740Y98425D02*
D03*
Y39370D02*
D03*
D11*
X35433Y132087D02*
D03*
Y57087D02*
D03*
D12*
X442913Y115689D02*
D03*
Y147972D02*
D03*
X403543Y115689D02*
D03*
Y147972D02*
D03*
X364173Y115689D02*
D03*
Y147972D02*
D03*
X324803Y115689D02*
D03*
Y147972D02*
D03*
X285433Y115689D02*
D03*
Y147972D02*
D03*
X246063Y115689D02*
D03*
Y147972D02*
D03*
X206693Y115689D02*
D03*
Y147972D02*
D03*
X167323Y115689D02*
D03*
Y147972D02*
D03*
X127953Y115689D02*
D03*
Y147972D02*
D03*
X88583Y115689D02*
D03*
Y147972D02*
D03*
D13*
X442913Y139705D02*
D03*
Y123957D02*
D03*
Y131831D02*
D03*
X403543Y139705D02*
D03*
Y123957D02*
D03*
Y131831D02*
D03*
X364173Y139705D02*
D03*
Y123957D02*
D03*
Y131831D02*
D03*
X324803Y139705D02*
D03*
Y123957D02*
D03*
Y131831D02*
D03*
X285433Y139705D02*
D03*
Y123957D02*
D03*
Y131831D02*
D03*
X246063Y139705D02*
D03*
Y123957D02*
D03*
Y131831D02*
D03*
X206693Y139705D02*
D03*
Y123957D02*
D03*
Y131831D02*
D03*
X167323Y139705D02*
D03*
Y123957D02*
D03*
Y131831D02*
D03*
X127953Y139705D02*
D03*
Y123957D02*
D03*
Y131831D02*
D03*
X88583Y139705D02*
D03*
Y123957D02*
D03*
Y131831D02*
D03*
M02*
