M48
;Layer_Color=9474304
;FILE_FORMAT=2:5
INCH,TZ
;TYPE=PLATED
T1F00S00C0.03150
T2F00S00C0.04134
T3F00S00C0.05906
T4F00S00C0.21299
;TYPE=NON_PLATED
T5F00S00C0.12598
%
T01
X403543Y123957
Y131831
Y139705
X442913
Y131831
Y123957
X364173
Y131831
Y139705
X324803
Y131831
Y123957
X285433
Y131831
Y139705
X246063
Y131831
Y123957
X206693
Y131831
Y139705
X167323
Y131831
Y123957
X127953
Y131831
Y139705
X88583
Y131831
Y123957
T02
X78740Y39370
X98425
X118110
X137795
X157480
X177165
X196850
X216535
X236220
X255905
X275590
X295275
X314961
X334646
X354331
X374016
X393701
X413386
X433071
X452756
Y98425
X433071
X413386
X393701
X374016
X354331
X334646
X314961
X295275
X275590
X255905
X236220
X216535
X196850
X177165
X157480
X137795
X118110
X98425
X78740
T03
X403543Y115689
Y147972
X442913
Y115689
X364173
Y147972
X324803
Y115689
X285433
Y147972
X246063
Y115689
X206693
Y147972
X167323
Y115689
X127953
Y147972
X88583
Y115689
T04
X35433Y57087
Y132087
T05
X19685Y19685
X452756
Y169291
X19685
M30
