G04*
G04 #@! TF.GenerationSoftware,Altium Limited,Altium Designer,18.1.9 (240)*
G04*
G04 Layer_Color=16711935*
%FSLAX25Y25*%
%MOIN*%
G70*
G01*
G75*
%ADD20C,0.00787*%
D20*
X452756Y0D02*
X453753Y25D01*
X454747Y101D01*
X455737Y227D01*
X456718Y403D01*
X457690Y628D01*
X458649Y903D01*
X459593Y1225D01*
X460519Y1595D01*
X461425Y2012D01*
X462309Y2473D01*
X463169Y2979D01*
X464001Y3528D01*
X464805Y4119D01*
X465578Y4749D01*
X466318Y5418D01*
X467024Y6123D01*
X467692Y6863D01*
X468322Y7636D01*
X468913Y8440D01*
X469461Y9272D01*
X469968Y10132D01*
X470429Y11016D01*
X470846Y11922D01*
X471216Y12848D01*
X471538Y13792D01*
X471812Y14751D01*
X472038Y15722D01*
X472214Y16704D01*
X472340Y17694D01*
X472416Y18688D01*
X472441Y19685D01*
Y169291D02*
X472416Y170288D01*
X472340Y171283D01*
X472214Y172272D01*
X472038Y173254D01*
X471812Y174225D01*
X471538Y175184D01*
X471216Y176128D01*
X470846Y177054D01*
X470429Y177961D01*
X469968Y178844D01*
X469461Y179704D01*
X468913Y180537D01*
X468322Y181341D01*
X467692Y182114D01*
X467024Y182854D01*
X466318Y183559D01*
X465578Y184228D01*
X464805Y184858D01*
X464001Y185448D01*
X463169Y185997D01*
X462309Y186503D01*
X461425Y186965D01*
X460519Y187381D01*
X459593Y187751D01*
X458649Y188074D01*
X457690Y188348D01*
X456718Y188573D01*
X455737Y188749D01*
X454747Y188875D01*
X453753Y188951D01*
X452756Y188976D01*
X19685D02*
X18688Y188951D01*
X17694Y188875D01*
X16704Y188749D01*
X15722Y188573D01*
X14751Y188348D01*
X13792Y188074D01*
X12848Y187751D01*
X11922Y187381D01*
X11016Y186965D01*
X10132Y186503D01*
X9272Y185997D01*
X8440Y185448D01*
X7636Y184858D01*
X6863Y184228D01*
X6123Y183559D01*
X5418Y182854D01*
X4749Y182114D01*
X4119Y181341D01*
X3528Y180537D01*
X2979Y179704D01*
X2473Y178844D01*
X2012Y177961D01*
X1595Y177054D01*
X1225Y176128D01*
X903Y175184D01*
X628Y174225D01*
X403Y173254D01*
X227Y172272D01*
X101Y171283D01*
X25Y170288D01*
X0Y169291D01*
Y19685D02*
X25Y18688D01*
X101Y17694D01*
X227Y16704D01*
X403Y15722D01*
X628Y14751D01*
X903Y13792D01*
X1225Y12848D01*
X1595Y11922D01*
X2012Y11016D01*
X2473Y10132D01*
X2979Y9272D01*
X3528Y8440D01*
X4119Y7636D01*
X4749Y6863D01*
X5418Y6123D01*
X6123Y5418D01*
X6863Y4749D01*
X7636Y4119D01*
X8440Y3528D01*
X9272Y2979D01*
X10132Y2473D01*
X11016Y2012D01*
X11922Y1595D01*
X12848Y1225D01*
X13792Y903D01*
X14751Y628D01*
X15722Y403D01*
X16704Y227D01*
X17694Y101D01*
X18688Y25D01*
X19685Y0D01*
X472441Y19685D02*
Y169291D01*
X19685Y188976D02*
X452756D01*
X0Y19685D02*
Y169291D01*
X19685Y0D02*
X452756D01*
M02*
