G04*
G04 #@! TF.GenerationSoftware,Altium Limited,Altium Designer,18.1.9 (240)*
G04*
G04 Layer_Physical_Order=1*
G04 Layer_Color=255*
%FSLAX25Y25*%
%MOIN*%
G70*
G01*
G75*
%ADD14C,0.06890*%
%ADD15C,0.39370*%
%ADD16C,0.08661*%
%ADD17C,0.05906*%
G36*
X452756Y187772D02*
X453967D01*
X456369Y187456D01*
X458709Y186829D01*
X460947Y185902D01*
X463045Y184691D01*
X464967Y183216D01*
X466680Y181503D01*
X468155Y179581D01*
X469366Y177483D01*
X470294Y175245D01*
X470921Y172905D01*
X471237Y170503D01*
Y169291D01*
Y127953D01*
X459464D01*
X459403Y128260D01*
X459229Y128521D01*
X458969Y128694D01*
X458661Y128756D01*
X446166D01*
X445920Y129256D01*
X446366Y129837D01*
X446764Y130799D01*
X446834Y131331D01*
X442913D01*
X438992D01*
X439062Y130799D01*
X439461Y129837D01*
X439907Y129256D01*
X439660Y128756D01*
X427165D01*
X426858Y128694D01*
X426598Y128521D01*
X426424Y128260D01*
X426363Y127953D01*
X420094D01*
X420033Y128260D01*
X419859Y128521D01*
X419599Y128694D01*
X419291Y128756D01*
X406796D01*
X406550Y129256D01*
X406996Y129837D01*
X407394Y130799D01*
X407464Y131331D01*
X403543D01*
X399622D01*
X399692Y130799D01*
X400091Y129837D01*
X400537Y129256D01*
X400290Y128756D01*
X387795D01*
X387488Y128694D01*
X387228Y128521D01*
X387054Y128260D01*
X386993Y127953D01*
X380724D01*
X380663Y128260D01*
X380489Y128521D01*
X380228Y128694D01*
X379921Y128756D01*
X367426D01*
X367179Y129256D01*
X367626Y129837D01*
X368024Y130799D01*
X368094Y131331D01*
X364173D01*
X360252D01*
X360322Y130799D01*
X360720Y129837D01*
X361167Y129256D01*
X360920Y128756D01*
X348425D01*
X348118Y128694D01*
X347857Y128521D01*
X347684Y128260D01*
X347622Y127953D01*
X341354D01*
X341293Y128260D01*
X341119Y128521D01*
X340858Y128694D01*
X340551Y128756D01*
X328056D01*
X327810Y129256D01*
X328256Y129837D01*
X328654Y130799D01*
X328724Y131331D01*
X324803D01*
X320882D01*
X320952Y130799D01*
X321350Y129837D01*
X321797Y129256D01*
X321550Y128756D01*
X309055D01*
X308748Y128694D01*
X308487Y128521D01*
X308313Y128260D01*
X308252Y127953D01*
X301984D01*
X301923Y128260D01*
X301749Y128521D01*
X301488Y128694D01*
X301181Y128756D01*
X288686D01*
X288439Y129256D01*
X288886Y129837D01*
X289284Y130799D01*
X289354Y131331D01*
X285433D01*
X281512D01*
X281582Y130799D01*
X281980Y129837D01*
X282427Y129256D01*
X282180Y128756D01*
X269685D01*
X269378Y128694D01*
X269117Y128521D01*
X268943Y128260D01*
X268882Y127953D01*
X262614D01*
X262553Y128260D01*
X262379Y128521D01*
X262118Y128694D01*
X261811Y128756D01*
X249316D01*
X249069Y129256D01*
X249516Y129837D01*
X249914Y130799D01*
X249984Y131331D01*
X246063D01*
X242142D01*
X242212Y130799D01*
X242610Y129837D01*
X243057Y129256D01*
X242810Y128756D01*
X230315D01*
X230008Y128694D01*
X229747Y128521D01*
X229573Y128260D01*
X229512Y127953D01*
X223244D01*
X223183Y128260D01*
X223009Y128521D01*
X222748Y128694D01*
X222441Y128756D01*
X209946D01*
X209699Y129256D01*
X210146Y129837D01*
X210544Y130799D01*
X210614Y131331D01*
X206693D01*
X202772D01*
X202842Y130799D01*
X203240Y129837D01*
X203686Y129256D01*
X203440Y128756D01*
X190945D01*
X190638Y128694D01*
X190377Y128521D01*
X190203Y128260D01*
X190142Y127953D01*
X183874D01*
X183813Y128260D01*
X183639Y128521D01*
X183378Y128694D01*
X183071Y128756D01*
X170576D01*
X170329Y129256D01*
X170775Y129837D01*
X171174Y130799D01*
X171244Y131331D01*
X167323D01*
X163402D01*
X163472Y130799D01*
X163870Y129837D01*
X164316Y129256D01*
X164070Y128756D01*
X151575D01*
X151268Y128694D01*
X151007Y128521D01*
X150833Y128260D01*
X150772Y127953D01*
X144504D01*
X144442Y128260D01*
X144269Y128521D01*
X144008Y128694D01*
X143701Y128756D01*
X131206D01*
X130959Y129256D01*
X131405Y129837D01*
X131804Y130799D01*
X131874Y131331D01*
X127953D01*
X124032D01*
X124102Y130799D01*
X124500Y129837D01*
X124946Y129256D01*
X124700Y128756D01*
X112205D01*
X111898Y128694D01*
X111637Y128521D01*
X111463Y128260D01*
X111402Y127953D01*
X105133D01*
X105072Y128260D01*
X104898Y128521D01*
X104638Y128694D01*
X104331Y128756D01*
X91836D01*
X91589Y129256D01*
X92035Y129837D01*
X92434Y130799D01*
X92504Y131331D01*
X88583D01*
X84662D01*
X84732Y130799D01*
X85130Y129837D01*
X85576Y129256D01*
X85330Y128756D01*
X72835D01*
X72527Y128694D01*
X72267Y128521D01*
X72093Y128260D01*
X72032Y127953D01*
Y108268D01*
X1204D01*
Y169291D01*
Y170503D01*
X1520Y172905D01*
X2147Y175245D01*
X3074Y177483D01*
X4286Y179581D01*
X5761Y181503D01*
X7474Y183216D01*
X9396Y184691D01*
X11494Y185902D01*
X13732Y186829D01*
X16072Y187456D01*
X18474Y187772D01*
X19685D01*
X452756Y187772D01*
D02*
G37*
G36*
X419291Y92520D02*
X387795D01*
Y127953D01*
X401555D01*
X401654Y127453D01*
X401550Y127409D01*
X400724Y126776D01*
X400091Y125950D01*
X399692Y124989D01*
X399622Y124457D01*
X403543D01*
X407464D01*
X407394Y124989D01*
X406996Y125950D01*
X406362Y126776D01*
X405537Y127409D01*
X405432Y127453D01*
X405531Y127953D01*
X419291D01*
Y92520D01*
D02*
G37*
G36*
X458661D02*
X427165D01*
Y127953D01*
X440925D01*
X441024Y127453D01*
X440920Y127409D01*
X440094Y126776D01*
X439461Y125950D01*
X439062Y124989D01*
X438992Y124457D01*
X442913D01*
X446834D01*
X446764Y124989D01*
X446366Y125950D01*
X445732Y126776D01*
X444907Y127409D01*
X444802Y127453D01*
X444902Y127953D01*
X458661D01*
Y92520D01*
D02*
G37*
G36*
X301181D02*
X269685D01*
Y127953D01*
X283445D01*
X283544Y127453D01*
X283440Y127409D01*
X282614Y126776D01*
X281980Y125950D01*
X281582Y124989D01*
X281512Y124457D01*
X285433D01*
X289354D01*
X289284Y124989D01*
X288886Y125950D01*
X288252Y126776D01*
X287426Y127409D01*
X287322Y127453D01*
X287421Y127953D01*
X301181D01*
Y92520D01*
D02*
G37*
G36*
X143701D02*
X112205D01*
Y127953D01*
X125964D01*
X126064Y127453D01*
X125959Y127409D01*
X125134Y126776D01*
X124500Y125950D01*
X124102Y124989D01*
X124032Y124457D01*
X127953D01*
X131874D01*
X131804Y124989D01*
X131405Y125950D01*
X130772Y126776D01*
X129946Y127409D01*
X129841Y127453D01*
X129941Y127953D01*
X143701D01*
Y92520D01*
D02*
G37*
G36*
X340551D02*
X309055D01*
Y127953D01*
X322815D01*
X322914Y127453D01*
X322810Y127409D01*
X321984Y126776D01*
X321350Y125950D01*
X320952Y124989D01*
X320882Y124457D01*
X324803D01*
X328724D01*
X328654Y124989D01*
X328256Y125950D01*
X327622Y126776D01*
X326797Y127409D01*
X326692Y127453D01*
X326791Y127953D01*
X340551D01*
Y92520D01*
D02*
G37*
G36*
X183071D02*
X151575D01*
Y127953D01*
X165335D01*
X165434Y127453D01*
X165329Y127409D01*
X164504Y126776D01*
X163870Y125950D01*
X163472Y124989D01*
X163402Y124457D01*
X167323D01*
X171244D01*
X171174Y124989D01*
X170775Y125950D01*
X170142Y126776D01*
X169316Y127409D01*
X169212Y127453D01*
X169311Y127953D01*
X183071D01*
Y92520D01*
D02*
G37*
G36*
X104331D02*
X72835D01*
Y127953D01*
X86594D01*
X86694Y127453D01*
X86589Y127409D01*
X85764Y126776D01*
X85130Y125950D01*
X84732Y124989D01*
X84662Y124457D01*
X88583D01*
X92504D01*
X92434Y124989D01*
X92035Y125950D01*
X91402Y126776D01*
X90576Y127409D01*
X90471Y127453D01*
X90571Y127953D01*
X104331D01*
Y92520D01*
D02*
G37*
G36*
X379921D02*
X348425D01*
Y127953D01*
X362185D01*
X362284Y127453D01*
X362180Y127409D01*
X361354Y126776D01*
X360720Y125950D01*
X360322Y124989D01*
X360252Y124457D01*
X364173D01*
X368094D01*
X368024Y124989D01*
X367626Y125950D01*
X366992Y126776D01*
X366167Y127409D01*
X366062Y127453D01*
X366161Y127953D01*
X379921D01*
Y92520D01*
D02*
G37*
G36*
X222441D02*
X190945D01*
Y127953D01*
X204705D01*
X204804Y127453D01*
X204699Y127409D01*
X203874Y126776D01*
X203240Y125950D01*
X202842Y124989D01*
X202772Y124457D01*
X206693D01*
X210614D01*
X210544Y124989D01*
X210146Y125950D01*
X209512Y126776D01*
X208686Y127409D01*
X208582Y127453D01*
X208681Y127953D01*
X222441D01*
Y92520D01*
D02*
G37*
G36*
X261811D02*
X230315D01*
Y127953D01*
X244075D01*
X244174Y127453D01*
X244070Y127409D01*
X243244Y126776D01*
X242610Y125950D01*
X242212Y124989D01*
X242142Y124457D01*
X246063D01*
X249984D01*
X249914Y124989D01*
X249516Y125950D01*
X248882Y126776D01*
X248056Y127409D01*
X247952Y127453D01*
X248051Y127953D01*
X261811D01*
Y92520D01*
D02*
G37*
G36*
X471237Y19685D02*
Y18474D01*
X470921Y16072D01*
X470294Y13732D01*
X469366Y11494D01*
X468155Y9396D01*
X466680Y7474D01*
X464967Y5761D01*
X463045Y4286D01*
X460947Y3074D01*
X458709Y2147D01*
X456369Y1520D01*
X453967Y1204D01*
X18474D01*
X16072Y1520D01*
X13732Y2147D01*
X11494Y3074D01*
X9396Y4286D01*
X7474Y5761D01*
X5761Y7474D01*
X4286Y9396D01*
X3074Y11494D01*
X2147Y13732D01*
X1520Y16072D01*
X1204Y18474D01*
Y19685D01*
Y84646D01*
X471237D01*
Y19685D01*
D02*
G37*
%LPC*%
G36*
X452756Y180546D02*
X450995Y180408D01*
X449278Y179996D01*
X447646Y179320D01*
X446140Y178397D01*
X444797Y177250D01*
X443650Y175907D01*
X442728Y174401D01*
X442052Y172769D01*
X441639Y171052D01*
X441501Y169291D01*
X441639Y167531D01*
X442052Y165813D01*
X442728Y164182D01*
X443650Y162676D01*
X444797Y161333D01*
X446140Y160186D01*
X447646Y159263D01*
X449278Y158587D01*
X450995Y158175D01*
X452756Y158036D01*
X454517Y158175D01*
X456234Y158587D01*
X457866Y159263D01*
X459372Y160186D01*
X460714Y161333D01*
X461862Y162676D01*
X462784Y164182D01*
X463460Y165813D01*
X463872Y167531D01*
X464011Y169291D01*
X463872Y171052D01*
X463460Y172769D01*
X462784Y174401D01*
X461862Y175907D01*
X460714Y177250D01*
X459372Y178397D01*
X457866Y179320D01*
X456234Y179996D01*
X454517Y180408D01*
X452756Y180546D01*
D02*
G37*
G36*
X19685D02*
X17924Y180408D01*
X16207Y179996D01*
X14575Y179320D01*
X13069Y178397D01*
X11726Y177250D01*
X10579Y175907D01*
X9657Y174401D01*
X8981Y172769D01*
X8568Y171052D01*
X8430Y169291D01*
X8568Y167531D01*
X8981Y165813D01*
X9657Y164182D01*
X10579Y162676D01*
X11726Y161333D01*
X13069Y160186D01*
X14575Y159263D01*
X16207Y158587D01*
X17924Y158175D01*
X19685Y158036D01*
X21446Y158175D01*
X23163Y158587D01*
X24795Y159263D01*
X26301Y160186D01*
X27644Y161333D01*
X28791Y162676D01*
X29713Y164182D01*
X30389Y165813D01*
X30802Y167531D01*
X30940Y169291D01*
X30802Y171052D01*
X30389Y172769D01*
X29713Y174401D01*
X28791Y175907D01*
X27644Y177250D01*
X26301Y178397D01*
X24795Y179320D01*
X23163Y179996D01*
X21446Y180408D01*
X19685Y180546D01*
D02*
G37*
G36*
X403543Y153349D02*
X402152Y153166D01*
X400855Y152629D01*
X399741Y151774D01*
X398887Y150661D01*
X398350Y149364D01*
X398166Y147972D01*
X398350Y146581D01*
X398887Y145284D01*
X399741Y144170D01*
X400855Y143316D01*
X400979Y143265D01*
X401044Y142769D01*
X400724Y142524D01*
X400091Y141698D01*
X399692Y140737D01*
X399622Y140205D01*
X403543D01*
X407464D01*
X407394Y140737D01*
X406996Y141698D01*
X406362Y142524D01*
X406043Y142769D01*
X406108Y143265D01*
X406232Y143316D01*
X407345Y144170D01*
X408200Y145284D01*
X408737Y146581D01*
X408920Y147972D01*
X408737Y149364D01*
X408200Y150661D01*
X407345Y151774D01*
X406232Y152629D01*
X404935Y153166D01*
X403543Y153349D01*
D02*
G37*
G36*
X442913D02*
X441522Y153166D01*
X440225Y152629D01*
X439111Y151774D01*
X438257Y150661D01*
X437720Y149364D01*
X437537Y147972D01*
X437720Y146581D01*
X438257Y145284D01*
X439111Y144170D01*
X440225Y143316D01*
X440348Y143265D01*
X440414Y142769D01*
X440094Y142524D01*
X439461Y141698D01*
X439062Y140737D01*
X438992Y140205D01*
X442913D01*
X446834D01*
X446764Y140737D01*
X446366Y141698D01*
X445732Y142524D01*
X445413Y142769D01*
X445478Y143265D01*
X445602Y143316D01*
X446715Y144170D01*
X447570Y145284D01*
X448107Y146581D01*
X448290Y147972D01*
X448107Y149364D01*
X447570Y150661D01*
X446715Y151774D01*
X445602Y152629D01*
X444305Y153166D01*
X442913Y153349D01*
D02*
G37*
G36*
X285433D02*
X284041Y153166D01*
X282745Y152629D01*
X281631Y151774D01*
X280777Y150661D01*
X280240Y149364D01*
X280056Y147972D01*
X280240Y146581D01*
X280777Y145284D01*
X281631Y144170D01*
X282745Y143316D01*
X282868Y143265D01*
X282933Y142769D01*
X282614Y142524D01*
X281980Y141698D01*
X281582Y140737D01*
X281512Y140205D01*
X285433D01*
X289354D01*
X289284Y140737D01*
X288886Y141698D01*
X288252Y142524D01*
X287932Y142769D01*
X287998Y143265D01*
X288121Y143316D01*
X289235Y144170D01*
X290089Y145284D01*
X290627Y146581D01*
X290810Y147972D01*
X290627Y149364D01*
X290089Y150661D01*
X289235Y151774D01*
X288121Y152629D01*
X286825Y153166D01*
X285433Y153349D01*
D02*
G37*
G36*
X127953D02*
X126561Y153166D01*
X125264Y152629D01*
X124151Y151774D01*
X123296Y150661D01*
X122759Y149364D01*
X122576Y147972D01*
X122759Y146581D01*
X123296Y145284D01*
X124151Y144170D01*
X125264Y143316D01*
X125388Y143265D01*
X125453Y142769D01*
X125134Y142524D01*
X124500Y141698D01*
X124102Y140737D01*
X124032Y140205D01*
X127953D01*
X131874D01*
X131804Y140737D01*
X131405Y141698D01*
X130772Y142524D01*
X130452Y142769D01*
X130517Y143265D01*
X130641Y143316D01*
X131755Y144170D01*
X132609Y145284D01*
X133146Y146581D01*
X133329Y147972D01*
X133146Y149364D01*
X132609Y150661D01*
X131755Y151774D01*
X130641Y152629D01*
X129344Y153166D01*
X127953Y153349D01*
D02*
G37*
G36*
X324803D02*
X323411Y153166D01*
X322115Y152629D01*
X321001Y151774D01*
X320147Y150661D01*
X319610Y149364D01*
X319426Y147972D01*
X319610Y146581D01*
X320147Y145284D01*
X321001Y144170D01*
X322115Y143316D01*
X322238Y143265D01*
X322304Y142769D01*
X321984Y142524D01*
X321350Y141698D01*
X320952Y140737D01*
X320882Y140205D01*
X324803D01*
X328724D01*
X328654Y140737D01*
X328256Y141698D01*
X327622Y142524D01*
X327303Y142769D01*
X327368Y143265D01*
X327491Y143316D01*
X328605Y144170D01*
X329460Y145284D01*
X329997Y146581D01*
X330180Y147972D01*
X329997Y149364D01*
X329460Y150661D01*
X328605Y151774D01*
X327491Y152629D01*
X326195Y153166D01*
X324803Y153349D01*
D02*
G37*
G36*
X167323D02*
X165931Y153166D01*
X164634Y152629D01*
X163521Y151774D01*
X162666Y150661D01*
X162129Y149364D01*
X161946Y147972D01*
X162129Y146581D01*
X162666Y145284D01*
X163521Y144170D01*
X164634Y143316D01*
X164758Y143265D01*
X164823Y142769D01*
X164504Y142524D01*
X163870Y141698D01*
X163472Y140737D01*
X163402Y140205D01*
X167323D01*
X171244D01*
X171174Y140737D01*
X170775Y141698D01*
X170142Y142524D01*
X169822Y142769D01*
X169888Y143265D01*
X170011Y143316D01*
X171125Y144170D01*
X171979Y145284D01*
X172516Y146581D01*
X172699Y147972D01*
X172516Y149364D01*
X171979Y150661D01*
X171125Y151774D01*
X170011Y152629D01*
X168714Y153166D01*
X167323Y153349D01*
D02*
G37*
G36*
X88583D02*
X87191Y153166D01*
X85894Y152629D01*
X84781Y151774D01*
X83926Y150661D01*
X83389Y149364D01*
X83206Y147972D01*
X83389Y146581D01*
X83926Y145284D01*
X84781Y144170D01*
X85894Y143316D01*
X86018Y143265D01*
X86083Y142769D01*
X85764Y142524D01*
X85130Y141698D01*
X84732Y140737D01*
X84662Y140205D01*
X88583D01*
X92504D01*
X92434Y140737D01*
X92035Y141698D01*
X91402Y142524D01*
X91082Y142769D01*
X91147Y143265D01*
X91271Y143316D01*
X92385Y144170D01*
X93239Y145284D01*
X93776Y146581D01*
X93959Y147972D01*
X93776Y149364D01*
X93239Y150661D01*
X92385Y151774D01*
X91271Y152629D01*
X89974Y153166D01*
X88583Y153349D01*
D02*
G37*
G36*
X364173D02*
X362782Y153166D01*
X361485Y152629D01*
X360371Y151774D01*
X359517Y150661D01*
X358980Y149364D01*
X358796Y147972D01*
X358980Y146581D01*
X359517Y145284D01*
X360371Y144170D01*
X361485Y143316D01*
X361608Y143265D01*
X361674Y142769D01*
X361354Y142524D01*
X360720Y141698D01*
X360322Y140737D01*
X360252Y140205D01*
X364173D01*
X368094D01*
X368024Y140737D01*
X367626Y141698D01*
X366992Y142524D01*
X366673Y142769D01*
X366738Y143265D01*
X366862Y143316D01*
X367975Y144170D01*
X368829Y145284D01*
X369367Y146581D01*
X369550Y147972D01*
X369367Y149364D01*
X368829Y150661D01*
X367975Y151774D01*
X366862Y152629D01*
X365565Y153166D01*
X364173Y153349D01*
D02*
G37*
G36*
X206693D02*
X205301Y153166D01*
X204005Y152629D01*
X202891Y151774D01*
X202036Y150661D01*
X201499Y149364D01*
X201316Y147972D01*
X201499Y146581D01*
X202036Y145284D01*
X202891Y144170D01*
X204005Y143316D01*
X204128Y143265D01*
X204193Y142769D01*
X203874Y142524D01*
X203240Y141698D01*
X202842Y140737D01*
X202772Y140205D01*
X206693D01*
X210614D01*
X210544Y140737D01*
X210146Y141698D01*
X209512Y142524D01*
X209192Y142769D01*
X209258Y143265D01*
X209381Y143316D01*
X210495Y144170D01*
X211349Y145284D01*
X211886Y146581D01*
X212070Y147972D01*
X211886Y149364D01*
X211349Y150661D01*
X210495Y151774D01*
X209381Y152629D01*
X208085Y153166D01*
X206693Y153349D01*
D02*
G37*
G36*
X246063D02*
X244671Y153166D01*
X243375Y152629D01*
X242261Y151774D01*
X241407Y150661D01*
X240869Y149364D01*
X240686Y147972D01*
X240869Y146581D01*
X241407Y145284D01*
X242261Y144170D01*
X243375Y143316D01*
X243498Y143265D01*
X243564Y142769D01*
X243244Y142524D01*
X242610Y141698D01*
X242212Y140737D01*
X242142Y140205D01*
X246063D01*
X249984D01*
X249914Y140737D01*
X249516Y141698D01*
X248882Y142524D01*
X248562Y142769D01*
X248628Y143265D01*
X248751Y143316D01*
X249865Y144170D01*
X250719Y145284D01*
X251256Y146581D01*
X251440Y147972D01*
X251256Y149364D01*
X250719Y150661D01*
X249865Y151774D01*
X248751Y152629D01*
X247455Y153166D01*
X246063Y153349D01*
D02*
G37*
G36*
X37933Y152636D02*
Y134587D01*
X55983D01*
X55970Y134790D01*
X55441Y137448D01*
X54570Y140013D01*
X53372Y142443D01*
X51866Y144696D01*
X50080Y146733D01*
X48043Y148520D01*
X45790Y150025D01*
X43360Y151224D01*
X40794Y152094D01*
X38137Y152623D01*
X37933Y152636D01*
D02*
G37*
G36*
X32933D02*
X32729Y152623D01*
X30072Y152094D01*
X27506Y151224D01*
X25076Y150025D01*
X22823Y148520D01*
X20786Y146733D01*
X19000Y144696D01*
X17494Y142443D01*
X16296Y140013D01*
X15425Y137448D01*
X14897Y134790D01*
X14883Y134587D01*
X32933D01*
Y152636D01*
D02*
G37*
G36*
X407464Y139205D02*
X403543D01*
X399622D01*
X399692Y138673D01*
X400091Y137711D01*
X400724Y136886D01*
X401550Y136252D01*
X402066Y136038D01*
Y135497D01*
X401550Y135283D01*
X400724Y134650D01*
X400091Y133824D01*
X399692Y132863D01*
X399622Y132331D01*
X403543D01*
X407464D01*
X407394Y132863D01*
X406996Y133824D01*
X406362Y134650D01*
X405537Y135283D01*
X405021Y135497D01*
Y136038D01*
X405537Y136252D01*
X406362Y136886D01*
X406996Y137711D01*
X407394Y138673D01*
X407464Y139205D01*
D02*
G37*
G36*
X446834Y139205D02*
X442913D01*
X438992D01*
X439062Y138673D01*
X439461Y137711D01*
X440094Y136886D01*
X440920Y136252D01*
X441436Y136038D01*
Y135497D01*
X440920Y135283D01*
X440094Y134650D01*
X439461Y133824D01*
X439062Y132863D01*
X438992Y132331D01*
X442913D01*
X446834D01*
X446764Y132863D01*
X446366Y133824D01*
X445732Y134650D01*
X444907Y135283D01*
X444391Y135497D01*
Y136038D01*
X444907Y136252D01*
X445732Y136886D01*
X446366Y137711D01*
X446764Y138673D01*
X446834Y139205D01*
D02*
G37*
G36*
X289354D02*
X285433D01*
X281512D01*
X281582Y138673D01*
X281980Y137711D01*
X282614Y136886D01*
X283440Y136252D01*
X283956Y136038D01*
Y135497D01*
X283440Y135283D01*
X282614Y134650D01*
X281980Y133824D01*
X281582Y132863D01*
X281512Y132331D01*
X285433D01*
X289354D01*
X289284Y132863D01*
X288886Y133824D01*
X288252Y134650D01*
X287426Y135283D01*
X286911Y135497D01*
Y136038D01*
X287426Y136252D01*
X288252Y136886D01*
X288886Y137711D01*
X289284Y138673D01*
X289354Y139205D01*
D02*
G37*
G36*
X131874D02*
X127953D01*
X124032D01*
X124102Y138673D01*
X124500Y137711D01*
X125134Y136886D01*
X125959Y136252D01*
X126475Y136038D01*
Y135497D01*
X125959Y135283D01*
X125134Y134650D01*
X124500Y133824D01*
X124102Y132863D01*
X124032Y132331D01*
X127953D01*
X131874D01*
X131804Y132863D01*
X131405Y133824D01*
X130772Y134650D01*
X129946Y135283D01*
X129430Y135497D01*
Y136038D01*
X129946Y136252D01*
X130772Y136886D01*
X131405Y137711D01*
X131804Y138673D01*
X131874Y139205D01*
D02*
G37*
G36*
X328724Y139205D02*
X324803D01*
X320882D01*
X320952Y138673D01*
X321350Y137711D01*
X321984Y136886D01*
X322810Y136252D01*
X323325Y136038D01*
Y135497D01*
X322810Y135283D01*
X321984Y134650D01*
X321350Y133824D01*
X320952Y132863D01*
X320882Y132331D01*
X324803D01*
X328724D01*
X328654Y132863D01*
X328256Y133824D01*
X327622Y134650D01*
X326797Y135283D01*
X326281Y135497D01*
Y136038D01*
X326797Y136252D01*
X327622Y136886D01*
X328256Y137711D01*
X328654Y138673D01*
X328724Y139205D01*
D02*
G37*
G36*
X171244D02*
X167323D01*
X163402D01*
X163472Y138673D01*
X163870Y137711D01*
X164504Y136886D01*
X165329Y136252D01*
X165845Y136038D01*
Y135497D01*
X165329Y135283D01*
X164504Y134650D01*
X163870Y133824D01*
X163472Y132863D01*
X163402Y132331D01*
X167323D01*
X171244D01*
X171174Y132863D01*
X170775Y133824D01*
X170142Y134650D01*
X169316Y135283D01*
X168800Y135497D01*
Y136038D01*
X169316Y136252D01*
X170142Y136886D01*
X170775Y137711D01*
X171174Y138673D01*
X171244Y139205D01*
D02*
G37*
G36*
X92504D02*
X88583D01*
X84662D01*
X84732Y138673D01*
X85130Y137711D01*
X85764Y136886D01*
X86589Y136252D01*
X87105Y136038D01*
Y135497D01*
X86589Y135283D01*
X85764Y134650D01*
X85130Y133824D01*
X84732Y132863D01*
X84662Y132331D01*
X88583D01*
X92504D01*
X92434Y132863D01*
X92035Y133824D01*
X91402Y134650D01*
X90576Y135283D01*
X90060Y135497D01*
Y136038D01*
X90576Y136252D01*
X91402Y136886D01*
X92035Y137711D01*
X92434Y138673D01*
X92504Y139205D01*
D02*
G37*
G36*
X368094Y139205D02*
X364173D01*
X360252D01*
X360322Y138673D01*
X360720Y137711D01*
X361354Y136886D01*
X362180Y136252D01*
X362696Y136038D01*
Y135497D01*
X362180Y135283D01*
X361354Y134650D01*
X360720Y133824D01*
X360322Y132863D01*
X360252Y132331D01*
X364173D01*
X368094D01*
X368024Y132863D01*
X367626Y133824D01*
X366992Y134650D01*
X366167Y135283D01*
X365651Y135497D01*
Y136038D01*
X366167Y136252D01*
X366992Y136886D01*
X367626Y137711D01*
X368024Y138673D01*
X368094Y139205D01*
D02*
G37*
G36*
X210614D02*
X206693D01*
X202772D01*
X202842Y138673D01*
X203240Y137711D01*
X203874Y136886D01*
X204699Y136252D01*
X205215Y136038D01*
Y135497D01*
X204699Y135283D01*
X203874Y134650D01*
X203240Y133824D01*
X202842Y132863D01*
X202772Y132331D01*
X206693D01*
X210614D01*
X210544Y132863D01*
X210146Y133824D01*
X209512Y134650D01*
X208686Y135283D01*
X208170Y135497D01*
Y136038D01*
X208686Y136252D01*
X209512Y136886D01*
X210146Y137711D01*
X210544Y138673D01*
X210614Y139205D01*
D02*
G37*
G36*
X249984Y139205D02*
X246063D01*
X242142D01*
X242212Y138673D01*
X242610Y137711D01*
X243244Y136886D01*
X244070Y136252D01*
X244585Y136038D01*
Y135497D01*
X244070Y135283D01*
X243244Y134650D01*
X242610Y133824D01*
X242212Y132863D01*
X242142Y132331D01*
X246063D01*
X249984D01*
X249914Y132863D01*
X249516Y133824D01*
X248882Y134650D01*
X248056Y135283D01*
X247540Y135497D01*
Y136038D01*
X248056Y136252D01*
X248882Y136886D01*
X249516Y137711D01*
X249914Y138673D01*
X249984Y139205D01*
D02*
G37*
G36*
X55983Y129587D02*
X37933D01*
Y111537D01*
X38137Y111550D01*
X40794Y112079D01*
X43360Y112950D01*
X45790Y114148D01*
X48043Y115653D01*
X50080Y117440D01*
X51866Y119477D01*
X53372Y121730D01*
X54570Y124160D01*
X55441Y126725D01*
X55970Y129383D01*
X55983Y129587D01*
D02*
G37*
G36*
X32933D02*
X14883D01*
X14897Y129383D01*
X15425Y126725D01*
X16296Y124160D01*
X17494Y121730D01*
X19000Y119477D01*
X20786Y117440D01*
X22823Y115653D01*
X25076Y114148D01*
X27506Y112950D01*
X30072Y112079D01*
X32729Y111550D01*
X32933Y111537D01*
Y129587D01*
D02*
G37*
G36*
X407464Y123457D02*
X403543D01*
X399622D01*
X399692Y122925D01*
X400091Y121963D01*
X400724Y121137D01*
X401044Y120892D01*
X400979Y120396D01*
X400855Y120345D01*
X399741Y119491D01*
X398887Y118377D01*
X398350Y117081D01*
X398166Y115689D01*
X398350Y114297D01*
X398887Y113001D01*
X399741Y111887D01*
X400855Y111033D01*
X402152Y110495D01*
X403543Y110312D01*
X404935Y110495D01*
X406232Y111033D01*
X407345Y111887D01*
X408200Y113001D01*
X408737Y114297D01*
X408920Y115689D01*
X408737Y117081D01*
X408200Y118377D01*
X407345Y119491D01*
X406232Y120345D01*
X406108Y120396D01*
X406043Y120892D01*
X406362Y121137D01*
X406996Y121963D01*
X407394Y122925D01*
X407464Y123457D01*
D02*
G37*
G36*
X413886Y102843D02*
Y98925D01*
X417803D01*
X417716Y99585D01*
X417268Y100667D01*
X416556Y101595D01*
X415627Y102308D01*
X414546Y102756D01*
X413886Y102843D01*
D02*
G37*
G36*
X412886D02*
X412225Y102756D01*
X411144Y102308D01*
X410216Y101595D01*
X409503Y100667D01*
X409055Y99585D01*
X408968Y98925D01*
X412886D01*
Y102843D01*
D02*
G37*
G36*
X394201Y102843D02*
Y98925D01*
X398118D01*
X398031Y99585D01*
X397583Y100667D01*
X396871Y101595D01*
X395942Y102308D01*
X394861Y102756D01*
X394201Y102843D01*
D02*
G37*
G36*
X393201Y102843D02*
X392540Y102756D01*
X391459Y102308D01*
X390530Y101595D01*
X389818Y100667D01*
X389370Y99585D01*
X389283Y98925D01*
X393201D01*
Y102843D01*
D02*
G37*
G36*
X398118Y97925D02*
X394201D01*
Y94008D01*
X394861Y94095D01*
X395942Y94543D01*
X396871Y95255D01*
X397583Y96184D01*
X398031Y97265D01*
X398118Y97925D01*
D02*
G37*
G36*
X417803Y97925D02*
X413886D01*
Y94008D01*
X414546Y94095D01*
X415627Y94543D01*
X416556Y95255D01*
X417268Y96184D01*
X417716Y97265D01*
X417803Y97925D01*
D02*
G37*
G36*
X412886D02*
X408968D01*
X409055Y97265D01*
X409503Y96184D01*
X410216Y95255D01*
X411144Y94543D01*
X412225Y94095D01*
X412886Y94008D01*
Y97925D01*
D02*
G37*
G36*
X393201Y97925D02*
X389283D01*
X389370Y97265D01*
X389818Y96184D01*
X390530Y95255D01*
X391459Y94543D01*
X392540Y94095D01*
X393201Y94008D01*
Y97925D01*
D02*
G37*
G36*
X446834Y123457D02*
X442913D01*
X438992D01*
X439062Y122925D01*
X439461Y121963D01*
X440094Y121137D01*
X440414Y120892D01*
X440348Y120396D01*
X440225Y120345D01*
X439111Y119491D01*
X438257Y118377D01*
X437720Y117081D01*
X437537Y115689D01*
X437720Y114297D01*
X438257Y113001D01*
X439111Y111887D01*
X440225Y111033D01*
X441522Y110495D01*
X442913Y110312D01*
X444305Y110495D01*
X445602Y111033D01*
X446715Y111887D01*
X447570Y113001D01*
X448107Y114297D01*
X448290Y115689D01*
X448107Y117081D01*
X447570Y118377D01*
X446715Y119491D01*
X445602Y120345D01*
X445478Y120396D01*
X445413Y120892D01*
X445732Y121137D01*
X446366Y121963D01*
X446764Y122925D01*
X446834Y123457D01*
D02*
G37*
G36*
X433571Y102843D02*
Y98925D01*
X437488D01*
X437401Y99585D01*
X436953Y100667D01*
X436241Y101595D01*
X435312Y102308D01*
X434231Y102756D01*
X433571Y102843D01*
D02*
G37*
G36*
X432571Y102843D02*
X431910Y102756D01*
X430829Y102308D01*
X429901Y101595D01*
X429188Y100667D01*
X428740Y99585D01*
X428653Y98925D01*
X432571D01*
Y102843D01*
D02*
G37*
G36*
X453256Y102843D02*
Y98925D01*
X457173D01*
X457086Y99585D01*
X456638Y100667D01*
X455926Y101595D01*
X454997Y102308D01*
X453916Y102756D01*
X453256Y102843D01*
D02*
G37*
G36*
X452256Y102843D02*
X451595Y102756D01*
X450514Y102308D01*
X449586Y101595D01*
X448873Y100667D01*
X448425Y99585D01*
X448338Y98925D01*
X452256D01*
Y102843D01*
D02*
G37*
G36*
X457173Y97925D02*
X453256D01*
Y94008D01*
X453916Y94095D01*
X454997Y94543D01*
X455926Y95255D01*
X456638Y96184D01*
X457086Y97265D01*
X457173Y97925D01*
D02*
G37*
G36*
X437488Y97925D02*
X433571D01*
Y94008D01*
X434231Y94095D01*
X435312Y94543D01*
X436241Y95255D01*
X436953Y96184D01*
X437401Y97265D01*
X437488Y97925D01*
D02*
G37*
G36*
X432571D02*
X428653D01*
X428740Y97265D01*
X429188Y96184D01*
X429901Y95255D01*
X430829Y94543D01*
X431910Y94095D01*
X432571Y94008D01*
Y97925D01*
D02*
G37*
G36*
X452256Y97925D02*
X448338D01*
X448425Y97265D01*
X448873Y96184D01*
X449586Y95255D01*
X450514Y94543D01*
X451595Y94095D01*
X452256Y94008D01*
Y97925D01*
D02*
G37*
G36*
X289354Y123457D02*
X285433D01*
X281512D01*
X281582Y122925D01*
X281980Y121963D01*
X282614Y121137D01*
X282933Y120892D01*
X282868Y120396D01*
X282745Y120345D01*
X281631Y119491D01*
X280777Y118377D01*
X280240Y117081D01*
X280056Y115689D01*
X280240Y114297D01*
X280777Y113001D01*
X281631Y111887D01*
X282745Y111033D01*
X284041Y110495D01*
X285433Y110312D01*
X286825Y110495D01*
X288121Y111033D01*
X289235Y111887D01*
X290089Y113001D01*
X290627Y114297D01*
X290810Y115689D01*
X290627Y117081D01*
X290089Y118377D01*
X289235Y119491D01*
X288121Y120345D01*
X287998Y120396D01*
X287932Y120892D01*
X288252Y121137D01*
X288886Y121963D01*
X289284Y122925D01*
X289354Y123457D01*
D02*
G37*
G36*
X276091Y102843D02*
Y98925D01*
X280008D01*
X279921Y99585D01*
X279473Y100667D01*
X278761Y101595D01*
X277832Y102308D01*
X276751Y102756D01*
X276091Y102843D01*
D02*
G37*
G36*
X275091Y102843D02*
X274430Y102756D01*
X273349Y102308D01*
X272420Y101595D01*
X271708Y100667D01*
X271260Y99585D01*
X271173Y98925D01*
X275091D01*
Y102843D01*
D02*
G37*
G36*
X295776Y102843D02*
Y98925D01*
X299693D01*
X299606Y99585D01*
X299158Y100667D01*
X298446Y101595D01*
X297517Y102308D01*
X296436Y102756D01*
X295776Y102843D01*
D02*
G37*
G36*
X294776Y102843D02*
X294115Y102756D01*
X293034Y102308D01*
X292105Y101595D01*
X291393Y100667D01*
X290945Y99585D01*
X290858Y98925D01*
X294776D01*
Y102843D01*
D02*
G37*
G36*
X299693Y97925D02*
X295776D01*
Y94008D01*
X296436Y94095D01*
X297517Y94543D01*
X298446Y95255D01*
X299158Y96184D01*
X299606Y97265D01*
X299693Y97925D01*
D02*
G37*
G36*
X280008Y97925D02*
X276091D01*
Y94008D01*
X276751Y94095D01*
X277832Y94543D01*
X278761Y95255D01*
X279473Y96184D01*
X279921Y97265D01*
X280008Y97925D01*
D02*
G37*
G36*
X275091D02*
X271173D01*
X271260Y97265D01*
X271708Y96184D01*
X272420Y95255D01*
X273349Y94543D01*
X274430Y94095D01*
X275091Y94008D01*
Y97925D01*
D02*
G37*
G36*
X294776Y97925D02*
X290858D01*
X290945Y97265D01*
X291393Y96184D01*
X292105Y95255D01*
X293034Y94543D01*
X294115Y94095D01*
X294776Y94008D01*
Y97925D01*
D02*
G37*
G36*
X131874Y123457D02*
X127953D01*
X124032D01*
X124102Y122925D01*
X124500Y121963D01*
X125134Y121137D01*
X125453Y120892D01*
X125388Y120396D01*
X125264Y120345D01*
X124151Y119491D01*
X123296Y118377D01*
X122759Y117081D01*
X122576Y115689D01*
X122759Y114297D01*
X123296Y113001D01*
X124151Y111887D01*
X125264Y111033D01*
X126561Y110495D01*
X127953Y110312D01*
X129344Y110495D01*
X130641Y111033D01*
X131755Y111887D01*
X132609Y113001D01*
X133146Y114297D01*
X133329Y115689D01*
X133146Y117081D01*
X132609Y118377D01*
X131755Y119491D01*
X130641Y120345D01*
X130517Y120396D01*
X130452Y120892D01*
X130772Y121137D01*
X131405Y121963D01*
X131804Y122925D01*
X131874Y123457D01*
D02*
G37*
G36*
X118610Y102843D02*
Y98925D01*
X122528D01*
X122441Y99585D01*
X121993Y100667D01*
X121280Y101595D01*
X120352Y102308D01*
X119271Y102756D01*
X118610Y102843D01*
D02*
G37*
G36*
X117610Y102843D02*
X116950Y102756D01*
X115869Y102308D01*
X114940Y101595D01*
X114228Y100667D01*
X113780Y99585D01*
X113693Y98925D01*
X117610D01*
Y102843D01*
D02*
G37*
G36*
X138295Y102843D02*
Y98925D01*
X142213D01*
X142126Y99585D01*
X141678Y100667D01*
X140965Y101595D01*
X140037Y102308D01*
X138956Y102756D01*
X138295Y102843D01*
D02*
G37*
G36*
X137295Y102843D02*
X136635Y102756D01*
X135554Y102308D01*
X134625Y101595D01*
X133913Y100667D01*
X133465Y99585D01*
X133378Y98925D01*
X137295D01*
Y102843D01*
D02*
G37*
G36*
X142213Y97925D02*
X138295D01*
Y94008D01*
X138956Y94095D01*
X140037Y94543D01*
X140965Y95255D01*
X141678Y96184D01*
X142126Y97265D01*
X142213Y97925D01*
D02*
G37*
G36*
X122528Y97925D02*
X118610D01*
Y94008D01*
X119271Y94095D01*
X120352Y94543D01*
X121280Y95255D01*
X121993Y96184D01*
X122441Y97265D01*
X122528Y97925D01*
D02*
G37*
G36*
X117610D02*
X113693D01*
X113780Y97265D01*
X114228Y96184D01*
X114940Y95255D01*
X115869Y94543D01*
X116950Y94095D01*
X117610Y94008D01*
Y97925D01*
D02*
G37*
G36*
X137295Y97925D02*
X133378D01*
X133465Y97265D01*
X133913Y96184D01*
X134625Y95255D01*
X135554Y94543D01*
X136635Y94095D01*
X137295Y94008D01*
Y97925D01*
D02*
G37*
G36*
X328724Y123457D02*
X324803D01*
X320882D01*
X320952Y122925D01*
X321350Y121963D01*
X321984Y121137D01*
X322304Y120892D01*
X322238Y120396D01*
X322115Y120345D01*
X321001Y119491D01*
X320147Y118377D01*
X319610Y117081D01*
X319426Y115689D01*
X319610Y114297D01*
X320147Y113001D01*
X321001Y111887D01*
X322115Y111033D01*
X323411Y110495D01*
X324803Y110312D01*
X326195Y110495D01*
X327491Y111033D01*
X328605Y111887D01*
X329460Y113001D01*
X329997Y114297D01*
X330180Y115689D01*
X329997Y117081D01*
X329460Y118377D01*
X328605Y119491D01*
X327491Y120345D01*
X327368Y120396D01*
X327303Y120892D01*
X327622Y121137D01*
X328256Y121963D01*
X328654Y122925D01*
X328724Y123457D01*
D02*
G37*
G36*
X315460Y102843D02*
Y98925D01*
X319378D01*
X319291Y99585D01*
X318843Y100667D01*
X318131Y101595D01*
X317202Y102308D01*
X316121Y102756D01*
X315460Y102843D01*
D02*
G37*
G36*
X314460Y102843D02*
X313800Y102756D01*
X312719Y102308D01*
X311790Y101595D01*
X311078Y100667D01*
X310630Y99585D01*
X310543Y98925D01*
X314460D01*
Y102843D01*
D02*
G37*
G36*
X335145Y102843D02*
Y98925D01*
X339063D01*
X338976Y99585D01*
X338528Y100667D01*
X337816Y101595D01*
X336887Y102308D01*
X335806Y102756D01*
X335145Y102843D01*
D02*
G37*
G36*
X334145D02*
X333485Y102756D01*
X332404Y102308D01*
X331475Y101595D01*
X330763Y100667D01*
X330315Y99585D01*
X330228Y98925D01*
X334145D01*
Y102843D01*
D02*
G37*
G36*
X314460Y97925D02*
X310543D01*
X310630Y97265D01*
X311078Y96184D01*
X311790Y95255D01*
X312719Y94543D01*
X313800Y94095D01*
X314460Y94008D01*
Y97925D01*
D02*
G37*
G36*
X339063Y97925D02*
X335145D01*
Y94008D01*
X335806Y94095D01*
X336887Y94543D01*
X337816Y95255D01*
X338528Y96184D01*
X338976Y97265D01*
X339063Y97925D01*
D02*
G37*
G36*
X334145D02*
X330228D01*
X330315Y97265D01*
X330763Y96184D01*
X331475Y95255D01*
X332404Y94543D01*
X333485Y94095D01*
X334145Y94008D01*
Y97925D01*
D02*
G37*
G36*
X319378Y97925D02*
X315460D01*
Y94008D01*
X316121Y94095D01*
X317202Y94543D01*
X318131Y95255D01*
X318843Y96184D01*
X319291Y97265D01*
X319378Y97925D01*
D02*
G37*
G36*
X171244Y123457D02*
X167323D01*
X163402D01*
X163472Y122925D01*
X163870Y121963D01*
X164504Y121137D01*
X164823Y120892D01*
X164758Y120396D01*
X164634Y120345D01*
X163521Y119491D01*
X162666Y118377D01*
X162129Y117081D01*
X161946Y115689D01*
X162129Y114297D01*
X162666Y113001D01*
X163521Y111887D01*
X164634Y111033D01*
X165931Y110495D01*
X167323Y110312D01*
X168714Y110495D01*
X170011Y111033D01*
X171125Y111887D01*
X171979Y113001D01*
X172516Y114297D01*
X172699Y115689D01*
X172516Y117081D01*
X171979Y118377D01*
X171125Y119491D01*
X170011Y120345D01*
X169888Y120396D01*
X169822Y120892D01*
X170142Y121137D01*
X170775Y121963D01*
X171174Y122925D01*
X171244Y123457D01*
D02*
G37*
G36*
X177665Y102843D02*
Y98925D01*
X181583D01*
X181496Y99585D01*
X181048Y100667D01*
X180335Y101595D01*
X179407Y102308D01*
X178326Y102756D01*
X177665Y102843D01*
D02*
G37*
G36*
X176665D02*
X176005Y102756D01*
X174924Y102308D01*
X173995Y101595D01*
X173283Y100667D01*
X172835Y99585D01*
X172748Y98925D01*
X176665D01*
Y102843D01*
D02*
G37*
G36*
X157980Y102843D02*
Y98925D01*
X161898D01*
X161811Y99585D01*
X161363Y100667D01*
X160650Y101595D01*
X159722Y102308D01*
X158641Y102756D01*
X157980Y102843D01*
D02*
G37*
G36*
X156980Y102843D02*
X156320Y102756D01*
X155239Y102308D01*
X154310Y101595D01*
X153598Y100667D01*
X153150Y99585D01*
X153063Y98925D01*
X156980D01*
Y102843D01*
D02*
G37*
G36*
X161898Y97925D02*
X157980D01*
Y94008D01*
X158641Y94095D01*
X159722Y94543D01*
X160650Y95255D01*
X161363Y96184D01*
X161811Y97265D01*
X161898Y97925D01*
D02*
G37*
G36*
X181583Y97925D02*
X177665D01*
Y94008D01*
X178326Y94095D01*
X179407Y94543D01*
X180335Y95255D01*
X181048Y96184D01*
X181496Y97265D01*
X181583Y97925D01*
D02*
G37*
G36*
X176665D02*
X172748D01*
X172835Y97265D01*
X173283Y96184D01*
X173995Y95255D01*
X174924Y94543D01*
X176005Y94095D01*
X176665Y94008D01*
Y97925D01*
D02*
G37*
G36*
X156980Y97925D02*
X153063D01*
X153150Y97265D01*
X153598Y96184D01*
X154310Y95255D01*
X155239Y94543D01*
X156320Y94095D01*
X156980Y94008D01*
Y97925D01*
D02*
G37*
G36*
X92504Y123457D02*
X88583D01*
X84662D01*
X84732Y122925D01*
X85130Y121963D01*
X85764Y121137D01*
X86083Y120892D01*
X86018Y120396D01*
X85894Y120345D01*
X84781Y119491D01*
X83926Y118377D01*
X83389Y117081D01*
X83206Y115689D01*
X83389Y114297D01*
X83926Y113001D01*
X84781Y111887D01*
X85894Y111033D01*
X87191Y110495D01*
X88583Y110312D01*
X89974Y110495D01*
X91271Y111033D01*
X92385Y111887D01*
X93239Y113001D01*
X93776Y114297D01*
X93959Y115689D01*
X93776Y117081D01*
X93239Y118377D01*
X92385Y119491D01*
X91271Y120345D01*
X91147Y120396D01*
X91082Y120892D01*
X91402Y121137D01*
X92035Y121963D01*
X92434Y122925D01*
X92504Y123457D01*
D02*
G37*
G36*
X98925Y102843D02*
Y98925D01*
X102843D01*
X102756Y99585D01*
X102308Y100667D01*
X101595Y101595D01*
X100667Y102308D01*
X99585Y102756D01*
X98925Y102843D01*
D02*
G37*
G36*
X97925D02*
X97265Y102756D01*
X96184Y102308D01*
X95255Y101595D01*
X94543Y100667D01*
X94095Y99585D01*
X94008Y98925D01*
X97925D01*
Y102843D01*
D02*
G37*
G36*
X79240Y102843D02*
Y98925D01*
X83157D01*
X83071Y99585D01*
X82623Y100667D01*
X81910Y101595D01*
X80982Y102308D01*
X79900Y102756D01*
X79240Y102843D01*
D02*
G37*
G36*
X78240Y102843D02*
X77580Y102756D01*
X76499Y102308D01*
X75570Y101595D01*
X74858Y100667D01*
X74410Y99585D01*
X74323Y98925D01*
X78240D01*
Y102843D01*
D02*
G37*
G36*
X83158Y97925D02*
X79240D01*
Y94008D01*
X79900Y94095D01*
X80982Y94543D01*
X81910Y95255D01*
X82623Y96184D01*
X83071Y97265D01*
X83158Y97925D01*
D02*
G37*
G36*
X102843Y97925D02*
X98925D01*
Y94008D01*
X99585Y94095D01*
X100667Y94543D01*
X101595Y95255D01*
X102308Y96184D01*
X102756Y97265D01*
X102843Y97925D01*
D02*
G37*
G36*
X97925D02*
X94008D01*
X94095Y97265D01*
X94543Y96184D01*
X95255Y95255D01*
X96184Y94543D01*
X97265Y94095D01*
X97925Y94008D01*
Y97925D01*
D02*
G37*
G36*
X78240Y97925D02*
X74323D01*
X74410Y97265D01*
X74858Y96184D01*
X75570Y95255D01*
X76499Y94543D01*
X77580Y94095D01*
X78240Y94008D01*
Y97925D01*
D02*
G37*
G36*
X368094Y123457D02*
X364173D01*
X360252D01*
X360322Y122925D01*
X360720Y121963D01*
X361354Y121137D01*
X361674Y120892D01*
X361608Y120396D01*
X361485Y120345D01*
X360371Y119491D01*
X359517Y118377D01*
X358980Y117081D01*
X358796Y115689D01*
X358980Y114297D01*
X359517Y113001D01*
X360371Y111887D01*
X361485Y111033D01*
X362782Y110495D01*
X364173Y110312D01*
X365565Y110495D01*
X366862Y111033D01*
X367975Y111887D01*
X368829Y113001D01*
X369367Y114297D01*
X369550Y115689D01*
X369367Y117081D01*
X368829Y118377D01*
X367975Y119491D01*
X366862Y120345D01*
X366738Y120396D01*
X366673Y120892D01*
X366992Y121137D01*
X367626Y121963D01*
X368024Y122925D01*
X368094Y123457D01*
D02*
G37*
G36*
X354831Y102843D02*
Y98925D01*
X358748D01*
X358661Y99585D01*
X358213Y100667D01*
X357501Y101595D01*
X356572Y102308D01*
X355491Y102756D01*
X354831Y102843D01*
D02*
G37*
G36*
X353831Y102843D02*
X353170Y102756D01*
X352089Y102308D01*
X351160Y101595D01*
X350448Y100667D01*
X350000Y99585D01*
X349913Y98925D01*
X353831D01*
Y102843D01*
D02*
G37*
G36*
X374516Y102843D02*
Y98925D01*
X378433D01*
X378346Y99585D01*
X377898Y100667D01*
X377186Y101595D01*
X376257Y102308D01*
X375176Y102756D01*
X374516Y102843D01*
D02*
G37*
G36*
X373516Y102843D02*
X372855Y102756D01*
X371774Y102308D01*
X370846Y101595D01*
X370133Y100667D01*
X369685Y99585D01*
X369598Y98925D01*
X373516D01*
Y102843D01*
D02*
G37*
G36*
X378433Y97925D02*
X374516D01*
Y94008D01*
X375176Y94095D01*
X376257Y94543D01*
X377186Y95255D01*
X377898Y96184D01*
X378346Y97265D01*
X378433Y97925D01*
D02*
G37*
G36*
X358748Y97925D02*
X354831D01*
Y94008D01*
X355491Y94095D01*
X356572Y94543D01*
X357501Y95255D01*
X358213Y96184D01*
X358661Y97265D01*
X358748Y97925D01*
D02*
G37*
G36*
X353831D02*
X349913D01*
X350000Y97265D01*
X350448Y96184D01*
X351160Y95255D01*
X352089Y94543D01*
X353170Y94095D01*
X353831Y94008D01*
Y97925D01*
D02*
G37*
G36*
X373516Y97925D02*
X369598D01*
X369685Y97265D01*
X370133Y96184D01*
X370846Y95255D01*
X371774Y94543D01*
X372855Y94095D01*
X373516Y94008D01*
Y97925D01*
D02*
G37*
G36*
X210614Y123457D02*
X206693D01*
X202772D01*
X202842Y122925D01*
X203240Y121963D01*
X203874Y121137D01*
X204193Y120892D01*
X204128Y120396D01*
X204005Y120345D01*
X202891Y119491D01*
X202036Y118377D01*
X201499Y117081D01*
X201316Y115689D01*
X201499Y114297D01*
X202036Y113001D01*
X202891Y111887D01*
X204005Y111033D01*
X205301Y110495D01*
X206693Y110312D01*
X208085Y110495D01*
X209381Y111033D01*
X210495Y111887D01*
X211349Y113001D01*
X211886Y114297D01*
X212070Y115689D01*
X211886Y117081D01*
X211349Y118377D01*
X210495Y119491D01*
X209381Y120345D01*
X209258Y120396D01*
X209192Y120892D01*
X209512Y121137D01*
X210146Y121963D01*
X210544Y122925D01*
X210614Y123457D01*
D02*
G37*
G36*
X197350Y102843D02*
Y98925D01*
X201268D01*
X201181Y99585D01*
X200733Y100667D01*
X200020Y101595D01*
X199092Y102308D01*
X198011Y102756D01*
X197350Y102843D01*
D02*
G37*
G36*
X196350Y102843D02*
X195690Y102756D01*
X194609Y102308D01*
X193680Y101595D01*
X192968Y100667D01*
X192520Y99585D01*
X192433Y98925D01*
X196350D01*
Y102843D01*
D02*
G37*
G36*
X217035Y102843D02*
Y98925D01*
X220953D01*
X220866Y99585D01*
X220418Y100667D01*
X219706Y101595D01*
X218777Y102308D01*
X217696Y102756D01*
X217035Y102843D01*
D02*
G37*
G36*
X216035Y102843D02*
X215375Y102756D01*
X214294Y102308D01*
X213365Y101595D01*
X212653Y100667D01*
X212205Y99585D01*
X212118Y98925D01*
X216035D01*
Y102843D01*
D02*
G37*
G36*
X220953Y97925D02*
X217035D01*
Y94008D01*
X217696Y94095D01*
X218777Y94543D01*
X219706Y95255D01*
X220418Y96184D01*
X220866Y97265D01*
X220953Y97925D01*
D02*
G37*
G36*
X201268Y97925D02*
X197350D01*
Y94008D01*
X198011Y94095D01*
X199092Y94543D01*
X200020Y95255D01*
X200733Y96184D01*
X201181Y97265D01*
X201268Y97925D01*
D02*
G37*
G36*
X196350D02*
X192433D01*
X192520Y97265D01*
X192968Y96184D01*
X193680Y95255D01*
X194609Y94543D01*
X195690Y94095D01*
X196350Y94008D01*
Y97925D01*
D02*
G37*
G36*
X216035Y97925D02*
X212118D01*
X212205Y97265D01*
X212653Y96184D01*
X213365Y95255D01*
X214294Y94543D01*
X215375Y94095D01*
X216035Y94008D01*
Y97925D01*
D02*
G37*
G36*
X249984Y123457D02*
X246063D01*
X242142D01*
X242212Y122925D01*
X242610Y121963D01*
X243244Y121137D01*
X243564Y120892D01*
X243498Y120396D01*
X243375Y120345D01*
X242261Y119491D01*
X241407Y118377D01*
X240869Y117081D01*
X240686Y115689D01*
X240869Y114297D01*
X241407Y113001D01*
X242261Y111887D01*
X243375Y111033D01*
X244671Y110495D01*
X246063Y110312D01*
X247455Y110495D01*
X248751Y111033D01*
X249865Y111887D01*
X250719Y113001D01*
X251256Y114297D01*
X251440Y115689D01*
X251256Y117081D01*
X250719Y118377D01*
X249865Y119491D01*
X248751Y120345D01*
X248628Y120396D01*
X248562Y120892D01*
X248882Y121137D01*
X249516Y121963D01*
X249914Y122925D01*
X249984Y123457D01*
D02*
G37*
G36*
X256405Y102843D02*
Y98925D01*
X260323D01*
X260236Y99585D01*
X259788Y100667D01*
X259075Y101595D01*
X258147Y102308D01*
X257066Y102756D01*
X256405Y102843D01*
D02*
G37*
G36*
X255405D02*
X254745Y102756D01*
X253664Y102308D01*
X252735Y101595D01*
X252023Y100667D01*
X251575Y99585D01*
X251488Y98925D01*
X255405D01*
Y102843D01*
D02*
G37*
G36*
X236720Y102843D02*
Y98925D01*
X240638D01*
X240551Y99585D01*
X240103Y100667D01*
X239390Y101595D01*
X238462Y102308D01*
X237381Y102756D01*
X236720Y102843D01*
D02*
G37*
G36*
X235720Y102843D02*
X235060Y102756D01*
X233979Y102308D01*
X233050Y101595D01*
X232338Y100667D01*
X231890Y99585D01*
X231803Y98925D01*
X235720D01*
Y102843D01*
D02*
G37*
G36*
X240638Y97925D02*
X236720D01*
Y94008D01*
X237381Y94095D01*
X238462Y94543D01*
X239390Y95255D01*
X240103Y96184D01*
X240551Y97265D01*
X240638Y97925D01*
D02*
G37*
G36*
X260323Y97925D02*
X256405D01*
Y94008D01*
X257066Y94095D01*
X258147Y94543D01*
X259075Y95255D01*
X259788Y96184D01*
X260236Y97265D01*
X260323Y97925D01*
D02*
G37*
G36*
X255405D02*
X251488D01*
X251575Y97265D01*
X252023Y96184D01*
X252735Y95255D01*
X253664Y94543D01*
X254745Y94095D01*
X255405Y94008D01*
Y97925D01*
D02*
G37*
G36*
X235720Y97925D02*
X231803D01*
X231890Y97265D01*
X232338Y96184D01*
X233050Y95255D01*
X233979Y94543D01*
X235060Y94095D01*
X235720Y94008D01*
Y97925D01*
D02*
G37*
G36*
X37933Y77636D02*
Y59587D01*
X55983D01*
X55970Y59790D01*
X55441Y62448D01*
X54570Y65013D01*
X53372Y67443D01*
X51866Y69696D01*
X50080Y71733D01*
X48043Y73520D01*
X45790Y75025D01*
X43360Y76223D01*
X40794Y77094D01*
X38137Y77623D01*
X37933Y77636D01*
D02*
G37*
G36*
X32933D02*
X32729Y77623D01*
X30072Y77094D01*
X27506Y76223D01*
X25076Y75025D01*
X22823Y73520D01*
X20786Y71733D01*
X19000Y69696D01*
X17494Y67443D01*
X16296Y65013D01*
X15425Y62448D01*
X14897Y59790D01*
X14883Y59587D01*
X32933D01*
Y77636D01*
D02*
G37*
G36*
X315460Y43788D02*
Y39870D01*
X319378D01*
X319291Y40530D01*
X318843Y41612D01*
X318131Y42540D01*
X317202Y43253D01*
X316121Y43701D01*
X315460Y43788D01*
D02*
G37*
G36*
X314460Y43788D02*
X313800Y43701D01*
X312719Y43253D01*
X311790Y42540D01*
X311078Y41612D01*
X310630Y40530D01*
X310543Y39870D01*
X314460D01*
Y43788D01*
D02*
G37*
G36*
X413886Y43788D02*
Y39870D01*
X417803D01*
X417716Y40530D01*
X417268Y41612D01*
X416556Y42540D01*
X415627Y43253D01*
X414546Y43701D01*
X413886Y43788D01*
D02*
G37*
G36*
X335145D02*
Y39870D01*
X339063D01*
X338976Y40530D01*
X338528Y41612D01*
X337816Y42540D01*
X336887Y43253D01*
X335806Y43701D01*
X335145Y43788D01*
D02*
G37*
G36*
X256405D02*
Y39870D01*
X260323D01*
X260236Y40530D01*
X259788Y41612D01*
X259075Y42540D01*
X258147Y43253D01*
X257066Y43701D01*
X256405Y43788D01*
D02*
G37*
G36*
X177665D02*
Y39870D01*
X181583D01*
X181496Y40530D01*
X181048Y41612D01*
X180335Y42540D01*
X179407Y43253D01*
X178326Y43701D01*
X177665Y43788D01*
D02*
G37*
G36*
X98925D02*
Y39870D01*
X102843D01*
X102756Y40530D01*
X102308Y41612D01*
X101595Y42540D01*
X100667Y43253D01*
X99585Y43701D01*
X98925Y43788D01*
D02*
G37*
G36*
X176665Y43788D02*
X176005Y43701D01*
X174924Y43253D01*
X173995Y42540D01*
X173283Y41612D01*
X172835Y40530D01*
X172748Y39870D01*
X176665D01*
Y43788D01*
D02*
G37*
G36*
X97925D02*
X97265Y43701D01*
X96184Y43253D01*
X95255Y42540D01*
X94543Y41612D01*
X94095Y40530D01*
X94008Y39870D01*
X97925D01*
Y43788D01*
D02*
G37*
G36*
X412886D02*
X412225Y43701D01*
X411144Y43253D01*
X410216Y42540D01*
X409503Y41612D01*
X409055Y40530D01*
X408968Y39870D01*
X412886D01*
Y43788D01*
D02*
G37*
G36*
X334145D02*
X333485Y43701D01*
X332404Y43253D01*
X331475Y42540D01*
X330763Y41612D01*
X330315Y40530D01*
X330228Y39870D01*
X334145D01*
Y43788D01*
D02*
G37*
G36*
X255405D02*
X254745Y43701D01*
X253664Y43253D01*
X252735Y42540D01*
X252023Y41612D01*
X251575Y40530D01*
X251488Y39870D01*
X255405D01*
Y43788D01*
D02*
G37*
G36*
X433571Y43788D02*
Y39870D01*
X437488D01*
X437401Y40530D01*
X436953Y41612D01*
X436241Y42540D01*
X435312Y43253D01*
X434231Y43701D01*
X433571Y43788D01*
D02*
G37*
G36*
X354831D02*
Y39870D01*
X358748D01*
X358661Y40530D01*
X358213Y41612D01*
X357501Y42540D01*
X356572Y43253D01*
X355491Y43701D01*
X354831Y43788D01*
D02*
G37*
G36*
X276090D02*
Y39870D01*
X280008D01*
X279921Y40530D01*
X279473Y41612D01*
X278761Y42540D01*
X277832Y43253D01*
X276751Y43701D01*
X276090Y43788D01*
D02*
G37*
G36*
X197350D02*
Y39870D01*
X201268D01*
X201181Y40530D01*
X200733Y41612D01*
X200020Y42540D01*
X199092Y43253D01*
X198011Y43701D01*
X197350Y43788D01*
D02*
G37*
G36*
X157980D02*
Y39870D01*
X161898D01*
X161811Y40530D01*
X161363Y41612D01*
X160650Y42540D01*
X159722Y43253D01*
X158641Y43701D01*
X157980Y43788D01*
D02*
G37*
G36*
X118610D02*
Y39870D01*
X122528D01*
X122441Y40530D01*
X121993Y41612D01*
X121280Y42540D01*
X120352Y43253D01*
X119271Y43701D01*
X118610Y43788D01*
D02*
G37*
G36*
X79240D02*
Y39870D01*
X83158D01*
X83071Y40530D01*
X82623Y41612D01*
X81910Y42540D01*
X80982Y43253D01*
X79900Y43701D01*
X79240Y43788D01*
D02*
G37*
G36*
X196350D02*
X195690Y43701D01*
X194609Y43253D01*
X193680Y42540D01*
X192968Y41612D01*
X192520Y40530D01*
X192433Y39870D01*
X196350D01*
Y43788D01*
D02*
G37*
G36*
X156980D02*
X156320Y43701D01*
X155239Y43253D01*
X154310Y42540D01*
X153598Y41612D01*
X153150Y40530D01*
X153063Y39870D01*
X156980D01*
Y43788D01*
D02*
G37*
G36*
X117610D02*
X116950Y43701D01*
X115869Y43253D01*
X114940Y42540D01*
X114228Y41612D01*
X113780Y40530D01*
X113693Y39870D01*
X117610D01*
Y43788D01*
D02*
G37*
G36*
X78240D02*
X77580Y43701D01*
X76499Y43253D01*
X75570Y42540D01*
X74858Y41612D01*
X74410Y40530D01*
X74323Y39870D01*
X78240D01*
Y43788D01*
D02*
G37*
G36*
X432571D02*
X431910Y43701D01*
X430829Y43253D01*
X429901Y42540D01*
X429188Y41612D01*
X428740Y40530D01*
X428653Y39870D01*
X432571D01*
Y43788D01*
D02*
G37*
G36*
X353831D02*
X353170Y43701D01*
X352089Y43253D01*
X351160Y42540D01*
X350448Y41612D01*
X350000Y40530D01*
X349913Y39870D01*
X353831D01*
Y43788D01*
D02*
G37*
G36*
X275090D02*
X274430Y43701D01*
X273349Y43253D01*
X272420Y42540D01*
X271708Y41612D01*
X271260Y40530D01*
X271173Y39870D01*
X275090D01*
Y43788D01*
D02*
G37*
G36*
X453256Y43788D02*
Y39870D01*
X457173D01*
X457086Y40530D01*
X456638Y41612D01*
X455926Y42540D01*
X454997Y43253D01*
X453916Y43701D01*
X453256Y43788D01*
D02*
G37*
G36*
X374516D02*
Y39870D01*
X378433D01*
X378346Y40530D01*
X377898Y41612D01*
X377186Y42540D01*
X376257Y43253D01*
X375176Y43701D01*
X374516Y43788D01*
D02*
G37*
G36*
X295776D02*
Y39870D01*
X299693D01*
X299606Y40530D01*
X299158Y41612D01*
X298446Y42540D01*
X297517Y43253D01*
X296436Y43701D01*
X295776Y43788D01*
D02*
G37*
G36*
X217035D02*
Y39870D01*
X220953D01*
X220866Y40530D01*
X220418Y41612D01*
X219706Y42540D01*
X218777Y43253D01*
X217696Y43701D01*
X217035Y43788D01*
D02*
G37*
G36*
X138295D02*
Y39870D01*
X142213D01*
X142126Y40530D01*
X141678Y41612D01*
X140965Y42540D01*
X140037Y43253D01*
X138956Y43701D01*
X138295Y43788D01*
D02*
G37*
G36*
X216035Y43788D02*
X215375Y43701D01*
X214294Y43253D01*
X213365Y42540D01*
X212653Y41612D01*
X212205Y40530D01*
X212118Y39870D01*
X216035D01*
Y43788D01*
D02*
G37*
G36*
X137295D02*
X136635Y43701D01*
X135554Y43253D01*
X134625Y42540D01*
X133913Y41612D01*
X133465Y40530D01*
X133378Y39870D01*
X137295D01*
Y43788D01*
D02*
G37*
G36*
X452256D02*
X451595Y43701D01*
X450514Y43253D01*
X449586Y42540D01*
X448873Y41612D01*
X448425Y40530D01*
X448338Y39870D01*
X452256D01*
Y43788D01*
D02*
G37*
G36*
X373516D02*
X372855Y43701D01*
X371774Y43253D01*
X370846Y42540D01*
X370133Y41612D01*
X369685Y40530D01*
X369598Y39870D01*
X373516D01*
Y43788D01*
D02*
G37*
G36*
X294776D02*
X294115Y43701D01*
X293034Y43253D01*
X292105Y42540D01*
X291393Y41612D01*
X290945Y40530D01*
X290858Y39870D01*
X294776D01*
Y43788D01*
D02*
G37*
G36*
X394201Y43788D02*
Y39870D01*
X398118D01*
X398031Y40530D01*
X397583Y41612D01*
X396871Y42540D01*
X395942Y43253D01*
X394861Y43701D01*
X394201Y43788D01*
D02*
G37*
G36*
X236720D02*
Y39870D01*
X240638D01*
X240551Y40530D01*
X240103Y41612D01*
X239390Y42540D01*
X238462Y43253D01*
X237381Y43701D01*
X236720Y43788D01*
D02*
G37*
G36*
X393201Y43788D02*
X392540Y43701D01*
X391459Y43253D01*
X390530Y42540D01*
X389818Y41612D01*
X389370Y40530D01*
X389283Y39870D01*
X393201D01*
Y43788D01*
D02*
G37*
G36*
X235720D02*
X235060Y43701D01*
X233979Y43253D01*
X233050Y42540D01*
X232338Y41612D01*
X231890Y40530D01*
X231803Y39870D01*
X235720D01*
Y43788D01*
D02*
G37*
G36*
X55983Y54587D02*
X37933D01*
Y36537D01*
X38137Y36550D01*
X40794Y37079D01*
X43360Y37950D01*
X45790Y39148D01*
X48043Y40653D01*
X50080Y42440D01*
X51866Y44477D01*
X53372Y46730D01*
X54570Y49160D01*
X55441Y51726D01*
X55970Y54383D01*
X55983Y54587D01*
D02*
G37*
G36*
X32933D02*
X14883D01*
X14897Y54383D01*
X15425Y51726D01*
X16296Y49160D01*
X17494Y46730D01*
X19000Y44477D01*
X20786Y42440D01*
X22823Y40653D01*
X25076Y39148D01*
X27506Y37950D01*
X30072Y37079D01*
X32729Y36550D01*
X32933Y36537D01*
Y54587D01*
D02*
G37*
G36*
X398118Y38870D02*
X394201D01*
Y34953D01*
X394861Y35040D01*
X395942Y35487D01*
X396871Y36200D01*
X397583Y37128D01*
X398031Y38210D01*
X398118Y38870D01*
D02*
G37*
G36*
X240638D02*
X236720D01*
Y34953D01*
X237381Y35040D01*
X238462Y35487D01*
X239390Y36200D01*
X240103Y37128D01*
X240551Y38210D01*
X240638Y38870D01*
D02*
G37*
G36*
X314460Y38870D02*
X310543D01*
X310630Y38210D01*
X311078Y37128D01*
X311790Y36200D01*
X312719Y35487D01*
X313800Y35040D01*
X314460Y34953D01*
Y38870D01*
D02*
G37*
G36*
X457173Y38870D02*
X453256D01*
Y34953D01*
X453916Y35040D01*
X454997Y35487D01*
X455926Y36200D01*
X456638Y37128D01*
X457086Y38210D01*
X457173Y38870D01*
D02*
G37*
G36*
X378433D02*
X374516D01*
Y34953D01*
X375176Y35040D01*
X376257Y35487D01*
X377186Y36200D01*
X377898Y37128D01*
X378346Y38210D01*
X378433Y38870D01*
D02*
G37*
G36*
X299693D02*
X295776D01*
Y34953D01*
X296436Y35040D01*
X297517Y35487D01*
X298446Y36200D01*
X299158Y37128D01*
X299606Y38210D01*
X299693Y38870D01*
D02*
G37*
G36*
X220953D02*
X217035D01*
Y34953D01*
X217696Y35040D01*
X218777Y35487D01*
X219706Y36200D01*
X220418Y37128D01*
X220866Y38210D01*
X220953Y38870D01*
D02*
G37*
G36*
X142213D02*
X138295D01*
Y34953D01*
X138956Y35040D01*
X140037Y35487D01*
X140965Y36200D01*
X141678Y37128D01*
X142126Y38210D01*
X142213Y38870D01*
D02*
G37*
G36*
X412886Y38870D02*
X408968D01*
X409055Y38210D01*
X409503Y37128D01*
X410216Y36200D01*
X411144Y35487D01*
X412225Y35040D01*
X412886Y34953D01*
Y38870D01*
D02*
G37*
G36*
X334145D02*
X330228D01*
X330315Y38210D01*
X330763Y37128D01*
X331475Y36200D01*
X332404Y35487D01*
X333485Y35040D01*
X334145Y34953D01*
Y38870D01*
D02*
G37*
G36*
X255405D02*
X251488D01*
X251575Y38210D01*
X252023Y37128D01*
X252735Y36200D01*
X253664Y35487D01*
X254745Y35040D01*
X255405Y34953D01*
Y38870D01*
D02*
G37*
G36*
X176665D02*
X172748D01*
X172835Y38210D01*
X173283Y37128D01*
X173995Y36200D01*
X174924Y35487D01*
X176005Y35040D01*
X176665Y34953D01*
Y38870D01*
D02*
G37*
G36*
X97925D02*
X94008D01*
X94095Y38210D01*
X94543Y37128D01*
X95255Y36200D01*
X96184Y35487D01*
X97265Y35040D01*
X97925Y34953D01*
Y38870D01*
D02*
G37*
G36*
X437488Y38870D02*
X433571D01*
Y34953D01*
X434231Y35040D01*
X435312Y35487D01*
X436241Y36200D01*
X436953Y37128D01*
X437401Y38210D01*
X437488Y38870D01*
D02*
G37*
G36*
X358748D02*
X354831D01*
Y34953D01*
X355491Y35040D01*
X356572Y35487D01*
X357501Y36200D01*
X358213Y37128D01*
X358661Y38210D01*
X358748Y38870D01*
D02*
G37*
G36*
X280008D02*
X276090D01*
Y34953D01*
X276751Y35040D01*
X277832Y35487D01*
X278761Y36200D01*
X279473Y37128D01*
X279921Y38210D01*
X280008Y38870D01*
D02*
G37*
G36*
X201268D02*
X197350D01*
Y34953D01*
X198011Y35040D01*
X199092Y35487D01*
X200020Y36200D01*
X200733Y37128D01*
X201181Y38210D01*
X201268Y38870D01*
D02*
G37*
G36*
X161898D02*
X157980D01*
Y34953D01*
X158641Y35040D01*
X159722Y35487D01*
X160650Y36200D01*
X161363Y37128D01*
X161811Y38210D01*
X161898Y38870D01*
D02*
G37*
G36*
X122528D02*
X118610D01*
Y34953D01*
X119271Y35040D01*
X120352Y35487D01*
X121280Y36200D01*
X121993Y37128D01*
X122441Y38210D01*
X122528Y38870D01*
D02*
G37*
G36*
X83158D02*
X79240D01*
Y34953D01*
X79900Y35040D01*
X80982Y35487D01*
X81910Y36200D01*
X82623Y37128D01*
X83071Y38210D01*
X83158Y38870D01*
D02*
G37*
G36*
X432571D02*
X428653D01*
X428740Y38210D01*
X429188Y37128D01*
X429901Y36200D01*
X430829Y35487D01*
X431910Y35040D01*
X432571Y34953D01*
Y38870D01*
D02*
G37*
G36*
X353831D02*
X349913D01*
X350000Y38210D01*
X350448Y37128D01*
X351160Y36200D01*
X352089Y35487D01*
X353170Y35040D01*
X353831Y34953D01*
Y38870D01*
D02*
G37*
G36*
X275090D02*
X271173D01*
X271260Y38210D01*
X271708Y37128D01*
X272420Y36200D01*
X273349Y35487D01*
X274430Y35040D01*
X275090Y34953D01*
Y38870D01*
D02*
G37*
G36*
X196350D02*
X192433D01*
X192520Y38210D01*
X192968Y37128D01*
X193680Y36200D01*
X194609Y35487D01*
X195690Y35040D01*
X196350Y34953D01*
Y38870D01*
D02*
G37*
G36*
X156980D02*
X153063D01*
X153150Y38210D01*
X153598Y37128D01*
X154310Y36200D01*
X155239Y35487D01*
X156320Y35040D01*
X156980Y34953D01*
Y38870D01*
D02*
G37*
G36*
X117610D02*
X113693D01*
X113780Y38210D01*
X114228Y37128D01*
X114940Y36200D01*
X115869Y35487D01*
X116950Y35040D01*
X117610Y34953D01*
Y38870D01*
D02*
G37*
G36*
X78240D02*
X74323D01*
X74410Y38210D01*
X74858Y37128D01*
X75570Y36200D01*
X76499Y35487D01*
X77580Y35040D01*
X78240Y34953D01*
Y38870D01*
D02*
G37*
G36*
X417803Y38870D02*
X413886D01*
Y34953D01*
X414546Y35040D01*
X415627Y35487D01*
X416556Y36200D01*
X417268Y37128D01*
X417716Y38210D01*
X417803Y38870D01*
D02*
G37*
G36*
X339063D02*
X335145D01*
Y34953D01*
X335806Y35040D01*
X336887Y35487D01*
X337816Y36200D01*
X338528Y37128D01*
X338976Y38210D01*
X339063Y38870D01*
D02*
G37*
G36*
X260323D02*
X256405D01*
Y34953D01*
X257066Y35040D01*
X258147Y35487D01*
X259075Y36200D01*
X259788Y37128D01*
X260236Y38210D01*
X260323Y38870D01*
D02*
G37*
G36*
X181583D02*
X177665D01*
Y34953D01*
X178326Y35040D01*
X179407Y35487D01*
X180335Y36200D01*
X181048Y37128D01*
X181496Y38210D01*
X181583Y38870D01*
D02*
G37*
G36*
X102843D02*
X98925D01*
Y34953D01*
X99585Y35040D01*
X100667Y35487D01*
X101595Y36200D01*
X102308Y37128D01*
X102756Y38210D01*
X102843Y38870D01*
D02*
G37*
G36*
X373516Y38870D02*
X369598D01*
X369685Y38210D01*
X370133Y37128D01*
X370846Y36200D01*
X371774Y35487D01*
X372855Y35040D01*
X373516Y34953D01*
Y38870D01*
D02*
G37*
G36*
X294776D02*
X290858D01*
X290945Y38210D01*
X291393Y37128D01*
X292105Y36200D01*
X293034Y35487D01*
X294115Y35040D01*
X294776Y34953D01*
Y38870D01*
D02*
G37*
G36*
X216035D02*
X212118D01*
X212205Y38210D01*
X212653Y37128D01*
X213365Y36200D01*
X214294Y35487D01*
X215375Y35040D01*
X216035Y34953D01*
Y38870D01*
D02*
G37*
G36*
X137295D02*
X133378D01*
X133465Y38210D01*
X133913Y37128D01*
X134625Y36200D01*
X135554Y35487D01*
X136635Y35040D01*
X137295Y34953D01*
Y38870D01*
D02*
G37*
G36*
X452256D02*
X448338D01*
X448425Y38210D01*
X448873Y37128D01*
X449586Y36200D01*
X450514Y35487D01*
X451595Y35040D01*
X452256Y34953D01*
Y38870D01*
D02*
G37*
G36*
X319378Y38870D02*
X315460D01*
Y34953D01*
X316121Y35040D01*
X317202Y35487D01*
X318131Y36200D01*
X318843Y37128D01*
X319291Y38210D01*
X319378Y38870D01*
D02*
G37*
G36*
X393201Y38870D02*
X389283D01*
X389370Y38210D01*
X389818Y37128D01*
X390530Y36200D01*
X391459Y35487D01*
X392540Y35040D01*
X393201Y34953D01*
Y38870D01*
D02*
G37*
G36*
X235720D02*
X231803D01*
X231890Y38210D01*
X232338Y37128D01*
X233050Y36200D01*
X233979Y35487D01*
X235060Y35040D01*
X235720Y34953D01*
Y38870D01*
D02*
G37*
G36*
X452756Y30940D02*
X450995Y30802D01*
X449278Y30389D01*
X447646Y29713D01*
X446140Y28791D01*
X444797Y27644D01*
X443650Y26301D01*
X442728Y24795D01*
X442052Y23163D01*
X441639Y21446D01*
X441501Y19685D01*
X441639Y17924D01*
X442052Y16207D01*
X442728Y14575D01*
X443650Y13069D01*
X444797Y11726D01*
X446140Y10579D01*
X447646Y9657D01*
X449278Y8981D01*
X450995Y8568D01*
X452756Y8430D01*
X454517Y8568D01*
X456234Y8981D01*
X457866Y9657D01*
X459372Y10579D01*
X460714Y11726D01*
X461862Y13069D01*
X462784Y14575D01*
X463460Y16207D01*
X463872Y17924D01*
X464011Y19685D01*
X463872Y21446D01*
X463460Y23163D01*
X462784Y24795D01*
X461862Y26301D01*
X460714Y27644D01*
X459372Y28791D01*
X457866Y29713D01*
X456234Y30389D01*
X454517Y30802D01*
X452756Y30940D01*
D02*
G37*
G36*
X19685D02*
X17924Y30802D01*
X16207Y30389D01*
X14575Y29713D01*
X13069Y28791D01*
X11726Y27644D01*
X10579Y26301D01*
X9657Y24795D01*
X8981Y23163D01*
X8568Y21446D01*
X8430Y19685D01*
X8568Y17924D01*
X8981Y16207D01*
X9657Y14575D01*
X10579Y13069D01*
X11726Y11726D01*
X13069Y10579D01*
X14575Y9657D01*
X16207Y8981D01*
X17924Y8568D01*
X19685Y8430D01*
X21446Y8568D01*
X23163Y8981D01*
X24795Y9657D01*
X26301Y10579D01*
X27644Y11726D01*
X28791Y13069D01*
X29713Y14575D01*
X30389Y16207D01*
X30802Y17924D01*
X30940Y19685D01*
X30802Y21446D01*
X30389Y23163D01*
X29713Y24795D01*
X28791Y26301D01*
X27644Y27644D01*
X26301Y28791D01*
X24795Y29713D01*
X23163Y30389D01*
X21446Y30802D01*
X19685Y30940D01*
D02*
G37*
%LPD*%
D14*
X452756Y98425D02*
D03*
Y39370D02*
D03*
X433071Y98425D02*
D03*
Y39370D02*
D03*
X413386Y98425D02*
D03*
Y39370D02*
D03*
X393701Y98425D02*
D03*
Y39370D02*
D03*
X374016Y98425D02*
D03*
Y39370D02*
D03*
X354331Y98425D02*
D03*
Y39370D02*
D03*
X334646Y98425D02*
D03*
Y39370D02*
D03*
X314961Y98425D02*
D03*
Y39370D02*
D03*
X295275Y98425D02*
D03*
Y39370D02*
D03*
X275590Y98425D02*
D03*
Y39370D02*
D03*
X255905Y98425D02*
D03*
Y39370D02*
D03*
X236220Y98425D02*
D03*
Y39370D02*
D03*
X216535Y98425D02*
D03*
Y39370D02*
D03*
X196850Y98425D02*
D03*
Y39370D02*
D03*
X177165Y98425D02*
D03*
Y39370D02*
D03*
X157480Y98425D02*
D03*
Y39370D02*
D03*
X137795Y98425D02*
D03*
Y39370D02*
D03*
X118110Y98425D02*
D03*
Y39370D02*
D03*
X98425Y98425D02*
D03*
Y39370D02*
D03*
X78740Y98425D02*
D03*
Y39370D02*
D03*
D15*
X35433Y132087D02*
D03*
Y57087D02*
D03*
D16*
X442913Y115689D02*
D03*
Y147972D02*
D03*
X403543Y115689D02*
D03*
Y147972D02*
D03*
X364173Y115689D02*
D03*
Y147972D02*
D03*
X324803Y115689D02*
D03*
Y147972D02*
D03*
X285433Y115689D02*
D03*
Y147972D02*
D03*
X246063Y115689D02*
D03*
Y147972D02*
D03*
X206693Y115689D02*
D03*
Y147972D02*
D03*
X167323Y115689D02*
D03*
Y147972D02*
D03*
X127953Y115689D02*
D03*
Y147972D02*
D03*
X88583Y115689D02*
D03*
Y147972D02*
D03*
D17*
X442913Y139705D02*
D03*
Y123957D02*
D03*
Y131831D02*
D03*
X403543Y139705D02*
D03*
Y123957D02*
D03*
Y131831D02*
D03*
X364173Y139705D02*
D03*
Y123957D02*
D03*
Y131831D02*
D03*
X324803Y139705D02*
D03*
Y123957D02*
D03*
Y131831D02*
D03*
X285433Y139705D02*
D03*
Y123957D02*
D03*
Y131831D02*
D03*
X246063Y139705D02*
D03*
Y123957D02*
D03*
Y131831D02*
D03*
X206693Y139705D02*
D03*
Y123957D02*
D03*
Y131831D02*
D03*
X167323Y139705D02*
D03*
Y123957D02*
D03*
Y131831D02*
D03*
X127953Y139705D02*
D03*
Y123957D02*
D03*
Y131831D02*
D03*
X88583Y139705D02*
D03*
Y123957D02*
D03*
Y131831D02*
D03*
M02*
