G04*
G04 #@! TF.GenerationSoftware,Altium Limited,Altium Designer,18.1.9 (240)*
G04*
G04 Layer_Color=16711935*
%FSLAX25Y25*%
%MOIN*%
G70*
G01*
G75*
%ADD55C,0.24816*%
%ADD56C,0.00800*%
%ADD57R,0.06312X0.06312*%
%ADD58C,0.06312*%
%ADD59C,0.06902*%
%ADD73C,0.28359*%
D55*
X295276Y196850D02*
D03*
X19685D02*
D03*
Y19685D02*
D03*
X295276D02*
D03*
D56*
Y205709D02*
D03*
X287598Y201279D02*
D03*
Y192421D02*
D03*
X295276Y187992D02*
D03*
X302953Y192421D02*
D03*
Y201279D02*
D03*
X19685Y205709D02*
D03*
X12008Y201279D02*
D03*
Y192421D02*
D03*
X19685Y187992D02*
D03*
X27362Y192421D02*
D03*
Y201279D02*
D03*
X19685Y28543D02*
D03*
X12008Y24114D02*
D03*
Y15256D02*
D03*
X19685Y10827D02*
D03*
X27362Y15256D02*
D03*
Y24114D02*
D03*
X295276Y28543D02*
D03*
X287598Y24114D02*
D03*
Y15256D02*
D03*
X295276Y10827D02*
D03*
X302953Y15256D02*
D03*
Y24114D02*
D03*
D57*
X77559Y169488D02*
D03*
Y114764D02*
D03*
D58*
Y183268D02*
D03*
Y100984D02*
D03*
D59*
X246063Y88583D02*
D03*
Y127953D02*
D03*
X217323Y88583D02*
D03*
Y127953D02*
D03*
D73*
X27559Y145768D02*
D03*
X287402D02*
D03*
X27559Y70768D02*
D03*
X287402D02*
D03*
M02*
