G04*
G04 #@! TF.GenerationSoftware,Altium Limited,Altium Designer,18.1.9 (240)*
G04*
G04 Layer_Color=65535*
%FSLAX25Y25*%
%MOIN*%
G70*
G01*
G75*
%ADD10C,0.00787*%
%ADD11C,0.02000*%
%ADD12C,0.01000*%
%ADD13C,0.00600*%
%ADD14C,0.00984*%
D10*
X48686Y203905D02*
X48678Y203871D01*
Y203871D02*
X48670Y203832D01*
X48670Y203832D02*
X48662Y203787D01*
X48662D02*
X48640Y203586D01*
X48638Y203522D01*
X48638D02*
X48638Y203479D01*
X48639Y203442D01*
X49525Y200627D02*
X49524Y200670D01*
X49509Y200393D02*
X49525Y200627D01*
X49499Y200332D02*
X49509Y200393D01*
X49491Y200287D02*
X49499Y200332D01*
X49484Y200254D02*
X49491Y200287D01*
X49476Y200219D02*
X49484Y200254D01*
X46988Y203905D02*
X46980Y203871D01*
Y203871D02*
X46972Y203832D01*
X46972Y203832D02*
X46964Y203787D01*
X46964D02*
X46942Y203586D01*
X46940Y203522D01*
X46940D02*
X46940Y203479D01*
X46941Y203442D01*
X47827Y200627D02*
X47826Y200670D01*
X47811Y200393D02*
X47827Y200627D01*
X47802Y200332D02*
X47811Y200393D01*
X47793Y200287D02*
X47802Y200332D01*
X47786Y200254D02*
X47793Y200287D01*
X47779Y200219D02*
X47786Y200254D01*
X45290Y203905D02*
X45282Y203871D01*
Y203871D02*
X45274Y203832D01*
X45274Y203832D02*
X45266Y203787D01*
X45266D02*
X45245Y203586D01*
X45245D02*
X45243Y203522D01*
X45243Y203479D01*
X45243Y203442D01*
X46129Y200627D02*
X46129Y200670D01*
X46113Y200393D02*
X46129Y200627D01*
X46104Y200332D02*
X46113Y200393D01*
X46095Y200287D02*
X46104Y200332D01*
X46088Y200254D02*
X46095Y200287D01*
X46081Y200219D02*
X46088Y200254D01*
X55300Y197510D02*
X55260Y197599D01*
X55317Y197418D02*
X55300Y197510D01*
X55314Y197336D02*
X55317Y197418D01*
X55297Y197259D02*
X55314Y197336D01*
X55278Y197209D02*
X55297Y197259D01*
X55260Y197176D02*
X55278Y197209D01*
X55116Y197029D02*
X55260Y197176D01*
X55061Y197000D02*
X55116Y197029D01*
X55019Y196984D02*
X55061Y197000D01*
X54975Y196973D02*
X55019Y196984D01*
X54892Y196964D02*
X54975Y196973D01*
X39529Y197142D02*
X39875Y196964D01*
X39507Y197176D02*
X39529Y197142D01*
X39467Y197266D02*
X39507Y197176D01*
X39450Y197358D02*
X39467Y197266D01*
X39453Y197439D02*
X39450Y197358D01*
X39470Y197516D02*
X39453Y197439D01*
X39490Y197566D02*
X39470Y197516D01*
X39507Y197599D02*
X39490Y197566D01*
X47160Y210753D02*
X47016Y210606D01*
X47215Y210783D02*
X47160Y210753D01*
X47258Y210799D02*
X47215Y210783D01*
X47301Y210810D02*
X47258Y210799D01*
X47384Y210818D02*
X47301Y210810D01*
X47729Y210640D02*
X47384Y210818D01*
X47751Y210606D02*
X47729Y210640D01*
X47392Y211030D02*
X47372Y211030D01*
X47410Y211030D02*
X47392Y211030D01*
X47428Y211029D02*
X47410Y211030D01*
X47445Y211028D02*
X47428Y211029D01*
X47462Y211026D02*
X47445Y211028D01*
X47478Y211023D02*
X47462Y211026D01*
X47495Y211021D02*
X47478Y211023D01*
X47512Y211017D02*
X47495Y211021D01*
X47529Y211013D02*
X47512Y211017D01*
X47547Y211009D02*
X47529Y211013D01*
X47566Y211003D02*
X47547Y211009D01*
X47586Y210997D02*
X47566Y211003D01*
X47607Y210989D02*
X47586Y210997D01*
X47631Y210980D02*
X47607Y210989D01*
X47660Y210966D02*
X47631Y210980D01*
X47770Y210899D02*
X47660Y210966D01*
X47809Y210868D02*
X47770Y210899D01*
X47831Y210847D02*
X47809Y210868D01*
X47849Y210830D02*
X47831Y210847D01*
X55449Y197715D02*
X55390Y197796D01*
X55466Y197684D02*
X55449Y197715D01*
X55477Y197662D02*
X55466Y197684D01*
X55485Y197643D02*
X55477Y197662D01*
X55492Y197626D02*
X55485Y197643D01*
X55497Y197610D02*
X55492Y197626D01*
X55502Y197596D02*
X55497Y197610D01*
X55506Y197581D02*
X55502Y197596D01*
X55510Y197567D02*
X55506Y197581D01*
X55513Y197554D02*
X55510Y197567D01*
X55516Y197540D02*
X55513Y197554D01*
X55519Y197527D02*
X55516Y197540D01*
X55521Y197514D02*
X55519Y197527D01*
X55523Y197502D02*
X55521Y197514D01*
X55524Y197489D02*
X55523Y197502D01*
X55526Y197476D02*
X55524Y197489D01*
X55527Y197462D02*
X55526Y197476D01*
X55528Y197448D02*
X55527Y197462D01*
X55528Y197434D02*
X55528Y197448D01*
X55529Y197420D02*
X55528Y197434D01*
X55529Y197404D02*
X55529Y197420D01*
X55528Y197389D02*
X55529Y197404D01*
X55527Y197372D02*
X55528Y197389D01*
X55526Y197354D02*
X55527Y197372D01*
X55524Y197335D02*
X55526Y197354D01*
X55521Y197314D02*
X55524Y197335D01*
X55517Y197290D02*
X55521Y197314D01*
X55511Y197261D02*
X55517Y197290D01*
X55472Y197141D02*
X55511Y197261D01*
X55453Y197098D02*
X55472Y197141D01*
X55439Y197072D02*
X55453Y197098D01*
X55427Y197051D02*
X55439Y197072D01*
X55415Y197033D02*
X55427Y197051D01*
X55405Y197017D02*
X55415Y197033D01*
X55394Y197002D02*
X55405Y197017D01*
X55384Y196989D02*
X55394Y197002D01*
X55375Y196976D02*
X55384Y196989D01*
X55365Y196965D02*
X55375Y196976D01*
X55356Y196954D02*
X55365Y196965D01*
X55346Y196943D02*
X55356Y196954D01*
X55337Y196933D02*
X55346Y196943D01*
X55327Y196923D02*
X55337Y196933D01*
X55318Y196914D02*
X55327Y196923D01*
X55308Y196905D02*
X55318Y196914D01*
X55299Y196897D02*
X55308Y196905D01*
X55289Y196888D02*
X55299Y196897D01*
X55278Y196879D02*
X55289Y196888D01*
X55267Y196871D02*
X55278Y196879D01*
X55256Y196862D02*
X55267Y196871D01*
X55244Y196854D02*
X55256Y196862D01*
X55231Y196845D02*
X55244Y196854D01*
X55218Y196837D02*
X55231Y196845D01*
X55204Y196829D02*
X55218Y196837D01*
X55188Y196820D02*
X55204Y196829D01*
X55171Y196811D02*
X55188Y196820D01*
X55150Y196801D02*
X55171Y196811D01*
X55036Y196766D02*
X55150Y196801D01*
X39911Y196743D02*
X39986Y196753D01*
X39871Y196743D02*
X39911Y196743D01*
X39845Y196744D02*
X39871Y196743D01*
X39825Y196745D02*
X39845Y196744D01*
X39805Y196748D02*
X39825Y196745D01*
X39789Y196750D02*
X39805Y196748D01*
X39772Y196753D02*
X39789Y196750D01*
X39757Y196756D02*
X39772Y196753D01*
X39742Y196760D02*
X39757Y196756D01*
X39728Y196763D02*
X39742Y196760D01*
X39714Y196767D02*
X39728Y196763D01*
X39701Y196771D02*
X39714Y196767D01*
X39687Y196776D02*
X39701Y196771D01*
X39674Y196781D02*
X39687Y196776D01*
X39661Y196786D02*
X39674Y196781D01*
X39648Y196791D02*
X39661Y196786D01*
X39635Y196797D02*
X39648Y196791D01*
X39621Y196804D02*
X39635Y196797D01*
X39607Y196811D02*
X39621Y196804D01*
X39593Y196818D02*
X39607Y196811D01*
X39578Y196826D02*
X39593Y196818D01*
X39563Y196835D02*
X39578Y196826D01*
X39546Y196846D02*
X39563Y196835D01*
X39529Y196858D02*
X39546Y196846D01*
X39510Y196871D02*
X39529Y196858D01*
X39489Y196888D02*
X39510Y196871D01*
X39374Y197005D02*
X39489Y196888D01*
X39351Y197036D02*
X39374Y197005D01*
X39336Y197058D02*
X39351Y197036D01*
X39324Y197078D02*
X39336Y197058D01*
X39314Y197096D02*
X39324Y197078D01*
X39305Y197112D02*
X39314Y197096D01*
X39297Y197127D02*
X39305Y197112D01*
X39290Y197142D02*
X39297Y197127D01*
X39284Y197157D02*
X39290Y197142D01*
X39278Y197171D02*
X39284Y197157D01*
X39273Y197184D02*
X39278Y197171D01*
X39268Y197197D02*
X39273Y197184D01*
X39263Y197211D02*
X39268Y197197D01*
X39259Y197224D02*
X39263Y197211D01*
X39255Y197238D02*
X39259Y197224D01*
X39251Y197251D02*
X39255Y197238D01*
X39248Y197265D02*
X39251Y197251D01*
X39245Y197279D02*
X39248Y197265D01*
X39242Y197293D02*
X39245Y197279D01*
X39240Y197307D02*
X39242Y197293D01*
X39238Y197321D02*
X39240Y197307D01*
X39236Y197336D02*
X39238Y197321D01*
X39235Y197352D02*
X39236Y197336D01*
X39234Y197368D02*
X39235Y197352D01*
X39233Y197386D02*
X39234Y197368D01*
X39233Y197407D02*
X39233Y197386D01*
X39234Y197432D02*
X39233Y197407D01*
X39253Y197542D02*
X39234Y197432D01*
X39263Y197574D02*
X39253Y197542D01*
X47150Y210986D02*
X47141Y210982D01*
X47160Y210990D02*
X47150Y210986D01*
X47171Y210995D02*
X47160Y210990D01*
X47184Y211000D02*
X47171Y210995D01*
X47201Y211005D02*
X47184Y211000D01*
X47272Y211022D02*
X47201Y211005D01*
X47298Y211026D02*
X47272Y211022D01*
X47315Y211028D02*
X47298Y211026D01*
X47329Y211029D02*
X47315Y211028D01*
X47341Y211029D02*
X47329Y211029D01*
X47351Y211030D02*
X47341Y211029D01*
X47362Y211030D02*
X47351Y211030D01*
X93307Y176378D02*
X93275Y177377D01*
X93180Y178372D01*
X93023Y179358D01*
X92802Y180333D01*
X92521Y181292D01*
X92179Y182231D01*
X91778Y183146D01*
X91321Y184035D01*
X90807Y184892D01*
X90241Y185715D01*
X89623Y186501D01*
X88956Y187245D01*
X88244Y187946D01*
X87489Y188601D01*
X86694Y189206D01*
X85862Y189759D01*
X84996Y190259D01*
X84101Y190703D01*
X83179Y191089D01*
X82235Y191416D01*
X81272Y191682D01*
X80294Y191887D01*
X79304Y192029D01*
X78308Y192108D01*
X77309Y192124D01*
X76311Y192076D01*
X75318Y191966D01*
X74334Y191792D01*
X73363Y191557D01*
X72408Y191260D01*
X71475Y190903D01*
X70566Y190488D01*
X69685Y190016D01*
X68836Y189489D01*
X68022Y188910D01*
X67246Y188279D01*
X66512Y187601D01*
X65823Y186878D01*
X65180Y186113D01*
X64588Y185308D01*
X64047Y184467D01*
X63562Y183594D01*
X63132Y182692D01*
X62761Y181764D01*
X62449Y180815D01*
X62198Y179847D01*
X62009Y178866D01*
X61882Y177875D01*
X61819Y176878D01*
Y175878D01*
X61882Y174881D01*
X62009Y173890D01*
X62198Y172908D01*
X62449Y171941D01*
X62761Y170992D01*
X63132Y170064D01*
X63562Y169162D01*
X64047Y168289D01*
X64588Y167448D01*
X65180Y166643D01*
X65823Y165878D01*
X66512Y165154D01*
X67246Y164476D01*
X68022Y163846D01*
X68836Y163267D01*
X69685Y162740D01*
X70566Y162268D01*
X71475Y161853D01*
X72408Y161496D01*
X73363Y161199D01*
X74334Y160964D01*
X75318Y160790D01*
X76311Y160679D01*
X77309Y160632D01*
X78308Y160648D01*
X79304Y160727D01*
X80294Y160869D01*
X81272Y161074D01*
X82235Y161340D01*
X83179Y161667D01*
X84101Y162053D01*
X84996Y162497D01*
X85862Y162996D01*
X86694Y163550D01*
X87489Y164155D01*
X88244Y164810D01*
X88956Y165510D01*
X89623Y166255D01*
X90241Y167041D01*
X90807Y167864D01*
X91321Y168721D01*
X91778Y169609D01*
X92179Y170525D01*
X92521Y171464D01*
X92802Y172423D01*
X93023Y173398D01*
X93180Y174384D01*
X93275Y175379D01*
X93307Y176378D01*
Y107874D02*
X93275Y108873D01*
X93180Y109868D01*
X93023Y110854D01*
X92802Y111829D01*
X92521Y112788D01*
X92179Y113727D01*
X91778Y114642D01*
X91321Y115531D01*
X90807Y116388D01*
X90241Y117211D01*
X89623Y117997D01*
X88956Y118741D01*
X88244Y119442D01*
X87489Y120097D01*
X86694Y120702D01*
X85862Y121256D01*
X84996Y121755D01*
X84101Y122199D01*
X83179Y122585D01*
X82235Y122912D01*
X81272Y123178D01*
X80294Y123383D01*
X79304Y123525D01*
X78308Y123604D01*
X77309Y123620D01*
X76311Y123573D01*
X75318Y123462D01*
X74334Y123288D01*
X73363Y123053D01*
X72408Y122756D01*
X71475Y122399D01*
X70566Y121984D01*
X69685Y121512D01*
X68836Y120985D01*
X68022Y120406D01*
X67246Y119776D01*
X66512Y119098D01*
X65823Y118374D01*
X65180Y117609D01*
X64588Y116804D01*
X64047Y115963D01*
X63562Y115090D01*
X63132Y114188D01*
X62761Y113260D01*
X62449Y112311D01*
X62198Y111344D01*
X62009Y110362D01*
X61882Y109371D01*
X61819Y108374D01*
Y107374D01*
X61882Y106377D01*
X62009Y105386D01*
X62198Y104405D01*
X62449Y103437D01*
X62761Y102488D01*
X63132Y101560D01*
X63562Y100658D01*
X64047Y99785D01*
X64588Y98944D01*
X65180Y98139D01*
X65823Y97374D01*
X66512Y96650D01*
X67246Y95972D01*
X68022Y95342D01*
X68836Y94763D01*
X69685Y94236D01*
X70566Y93764D01*
X71475Y93349D01*
X72408Y92992D01*
X73363Y92695D01*
X74334Y92460D01*
X75318Y92286D01*
X76311Y92176D01*
X77309Y92128D01*
X78308Y92144D01*
X79304Y92223D01*
X80294Y92365D01*
X81272Y92570D01*
X82235Y92836D01*
X83179Y93163D01*
X84101Y93549D01*
X84996Y93993D01*
X85862Y94493D01*
X86694Y95046D01*
X87489Y95651D01*
X88244Y96306D01*
X88956Y97007D01*
X89623Y97751D01*
X90241Y98537D01*
X90807Y99360D01*
X91321Y100217D01*
X91778Y101106D01*
X92179Y102021D01*
X92521Y102960D01*
X92802Y103919D01*
X93023Y104894D01*
X93180Y105880D01*
X93275Y106875D01*
X93307Y107874D01*
X180413Y191929D02*
Y192323D01*
X175492Y191929D02*
Y192323D01*
X172539Y191929D02*
Y192323D01*
X167618Y191929D02*
Y192323D01*
X86417Y18307D02*
X86811D01*
X86417Y14764D02*
X86811D01*
X125886Y165157D02*
Y165551D01*
X120571Y165157D02*
Y165551D01*
X44003Y198399D02*
X50765D01*
X49078Y204726D02*
X49083Y204733D01*
X49069Y204714D02*
X49078Y204726D01*
X49060Y204701D02*
X49069Y204714D01*
X49051Y204688D02*
X49060Y204701D01*
X49043Y204675D02*
X49051Y204688D01*
X49034Y204663D02*
X49043Y204675D01*
X49025Y204650D02*
X49034Y204663D01*
X49017Y204637D02*
X49025Y204650D01*
X49009Y204625D02*
X49017Y204637D01*
X49000Y204612D02*
X49009Y204625D01*
X48992Y204599D02*
X49000Y204612D01*
X48984Y204587D02*
X48992Y204599D01*
X48976Y204574D02*
X48984Y204587D01*
X48968Y204562D02*
X48976Y204574D01*
X48961Y204549D02*
X48968Y204562D01*
X48953Y204537D02*
X48961Y204549D01*
X48946Y204524D02*
X48953Y204537D01*
X48938Y204512D02*
X48946Y204524D01*
X48931Y204500D02*
X48938Y204512D01*
X48924Y204487D02*
X48931Y204500D01*
X48917Y204475D02*
X48924Y204487D01*
X48910Y204463D02*
X48917Y204475D01*
X48903Y204450D02*
X48910Y204463D01*
X48896Y204438D02*
X48903Y204450D01*
X48889Y204426D02*
X48896Y204438D01*
X48883Y204414D02*
X48889Y204426D01*
X48876Y204402D02*
X48883Y204414D01*
X48867Y204383D02*
X48876Y204402D01*
X48857Y204365D02*
X48867Y204383D01*
X48848Y204347D02*
X48857Y204365D01*
X48839Y204329D02*
X48848Y204347D01*
X48831Y204311D02*
X48839Y204329D01*
X48822Y204293D02*
X48831Y204311D01*
X48814Y204275D02*
X48822Y204293D01*
X48806Y204257D02*
X48814Y204275D01*
X48798Y204240D02*
X48806Y204257D01*
X48790Y204222D02*
X48798Y204240D01*
X48783Y204204D02*
X48790Y204222D01*
X48776Y204186D02*
X48783Y204204D01*
X48769Y204169D02*
X48776Y204186D01*
X48762Y204151D02*
X48769Y204169D01*
X48755Y204134D02*
X48762Y204151D01*
X48749Y204116D02*
X48755Y204134D01*
X48743Y204099D02*
X48749Y204116D01*
X48735Y204076D02*
X48743Y204099D01*
X48727Y204053D02*
X48735Y204076D01*
X48720Y204030D02*
X48727Y204053D01*
X48713Y204007D02*
X48720Y204030D01*
X48706Y203984D02*
X48713Y204007D01*
X48700Y203961D02*
X48706Y203984D01*
X48692Y203933D02*
X48700Y203961D01*
X48686Y203905D02*
X48692Y203933D01*
X48639Y203442D02*
X48640Y203411D01*
X48642Y203384D01*
X48644Y203358D01*
X48645Y203338D01*
X48647Y203317D01*
X48649Y203296D01*
X48652Y203275D01*
X48654Y203255D01*
X48657Y203239D01*
X48659Y203224D01*
X48661Y203208D01*
X48664Y203193D01*
X48666Y203178D01*
X48669Y203163D01*
X48672Y203147D01*
X48675Y203132D01*
X48678Y203117D01*
X48681Y203102D01*
X48684Y203087D01*
X48687Y203071D01*
X48691Y203056D01*
X48694Y203041D01*
X48697Y203031D01*
X48699Y203021D01*
X48702Y203011D01*
X48704Y203001D01*
X48707Y202991D01*
X48709Y202981D01*
X48712Y202971D01*
X48715Y202961D01*
X48717Y202951D01*
X48720Y202941D01*
X48723Y202931D01*
X48726Y202921D01*
X48729Y202911D01*
X48732Y202902D01*
X48735Y202892D01*
X48738Y202882D01*
X48741Y202872D01*
X48744Y202862D01*
X48747Y202852D01*
X48750Y202842D01*
X48753Y202832D01*
X48757Y202822D01*
X48760Y202813D01*
X48763Y202803D01*
X48766Y202793D01*
X48770Y202783D01*
X48773Y202773D01*
X48777Y202764D01*
X48780Y202754D01*
X48784Y202744D01*
X48787Y202734D01*
X48791Y202725D01*
X48794Y202715D01*
X48798Y202705D01*
X48802Y202695D01*
X48805Y202685D01*
X48809Y202676D01*
X48813Y202666D01*
X48816Y202656D01*
X48820Y202646D01*
X48824Y202637D01*
X48828Y202627D01*
X48832Y202617D01*
X48836Y202608D01*
X48840Y202598D01*
X48844Y202588D01*
X48847Y202579D01*
X48849Y202574D01*
X48851Y202569D01*
X48853Y202564D01*
X48855Y202559D01*
X48858Y202554D01*
X48860Y202550D01*
X48862Y202545D01*
X48864Y202540D01*
X48866Y202535D01*
X48868Y202530D01*
X48870Y202526D01*
X48872Y202521D01*
X48874Y202516D01*
X48876Y202511D01*
X48878Y202506D01*
X48880Y202502D01*
X48882Y202497D01*
X48884Y202492D01*
X48886Y202487D01*
X48888Y202482D01*
X48890Y202477D01*
X48893Y202473D01*
X48895Y202468D01*
X48897Y202463D01*
X48899Y202458D01*
X48901Y202453D01*
X48903Y202449D01*
X48905Y202444D01*
X48907Y202439D01*
X48909Y202434D01*
X48911Y202429D01*
X48914Y202425D01*
X48916Y202420D01*
X48918Y202415D01*
X48920Y202410D01*
X48922Y202405D01*
X48924Y202400D01*
X48927Y202396D01*
X48929Y202391D01*
X48931Y202386D01*
X48933Y202381D01*
X48935Y202377D01*
X48937Y202372D01*
X48940Y202367D01*
X48942Y202362D01*
X48944Y202357D01*
X48946Y202353D01*
X48948Y202348D01*
X48951Y202343D01*
X48953Y202338D01*
X48955Y202333D01*
X48957Y202329D01*
X48959Y202324D01*
X48962Y202319D01*
X48964Y202314D01*
X48966Y202310D01*
X48968Y202305D01*
X48971Y202300D01*
X48973Y202295D01*
X48975Y202290D01*
X48977Y202286D01*
X48980Y202281D01*
X48982Y202276D01*
X48984Y202271D01*
X48986Y202267D01*
X48989Y202262D01*
X48991Y202257D01*
X48993Y202252D01*
X48995Y202248D01*
X48998Y202243D01*
X49000Y202238D01*
X49002Y202233D01*
X49004Y202228D01*
X49007Y202224D01*
X49009Y202219D01*
X49011Y202214D01*
X49014Y202209D01*
X49016Y202204D01*
X49018Y202200D01*
X49020Y202195D01*
X49023Y202190D01*
X49025Y202185D01*
X49027Y202181D01*
X49029Y202176D01*
X49032Y202171D01*
X49034Y202166D01*
X49036Y202162D01*
X49039Y202157D01*
X49041Y202152D01*
X49043Y202147D01*
X49046Y202143D01*
X49048Y202138D01*
X49050Y202133D01*
X49052Y202128D01*
X49055Y202123D01*
X49057Y202119D01*
X49059Y202114D01*
X49062Y202109D01*
X49064Y202104D01*
X49066Y202100D01*
X49068Y202095D01*
X49071Y202090D01*
X49073Y202085D01*
X49075Y202080D01*
X49078Y202076D01*
X49080Y202071D01*
X49082Y202066D01*
X49084Y202061D01*
X49087Y202057D01*
X49089Y202052D01*
X49091Y202047D01*
X49094Y202042D01*
X49096Y202038D01*
X49098Y202033D01*
X49101Y202028D01*
X49103Y202023D01*
X49105Y202018D01*
X49108Y202014D01*
X49110Y202009D01*
X49112Y202004D01*
X49114Y201999D01*
X49117Y201995D01*
X49119Y201990D01*
X49121Y201985D01*
X49123Y201980D01*
X49126Y201976D01*
X49128Y201971D01*
X49130Y201966D01*
X49133Y201961D01*
X49135Y201957D01*
X49137Y201952D01*
X49139Y201947D01*
X49142Y201942D01*
X49144Y201937D01*
X49146Y201933D01*
X49149Y201928D01*
X49151Y201923D01*
X49153Y201918D01*
X49155Y201914D01*
X49158Y201909D01*
X49160Y201904D01*
X49162Y201899D01*
X49165Y201894D01*
X49167Y201890D01*
X49169Y201885D01*
X49171Y201880D01*
X49174Y201875D01*
X49176Y201871D01*
X49178Y201866D01*
X49180Y201861D01*
X49183Y201856D01*
X49185Y201851D01*
X49187Y201847D01*
X49189Y201842D01*
X49191Y201837D01*
X49194Y201832D01*
X49196Y201828D01*
X49198Y201823D01*
X49200Y201818D01*
X49203Y201813D01*
X49205Y201808D01*
X49207Y201803D01*
X49209Y201799D01*
X49211Y201794D01*
X49214Y201789D01*
X49216Y201784D01*
X49218Y201780D01*
X49220Y201775D01*
X49222Y201770D01*
X49225Y201765D01*
X49227Y201760D01*
X49229Y201756D01*
X49231Y201751D01*
X49233Y201746D01*
X49235Y201741D01*
X49238Y201736D01*
X49240Y201732D01*
X49242Y201727D01*
X49244Y201722D01*
X49246Y201717D01*
X49248Y201712D01*
X49251Y201708D01*
X49253Y201703D01*
X49255Y201698D01*
X49257Y201693D01*
X49259Y201688D01*
X49261Y201683D01*
X49263Y201679D01*
X49266Y201674D01*
X49268Y201669D01*
X49270Y201664D01*
X49272Y201659D01*
X49274Y201655D01*
X49276Y201650D01*
X49278Y201645D01*
X49280Y201640D01*
X49282Y201635D01*
X49284Y201630D01*
X49286Y201626D01*
X49288Y201621D01*
X49290Y201616D01*
X49292Y201611D01*
X49295Y201606D01*
X49297Y201602D01*
X49299Y201597D01*
X49301Y201592D01*
X49303Y201587D01*
X49305Y201582D01*
X49307Y201577D01*
X49309Y201572D01*
X49311Y201568D01*
X49315Y201558D01*
X49319Y201548D01*
X49323Y201538D01*
X49327Y201529D01*
X49330Y201519D01*
X49334Y201509D01*
X49338Y201500D01*
X49342Y201490D01*
X49346Y201480D01*
X49349Y201470D01*
X49353Y201461D01*
X49357Y201451D01*
X49361Y201441D01*
X49364Y201431D01*
X49368Y201421D01*
X49371Y201412D01*
X49375Y201402D01*
X49379Y201392D01*
X49382Y201382D01*
X49386Y201372D01*
X49389Y201363D01*
X49392Y201353D01*
X49396Y201343D01*
X49399Y201333D01*
X49402Y201323D01*
X49406Y201313D01*
X49409Y201303D01*
X49412Y201293D01*
X49415Y201284D01*
X49418Y201274D01*
X49422Y201264D01*
X49425Y201254D01*
X49428Y201244D01*
X49431Y201234D01*
X49433Y201224D01*
X49436Y201214D01*
X49439Y201204D01*
X49442Y201194D01*
X49445Y201184D01*
X49448Y201174D01*
X49450Y201164D01*
X49453Y201154D01*
X49456Y201144D01*
X49458Y201134D01*
X49461Y201124D01*
X49463Y201114D01*
X49466Y201104D01*
X49469Y201089D01*
X49473Y201074D01*
X49476Y201058D01*
X49480Y201043D01*
X49483Y201028D01*
X49486Y201013D01*
X49489Y200997D01*
X49492Y200982D01*
X49494Y200967D01*
X49497Y200951D01*
X49500Y200936D01*
X49502Y200921D01*
X49505Y200905D01*
X49507Y200889D01*
X49509Y200869D01*
X49512Y200848D01*
X49514Y200827D01*
X49516Y200806D01*
X49518Y200785D01*
X49520Y200759D01*
X49522Y200733D01*
X49523Y200701D01*
X49524Y200670D01*
X49469Y200191D02*
X49476Y200219D01*
X49462Y200163D02*
X49469Y200191D01*
X49456Y200140D02*
X49462Y200163D01*
X49449Y200117D02*
X49456Y200140D01*
X49442Y200094D02*
X49449Y200117D01*
X49435Y200070D02*
X49442Y200094D01*
X49427Y200047D02*
X49435Y200070D01*
X49421Y200029D02*
X49427Y200047D01*
X49415Y200012D02*
X49421Y200029D01*
X49408Y199994D02*
X49415Y200012D01*
X49402Y199977D02*
X49408Y199994D01*
X49395Y199959D02*
X49402Y199977D01*
X49388Y199941D02*
X49395Y199959D01*
X49381Y199923D02*
X49388Y199941D01*
X49373Y199906D02*
X49381Y199923D01*
X49366Y199888D02*
X49373Y199906D01*
X49358Y199870D02*
X49366Y199888D01*
X49350Y199852D02*
X49358Y199870D01*
X49342Y199834D02*
X49350Y199852D01*
X49333Y199816D02*
X49342Y199834D01*
X49325Y199797D02*
X49333Y199816D01*
X49316Y199779D02*
X49325Y199797D01*
X49306Y199761D02*
X49316Y199779D01*
X49297Y199743D02*
X49306Y199761D01*
X49291Y199730D02*
X49297Y199743D01*
X49284Y199718D02*
X49291Y199730D01*
X49278Y199706D02*
X49284Y199718D01*
X49271Y199694D02*
X49278Y199706D01*
X49264Y199681D02*
X49271Y199694D01*
X49258Y199669D02*
X49264Y199681D01*
X49251Y199656D02*
X49258Y199669D01*
X49244Y199644D02*
X49251Y199656D01*
X49237Y199632D02*
X49244Y199644D01*
X49229Y199619D02*
X49237Y199632D01*
X49222Y199607D02*
X49229Y199619D01*
X49215Y199594D02*
X49222Y199607D01*
X49207Y199582D02*
X49215Y199594D01*
X49199Y199569D02*
X49207Y199582D01*
X49192Y199556D02*
X49199Y199569D01*
X49184Y199544D02*
X49192Y199556D01*
X49176Y199531D02*
X49184Y199544D01*
X49168Y199518D02*
X49176Y199531D01*
X49160Y199506D02*
X49168Y199518D01*
X49151Y199493D02*
X49160Y199506D01*
X49143Y199480D02*
X49151Y199493D01*
X49134Y199468D02*
X49143Y199480D01*
X49126Y199455D02*
X49134Y199468D01*
X49117Y199442D02*
X49126Y199455D01*
X49108Y199429D02*
X49117Y199442D01*
X49095Y199410D02*
X49108Y199429D01*
X47381Y204726D02*
X47385Y204733D01*
X47371Y204714D02*
X47381Y204726D01*
X47362Y204701D02*
X47371Y204714D01*
X47354Y204688D02*
X47362Y204701D01*
X47345Y204675D02*
X47354Y204688D01*
X47336Y204663D02*
X47345Y204675D01*
X47328Y204650D02*
X47336Y204663D01*
X47319Y204637D02*
X47328Y204650D01*
X47311Y204625D02*
X47319Y204637D01*
X47302Y204612D02*
X47311Y204625D01*
X47294Y204599D02*
X47302Y204612D01*
X47286Y204587D02*
X47294Y204599D01*
X47278Y204574D02*
X47286Y204587D01*
X47271Y204562D02*
X47278Y204574D01*
X47263Y204549D02*
X47271Y204562D01*
X47255Y204537D02*
X47263Y204549D01*
X47248Y204524D02*
X47255Y204537D01*
X47240Y204512D02*
X47248Y204524D01*
X47233Y204500D02*
X47240Y204512D01*
X47226Y204487D02*
X47233Y204500D01*
X47219Y204475D02*
X47226Y204487D01*
X47212Y204463D02*
X47219Y204475D01*
X47205Y204450D02*
X47212Y204463D01*
X47198Y204438D02*
X47205Y204450D01*
X47191Y204426D02*
X47198Y204438D01*
X47185Y204414D02*
X47191Y204426D01*
X47178Y204402D02*
X47185Y204414D01*
X47169Y204383D02*
X47178Y204402D01*
X47159Y204365D02*
X47169Y204383D01*
X47150Y204347D02*
X47159Y204365D01*
X47141Y204329D02*
X47150Y204347D01*
X47133Y204311D02*
X47141Y204329D01*
X47124Y204293D02*
X47133Y204311D01*
X47116Y204275D02*
X47124Y204293D01*
X47108Y204257D02*
X47116Y204275D01*
X47100Y204240D02*
X47108Y204257D01*
X47093Y204222D02*
X47100Y204240D01*
X47085Y204204D02*
X47093Y204222D01*
X47078Y204186D02*
X47085Y204204D01*
X47071Y204169D02*
X47078Y204186D01*
X47064Y204151D02*
X47071Y204169D01*
X47057Y204134D02*
X47064Y204151D01*
X47051Y204116D02*
X47057Y204134D01*
X47045Y204099D02*
X47051Y204116D01*
X47037Y204076D02*
X47045Y204099D01*
X47029Y204053D02*
X47037Y204076D01*
X47022Y204030D02*
X47029Y204053D01*
X47015Y204007D02*
X47022Y204030D01*
X47008Y203984D02*
X47015Y204007D01*
X47002Y203961D02*
X47008Y203984D01*
X46995Y203933D02*
X47002Y203961D01*
X46988Y203905D02*
X46995Y203933D01*
X46941Y203442D02*
X46942Y203411D01*
X46944Y203384D01*
X46946Y203358D01*
X46948Y203338D01*
X46949Y203317D01*
X46952Y203296D01*
X46954Y203275D01*
X46957Y203255D01*
X46959Y203239D01*
X46961Y203224D01*
X46963Y203208D01*
X46966Y203193D01*
X46968Y203178D01*
X46971Y203163D01*
X46974Y203147D01*
X46977Y203132D01*
X46980Y203117D01*
X46983Y203102D01*
X46986Y203087D01*
X46990Y203071D01*
X46993Y203056D01*
X46996Y203041D01*
X46999Y203031D01*
X47001Y203021D01*
X47004Y203011D01*
X47006Y203001D01*
X47009Y202991D01*
X47012Y202981D01*
X47014Y202971D01*
X47017Y202961D01*
X47020Y202951D01*
X47022Y202941D01*
X47025Y202931D01*
X47028Y202921D01*
X47031Y202911D01*
X47034Y202902D01*
X47037Y202892D01*
X47040Y202882D01*
X47043Y202872D01*
X47046Y202862D01*
X47049Y202852D01*
X47052Y202842D01*
X47056Y202832D01*
X47059Y202822D01*
X47062Y202813D01*
X47065Y202803D01*
X47069Y202793D01*
X47072Y202783D01*
X47076Y202773D01*
X47079Y202764D01*
X47082Y202754D01*
X47086Y202744D01*
X47089Y202734D01*
X47093Y202725D01*
X47096Y202715D01*
X47100Y202705D01*
X47104Y202695D01*
X47107Y202685D01*
X47111Y202676D01*
X47115Y202666D01*
X47119Y202656D01*
X47122Y202646D01*
X47126Y202637D01*
X47130Y202627D01*
X47134Y202617D01*
X47138Y202608D01*
X47142Y202598D01*
X47146Y202588D01*
X47150Y202579D01*
X47152Y202574D01*
X47154Y202569D01*
X47156Y202564D01*
X47158Y202559D01*
X47160Y202554D01*
X47162Y202550D01*
X47164Y202545D01*
X47166Y202540D01*
X47168Y202535D01*
X47170Y202530D01*
X47172Y202526D01*
X47174Y202521D01*
X47176Y202516D01*
X47178Y202511D01*
X47180Y202506D01*
X47182Y202502D01*
X47184Y202497D01*
X47186Y202492D01*
X47188Y202487D01*
X47190Y202482D01*
X47192Y202477D01*
X47195Y202473D01*
X47197Y202468D01*
X47199Y202463D01*
X47201Y202458D01*
X47203Y202453D01*
X47205Y202449D01*
X47207Y202444D01*
X47210Y202439D01*
X47212Y202434D01*
X47214Y202429D01*
X47216Y202425D01*
X47218Y202420D01*
X47220Y202415D01*
X47222Y202410D01*
X47225Y202405D01*
X47227Y202400D01*
X47229Y202396D01*
X47231Y202391D01*
X47233Y202386D01*
X47235Y202381D01*
X47238Y202377D01*
X47240Y202372D01*
X47242Y202367D01*
X47244Y202362D01*
X47246Y202357D01*
X47249Y202353D01*
X47251Y202348D01*
X47253Y202343D01*
X47255Y202338D01*
X47257Y202333D01*
X47260Y202329D01*
X47262Y202324D01*
X47264Y202319D01*
X47266Y202314D01*
X47268Y202310D01*
X47271Y202305D01*
X47273Y202300D01*
X47275Y202295D01*
X47277Y202290D01*
X47280Y202286D01*
X47282Y202281D01*
X47284Y202276D01*
X47286Y202271D01*
X47289Y202267D01*
X47291Y202262D01*
X47293Y202257D01*
X47295Y202252D01*
X47298Y202248D01*
X47300Y202243D01*
X47302Y202238D01*
X47304Y202233D01*
X47307Y202228D01*
X47309Y202224D01*
X47311Y202219D01*
X47313Y202214D01*
X47316Y202209D01*
X47318Y202204D01*
X47320Y202200D01*
X47322Y202195D01*
X47325Y202190D01*
X47327Y202185D01*
X47329Y202181D01*
X47332Y202176D01*
X47334Y202171D01*
X47336Y202166D01*
X47339Y202162D01*
X47341Y202157D01*
X47343Y202152D01*
X47345Y202147D01*
X47348Y202143D01*
X47350Y202138D01*
X47352Y202133D01*
X47355Y202128D01*
X47357Y202123D01*
X47359Y202119D01*
X47361Y202114D01*
X47364Y202109D01*
X47366Y202104D01*
X47368Y202100D01*
X47371Y202095D01*
X47373Y202090D01*
X47375Y202085D01*
X47377Y202080D01*
X47380Y202076D01*
X47382Y202071D01*
X47384Y202066D01*
X47387Y202061D01*
X47389Y202057D01*
X47391Y202052D01*
X47394Y202047D01*
X47396Y202042D01*
X47398Y202038D01*
X47401Y202033D01*
X47403Y202028D01*
X47405Y202023D01*
X47407Y202018D01*
X47410Y202014D01*
X47412Y202009D01*
X47414Y202004D01*
X47416Y201999D01*
X47419Y201995D01*
X47421Y201990D01*
X47423Y201985D01*
X47426Y201980D01*
X47428Y201976D01*
X47430Y201971D01*
X47433Y201966D01*
X47435Y201961D01*
X47437Y201957D01*
X47439Y201952D01*
X47442Y201947D01*
X47444Y201942D01*
X47446Y201937D01*
X47449Y201933D01*
X47451Y201928D01*
X47453Y201923D01*
X47455Y201918D01*
X47458Y201914D01*
X47460Y201909D01*
X47462Y201904D01*
X47464Y201899D01*
X47467Y201894D01*
X47469Y201890D01*
X47471Y201885D01*
X47473Y201880D01*
X47476Y201875D01*
X47478Y201871D01*
X47480Y201866D01*
X47482Y201861D01*
X47485Y201856D01*
X47487Y201851D01*
X47489Y201847D01*
X47491Y201842D01*
X47494Y201837D01*
X47496Y201832D01*
X47498Y201828D01*
X47500Y201823D01*
X47503Y201818D01*
X47505Y201813D01*
X47507Y201808D01*
X47509Y201803D01*
X47511Y201799D01*
X47514Y201794D01*
X47516Y201789D01*
X47518Y201784D01*
X47520Y201780D01*
X47522Y201775D01*
X47525Y201770D01*
X47527Y201765D01*
X47529Y201760D01*
X47531Y201756D01*
X47533Y201751D01*
X47535Y201746D01*
X47538Y201741D01*
X47540Y201736D01*
X47542Y201732D01*
X47544Y201727D01*
X47546Y201722D01*
X47548Y201717D01*
X47551Y201712D01*
X47553Y201708D01*
X47555Y201703D01*
X47557Y201698D01*
X47559Y201693D01*
X47561Y201688D01*
X47563Y201683D01*
X47566Y201679D01*
X47568Y201674D01*
X47570Y201669D01*
X47572Y201664D01*
X47574Y201659D01*
X47576Y201655D01*
X47578Y201650D01*
X47580Y201645D01*
X47582Y201640D01*
X47584Y201635D01*
X47587Y201630D01*
X47589Y201626D01*
X47591Y201621D01*
X47593Y201616D01*
X47595Y201611D01*
X47597Y201606D01*
X47599Y201602D01*
X47601Y201597D01*
X47603Y201592D01*
X47605Y201587D01*
X47607Y201582D01*
X47609Y201577D01*
X47611Y201572D01*
X47613Y201568D01*
X47617Y201558D01*
X47621Y201548D01*
X47625Y201538D01*
X47629Y201529D01*
X47633Y201519D01*
X47637Y201509D01*
X47640Y201500D01*
X47644Y201490D01*
X47648Y201480D01*
X47652Y201470D01*
X47655Y201461D01*
X47659Y201451D01*
X47663Y201441D01*
X47666Y201431D01*
X47670Y201421D01*
X47674Y201412D01*
X47677Y201402D01*
X47681Y201392D01*
X47684Y201382D01*
X47688Y201372D01*
X47691Y201363D01*
X47695Y201353D01*
X47698Y201343D01*
X47701Y201333D01*
X47705Y201323D01*
X47708Y201313D01*
X47711Y201303D01*
X47714Y201293D01*
X47717Y201284D01*
X47721Y201274D01*
X47724Y201264D01*
X47727Y201254D01*
X47730Y201244D01*
X47733Y201234D01*
X47736Y201224D01*
X47739Y201214D01*
X47741Y201204D01*
X47744Y201194D01*
X47747Y201184D01*
X47750Y201174D01*
X47753Y201164D01*
X47755Y201154D01*
X47758Y201144D01*
X47760Y201134D01*
X47763Y201124D01*
X47765Y201114D01*
X47768Y201104D01*
X47772Y201089D01*
X47775Y201074D01*
X47778Y201058D01*
X47782Y201043D01*
X47785Y201028D01*
X47788Y201013D01*
X47791Y200997D01*
X47794Y200982D01*
X47797Y200967D01*
X47799Y200951D01*
X47802Y200936D01*
X47804Y200921D01*
X47807Y200905D01*
X47809Y200889D01*
X47812Y200869D01*
X47814Y200848D01*
X47817Y200827D01*
X47819Y200806D01*
X47820Y200785D01*
X47822Y200759D01*
X47824Y200733D01*
X47826Y200701D01*
X47826Y200670D01*
X47772Y200191D02*
X47779Y200219D01*
X47764Y200163D02*
X47772Y200191D01*
X47758Y200140D02*
X47764Y200163D01*
X47751Y200117D02*
X47758Y200140D01*
X47744Y200094D02*
X47751Y200117D01*
X47737Y200070D02*
X47744Y200094D01*
X47729Y200047D02*
X47737Y200070D01*
X47723Y200029D02*
X47729Y200047D01*
X47717Y200012D02*
X47723Y200029D01*
X47710Y199994D02*
X47717Y200012D01*
X47704Y199977D02*
X47710Y199994D01*
X47697Y199959D02*
X47704Y199977D01*
X47690Y199941D02*
X47697Y199959D01*
X47683Y199923D02*
X47690Y199941D01*
X47675Y199906D02*
X47683Y199923D01*
X47668Y199888D02*
X47675Y199906D01*
X47660Y199870D02*
X47668Y199888D01*
X47652Y199852D02*
X47660Y199870D01*
X47644Y199834D02*
X47652Y199852D01*
X47635Y199816D02*
X47644Y199834D01*
X47627Y199797D02*
X47635Y199816D01*
X47618Y199779D02*
X47627Y199797D01*
X47609Y199761D02*
X47618Y199779D01*
X47599Y199743D02*
X47609Y199761D01*
X47593Y199730D02*
X47599Y199743D01*
X47587Y199718D02*
X47593Y199730D01*
X47580Y199706D02*
X47587Y199718D01*
X47573Y199694D02*
X47580Y199706D01*
X47567Y199681D02*
X47573Y199694D01*
X47560Y199669D02*
X47567Y199681D01*
X47553Y199656D02*
X47560Y199669D01*
X47546Y199644D02*
X47553Y199656D01*
X47539Y199632D02*
X47546Y199644D01*
X47532Y199619D02*
X47539Y199632D01*
X47524Y199607D02*
X47532Y199619D01*
X47517Y199594D02*
X47524Y199607D01*
X47509Y199582D02*
X47517Y199594D01*
X47502Y199569D02*
X47509Y199582D01*
X47494Y199556D02*
X47502Y199569D01*
X47486Y199544D02*
X47494Y199556D01*
X47478Y199531D02*
X47486Y199544D01*
X47470Y199518D02*
X47478Y199531D01*
X47462Y199506D02*
X47470Y199518D01*
X47454Y199493D02*
X47462Y199506D01*
X47445Y199480D02*
X47454Y199493D01*
X47437Y199468D02*
X47445Y199480D01*
X47428Y199455D02*
X47437Y199468D01*
X47419Y199442D02*
X47428Y199455D01*
X47411Y199429D02*
X47419Y199442D01*
X47397Y199410D02*
X47411Y199429D01*
X45683Y204726D02*
X45687Y204733D01*
X45674Y204714D02*
X45683Y204726D01*
X45665Y204701D02*
X45674Y204714D01*
X45656Y204688D02*
X45665Y204701D01*
X45647Y204675D02*
X45656Y204688D01*
X45638Y204663D02*
X45647Y204675D01*
X45630Y204650D02*
X45638Y204663D01*
X45621Y204637D02*
X45630Y204650D01*
X45613Y204625D02*
X45621Y204637D01*
X45605Y204612D02*
X45613Y204625D01*
X45597Y204599D02*
X45605Y204612D01*
X45589Y204587D02*
X45597Y204599D01*
X45581Y204574D02*
X45589Y204587D01*
X45573Y204562D02*
X45581Y204574D01*
X45565Y204549D02*
X45573Y204562D01*
X45557Y204537D02*
X45565Y204549D01*
X45550Y204524D02*
X45557Y204537D01*
X45543Y204512D02*
X45550Y204524D01*
X45535Y204500D02*
X45543Y204512D01*
X45528Y204487D02*
X45535Y204500D01*
X45521Y204475D02*
X45528Y204487D01*
X45514Y204463D02*
X45521Y204475D01*
X45507Y204450D02*
X45514Y204463D01*
X45500Y204438D02*
X45507Y204450D01*
X45494Y204426D02*
X45500Y204438D01*
X45487Y204414D02*
X45494Y204426D01*
X45481Y204402D02*
X45487Y204414D01*
X45471Y204383D02*
X45481Y204402D01*
X45462Y204365D02*
X45471Y204383D01*
X45452Y204347D02*
X45462Y204365D01*
X45444Y204329D02*
X45452Y204347D01*
X45435Y204311D02*
X45444Y204329D01*
X45426Y204293D02*
X45435Y204311D01*
X45418Y204275D02*
X45426Y204293D01*
X45410Y204257D02*
X45418Y204275D01*
X45402Y204240D02*
X45410Y204257D01*
X45395Y204222D02*
X45402Y204240D01*
X45387Y204204D02*
X45395Y204222D01*
X45380Y204186D02*
X45387Y204204D01*
X45373Y204169D02*
X45380Y204186D01*
X45366Y204151D02*
X45373Y204169D01*
X45360Y204134D02*
X45366Y204151D01*
X45353Y204116D02*
X45360Y204134D01*
X45347Y204099D02*
X45353Y204116D01*
X45339Y204076D02*
X45347Y204099D01*
X45331Y204053D02*
X45339Y204076D01*
X45324Y204030D02*
X45331Y204053D01*
X45317Y204007D02*
X45324Y204030D01*
X45311Y203984D02*
X45317Y204007D01*
X45304Y203961D02*
X45311Y203984D01*
X45297Y203933D02*
X45304Y203961D01*
X45290Y203905D02*
X45297Y203933D01*
X45243Y203442D02*
X45245Y203411D01*
X45246Y203384D01*
X45248Y203358D01*
X45250Y203338D01*
X45252Y203317D01*
X45254Y203296D01*
X45256Y203275D01*
X45259Y203255D01*
X45261Y203239D01*
X45263Y203224D01*
X45266Y203208D01*
X45268Y203193D01*
X45271Y203178D01*
X45273Y203163D01*
X45276Y203147D01*
X45279Y203132D01*
X45282Y203117D01*
X45285Y203102D01*
X45288Y203087D01*
X45292Y203071D01*
X45295Y203056D01*
X45299Y203041D01*
X45301Y203031D01*
X45303Y203021D01*
X45306Y203011D01*
X45309Y203001D01*
X45311Y202991D01*
X45314Y202981D01*
X45316Y202971D01*
X45319Y202961D01*
X45322Y202951D01*
X45325Y202941D01*
X45327Y202931D01*
X45330Y202921D01*
X45333Y202911D01*
X45336Y202902D01*
X45339Y202892D01*
X45342Y202882D01*
X45345Y202872D01*
X45348Y202862D01*
X45351Y202852D01*
X45355Y202842D01*
X45358Y202832D01*
X45361Y202822D01*
X45364Y202813D01*
X45368Y202803D01*
X45371Y202793D01*
X45374Y202783D01*
X45378Y202773D01*
X45381Y202764D01*
X45385Y202754D01*
X45388Y202744D01*
X45392Y202734D01*
X45395Y202725D01*
X45399Y202715D01*
X45402Y202705D01*
X45406Y202695D01*
X45410Y202685D01*
X45413Y202676D01*
X45417Y202666D01*
X45421Y202656D01*
X45425Y202646D01*
X45428Y202637D01*
X45432Y202627D01*
X45436Y202617D01*
X45440Y202608D01*
X45444Y202598D01*
X45448Y202588D01*
X45452Y202579D01*
X45454Y202574D01*
X45456Y202569D01*
X45458Y202564D01*
X45460Y202559D01*
X45462Y202554D01*
X45464Y202550D01*
X45466Y202545D01*
X45468Y202540D01*
X45470Y202535D01*
X45472Y202530D01*
X45474Y202526D01*
X45476Y202521D01*
X45478Y202516D01*
X45480Y202511D01*
X45482Y202506D01*
X45484Y202502D01*
X45486Y202497D01*
X45489Y202492D01*
X45491Y202487D01*
X45493Y202482D01*
X45495Y202477D01*
X45497Y202473D01*
X45499Y202468D01*
X45501Y202463D01*
X45503Y202458D01*
X45505Y202453D01*
X45507Y202449D01*
X45509Y202444D01*
X45512Y202439D01*
X45514Y202434D01*
X45516Y202429D01*
X45518Y202425D01*
X45520Y202420D01*
X45522Y202415D01*
X45524Y202410D01*
X45527Y202405D01*
X45529Y202400D01*
X45531Y202396D01*
X45533Y202391D01*
X45535Y202386D01*
X45537Y202381D01*
X45540Y202377D01*
X45542Y202372D01*
X45544Y202367D01*
X45546Y202362D01*
X45548Y202357D01*
X45551Y202353D01*
X45553Y202348D01*
X45555Y202343D01*
X45557Y202338D01*
X45559Y202333D01*
X45562Y202329D01*
X45564Y202324D01*
X45566Y202319D01*
X45568Y202314D01*
X45571Y202310D01*
X45573Y202305D01*
X45575Y202300D01*
X45577Y202295D01*
X45579Y202290D01*
X45582Y202286D01*
X45584Y202281D01*
X45586Y202276D01*
X45588Y202271D01*
X45591Y202267D01*
X45593Y202262D01*
X45595Y202257D01*
X45597Y202252D01*
X45600Y202248D01*
X45602Y202243D01*
X45604Y202238D01*
X45607Y202233D01*
X45609Y202228D01*
X45611Y202224D01*
X45613Y202219D01*
X45616Y202214D01*
X45618Y202209D01*
X45620Y202204D01*
X45623Y202200D01*
X45625Y202195D01*
X45627Y202190D01*
X45629Y202185D01*
X45632Y202181D01*
X45634Y202176D01*
X45636Y202171D01*
X45638Y202166D01*
X45641Y202162D01*
X45643Y202157D01*
X45645Y202152D01*
X45648Y202147D01*
X45650Y202143D01*
X45652Y202138D01*
X45654Y202133D01*
X45657Y202128D01*
X45659Y202123D01*
X45661Y202119D01*
X45664Y202114D01*
X45666Y202109D01*
X45668Y202104D01*
X45671Y202100D01*
X45673Y202095D01*
X45675Y202090D01*
X45677Y202085D01*
X45680Y202080D01*
X45682Y202076D01*
X45684Y202071D01*
X45687Y202066D01*
X45689Y202061D01*
X45691Y202057D01*
X45693Y202052D01*
X45696Y202047D01*
X45698Y202042D01*
X45700Y202038D01*
X45703Y202033D01*
X45705Y202028D01*
X45707Y202023D01*
X45710Y202018D01*
X45712Y202014D01*
X45714Y202009D01*
X45716Y202004D01*
X45719Y201999D01*
X45721Y201995D01*
X45723Y201990D01*
X45726Y201985D01*
X45728Y201980D01*
X45730Y201976D01*
X45733Y201971D01*
X45735Y201966D01*
X45737Y201961D01*
X45739Y201957D01*
X45742Y201952D01*
X45744Y201947D01*
X45746Y201942D01*
X45748Y201937D01*
X45751Y201933D01*
X45753Y201928D01*
X45755Y201923D01*
X45757Y201918D01*
X45760Y201914D01*
X45762Y201909D01*
X45764Y201904D01*
X45767Y201899D01*
X45769Y201894D01*
X45771Y201890D01*
X45773Y201885D01*
X45776Y201880D01*
X45778Y201875D01*
X45780Y201871D01*
X45782Y201866D01*
X45785Y201861D01*
X45787Y201856D01*
X45789Y201851D01*
X45791Y201847D01*
X45794Y201842D01*
X45796Y201837D01*
X45798Y201832D01*
X45800Y201828D01*
X45803Y201823D01*
X45805Y201818D01*
X45807Y201813D01*
X45809Y201808D01*
X45811Y201803D01*
X45814Y201799D01*
X45816Y201794D01*
X45818Y201789D01*
X45820Y201784D01*
X45822Y201780D01*
X45825Y201775D01*
X45827Y201770D01*
X45829Y201765D01*
X45831Y201760D01*
X45833Y201756D01*
X45836Y201751D01*
X45838Y201746D01*
X45840Y201741D01*
X45842Y201736D01*
X45844Y201732D01*
X45846Y201727D01*
X45849Y201722D01*
X45851Y201717D01*
X45853Y201712D01*
X45855Y201708D01*
X45857Y201703D01*
X45859Y201698D01*
X45861Y201693D01*
X45864Y201688D01*
X45866Y201683D01*
X45868Y201679D01*
X45870Y201674D01*
X45872Y201669D01*
X45874Y201664D01*
X45876Y201659D01*
X45878Y201655D01*
X45880Y201650D01*
X45882Y201645D01*
X45885Y201640D01*
X45887Y201635D01*
X45889Y201630D01*
X45891Y201626D01*
X45893Y201621D01*
X45895Y201616D01*
X45897Y201611D01*
X45899Y201606D01*
X45901Y201602D01*
X45903Y201597D01*
X45905Y201592D01*
X45907Y201587D01*
X45909Y201582D01*
X45911Y201577D01*
X45913Y201572D01*
X45915Y201568D01*
X45919Y201558D01*
X45923Y201548D01*
X45927Y201538D01*
X45931Y201529D01*
X45935Y201519D01*
X45939Y201509D01*
X45943Y201500D01*
X45946Y201490D01*
X45950Y201480D01*
X45954Y201470D01*
X45958Y201461D01*
X45961Y201451D01*
X45965Y201441D01*
X45969Y201431D01*
X45972Y201421D01*
X45976Y201412D01*
X45979Y201402D01*
X45983Y201392D01*
X45987Y201382D01*
X45990Y201372D01*
X45993Y201363D01*
X45997Y201353D01*
X46000Y201343D01*
X46003Y201333D01*
X46007Y201323D01*
X46010Y201313D01*
X46013Y201303D01*
X46016Y201293D01*
X46020Y201284D01*
X46023Y201274D01*
X46026Y201264D01*
X46029Y201254D01*
X46032Y201244D01*
X46035Y201234D01*
X46038Y201224D01*
X46041Y201214D01*
X46044Y201204D01*
X46047Y201194D01*
X46049Y201184D01*
X46052Y201174D01*
X46055Y201164D01*
X46058Y201154D01*
X46060Y201144D01*
X46063Y201134D01*
X46065Y201124D01*
X46068Y201114D01*
X46070Y201104D01*
X46074Y201089D01*
X46077Y201074D01*
X46081Y201058D01*
X46084Y201043D01*
X46087Y201028D01*
X46090Y201013D01*
X46093Y200997D01*
X46096Y200982D01*
X46099Y200967D01*
X46102Y200951D01*
X46104Y200936D01*
X46107Y200921D01*
X46109Y200905D01*
X46111Y200889D01*
X46114Y200869D01*
X46116Y200848D01*
X46119Y200827D01*
X46121Y200806D01*
X46123Y200785D01*
X46125Y200759D01*
X46126Y200733D01*
X46128Y200701D01*
X46129Y200670D01*
X46074Y200191D02*
X46081Y200219D01*
X46066Y200163D02*
X46074Y200191D01*
X46060Y200140D02*
X46066Y200163D01*
X46053Y200117D02*
X46060Y200140D01*
X46046Y200094D02*
X46053Y200117D01*
X46039Y200070D02*
X46046Y200094D01*
X46031Y200047D02*
X46039Y200070D01*
X46025Y200029D02*
X46031Y200047D01*
X46019Y200012D02*
X46025Y200029D01*
X46013Y199994D02*
X46019Y200012D01*
X46006Y199977D02*
X46013Y199994D01*
X45999Y199959D02*
X46006Y199977D01*
X45992Y199941D02*
X45999Y199959D01*
X45985Y199923D02*
X45992Y199941D01*
X45978Y199906D02*
X45985Y199923D01*
X45970Y199888D02*
X45978Y199906D01*
X45962Y199870D02*
X45970Y199888D01*
X45954Y199852D02*
X45962Y199870D01*
X45946Y199834D02*
X45954Y199852D01*
X45937Y199816D02*
X45946Y199834D01*
X45929Y199797D02*
X45937Y199816D01*
X45920Y199779D02*
X45929Y199797D01*
X45911Y199761D02*
X45920Y199779D01*
X45902Y199743D02*
X45911Y199761D01*
X45895Y199730D02*
X45902Y199743D01*
X45889Y199718D02*
X45895Y199730D01*
X45882Y199706D02*
X45889Y199718D01*
X45876Y199694D02*
X45882Y199706D01*
X45869Y199681D02*
X45876Y199694D01*
X45862Y199669D02*
X45869Y199681D01*
X45855Y199656D02*
X45862Y199669D01*
X45848Y199644D02*
X45855Y199656D01*
X45841Y199632D02*
X45848Y199644D01*
X45834Y199619D02*
X45841Y199632D01*
X45826Y199607D02*
X45834Y199619D01*
X45819Y199594D02*
X45826Y199607D01*
X45812Y199582D02*
X45819Y199594D01*
X45804Y199569D02*
X45812Y199582D01*
X45796Y199556D02*
X45804Y199569D01*
X45788Y199544D02*
X45796Y199556D01*
X45780Y199531D02*
X45788Y199544D01*
X45772Y199518D02*
X45780Y199531D01*
X45764Y199506D02*
X45772Y199518D01*
X45756Y199493D02*
X45764Y199506D01*
X45747Y199480D02*
X45756Y199493D01*
X45739Y199468D02*
X45747Y199480D01*
X45730Y199455D02*
X45739Y199468D01*
X45722Y199442D02*
X45730Y199455D01*
X45713Y199429D02*
X45722Y199442D01*
X45699Y199410D02*
X45713Y199429D01*
X39875Y196964D02*
X54892D01*
X39507Y197599D02*
X47016Y210606D01*
X47751D02*
X55260Y197599D01*
X47362Y211030D02*
X47372Y211030D01*
X47849Y210830D02*
X47887Y210765D01*
X47941Y210674D01*
X47994Y210583D01*
X48039Y210505D01*
X48085Y210427D01*
X48131Y210349D01*
X48176Y210271D01*
X48222Y210193D01*
X48267Y210115D01*
X48313Y210037D01*
X48359Y209959D01*
X48404Y209881D01*
X48450Y209803D01*
X48495Y209725D01*
X48541Y209647D01*
X48586Y209569D01*
X48632Y209491D01*
X48677Y209413D01*
X48723Y209335D01*
X48768Y209257D01*
X48806Y209192D01*
X48844Y209127D01*
X48882Y209062D01*
X48920Y208996D01*
X48958Y208931D01*
X48996Y208866D01*
X49033Y208801D01*
X49071Y208736D01*
X49109Y208671D01*
X49147Y208606D01*
X49185Y208541D01*
X49223Y208476D01*
X49260Y208411D01*
X49298Y208346D01*
X49336Y208280D01*
X49374Y208215D01*
X49412Y208150D01*
X49449Y208085D01*
X49487Y208020D01*
X49525Y207955D01*
X49555Y207903D01*
X49585Y207851D01*
X49616Y207799D01*
X49646Y207747D01*
X49676Y207695D01*
X49706Y207642D01*
X49736Y207590D01*
X49767Y207538D01*
X49797Y207486D01*
X49827Y207434D01*
X49857Y207382D01*
X49887Y207330D01*
X49918Y207278D01*
X49948Y207225D01*
X49978Y207173D01*
X50008Y207121D01*
X50038Y207069D01*
X50068Y207017D01*
X50099Y206965D01*
X50129Y206913D01*
X50159Y206861D01*
X50189Y206808D01*
X50219Y206756D01*
X50249Y206704D01*
X50280Y206652D01*
X50302Y206613D01*
X50325Y206574D01*
X50348Y206535D01*
X50370Y206496D01*
X50393Y206456D01*
X50415Y206417D01*
X50438Y206378D01*
X50461Y206339D01*
X50483Y206300D01*
X50506Y206261D01*
X50528Y206222D01*
X50551Y206183D01*
X50574Y206144D01*
X50596Y206104D01*
X50619Y206065D01*
X50641Y206026D01*
X50664Y205987D01*
X50687Y205948D01*
X50709Y205909D01*
X50732Y205870D01*
X50754Y205831D01*
X50777Y205792D01*
X50800Y205752D01*
X50822Y205713D01*
X50845Y205674D01*
X50867Y205635D01*
X50890Y205596D01*
X50912Y205557D01*
X50935Y205518D01*
X50958Y205479D01*
X50980Y205439D01*
X51003Y205400D01*
X51025Y205361D01*
X51048Y205322D01*
X51063Y205296D01*
X51078Y205270D01*
X51093Y205244D01*
X51108Y205218D01*
X51123Y205192D01*
X51138Y205166D01*
X51153Y205139D01*
X51168Y205113D01*
X51183Y205087D01*
X51199Y205061D01*
X51214Y205035D01*
X51229Y205009D01*
X51244Y204983D01*
X51259Y204957D01*
X51274Y204931D01*
X51289Y204905D01*
X51304Y204879D01*
X51319Y204853D01*
X51334Y204826D01*
X51349Y204800D01*
X51364Y204774D01*
X51379Y204748D01*
X51394Y204722D01*
X51409Y204696D01*
X51424Y204670D01*
X51439Y204644D01*
X51454Y204618D01*
X51469Y204592D01*
X51484Y204566D01*
X51499Y204539D01*
X51514Y204513D01*
X51529Y204487D01*
X51544Y204461D01*
X51560Y204435D01*
X51575Y204409D01*
X51590Y204383D01*
X51605Y204357D01*
X51620Y204331D01*
X51635Y204305D01*
X51650Y204278D01*
X51665Y204252D01*
X51680Y204226D01*
X51695Y204200D01*
X51710Y204174D01*
X51725Y204148D01*
X51740Y204122D01*
X51755Y204096D01*
X51770Y204070D01*
X51785Y204044D01*
X51800Y204018D01*
X51808Y204005D01*
X51815Y203992D01*
X51823Y203978D01*
X51830Y203965D01*
X51838Y203952D01*
X51845Y203939D01*
X51853Y203926D01*
X51860Y203913D01*
X51868Y203900D01*
X51875Y203887D01*
X51883Y203874D01*
X51890Y203861D01*
X51898Y203848D01*
X51905Y203835D01*
X51913Y203822D01*
X51920Y203809D01*
X51928Y203796D01*
X51935Y203783D01*
X51943Y203770D01*
X51951Y203757D01*
X51958Y203744D01*
X51966Y203731D01*
X51973Y203717D01*
X51981Y203704D01*
X51988Y203691D01*
X51996Y203678D01*
X52003Y203665D01*
X52011Y203652D01*
X52018Y203639D01*
X52026Y203626D01*
X52033Y203613D01*
X52041Y203600D01*
X52048Y203587D01*
X52056Y203574D01*
X52063Y203561D01*
X52071Y203548D01*
X52078Y203535D01*
X52086Y203522D01*
X52093Y203509D01*
X52101Y203496D01*
X52108Y203483D01*
X52116Y203470D01*
X52123Y203456D01*
X52131Y203444D01*
X52139Y203430D01*
X52146Y203417D01*
X52153Y203404D01*
X52161Y203391D01*
X52169Y203378D01*
X52176Y203365D01*
X52184Y203352D01*
X52191Y203339D01*
X52199Y203326D01*
X52206Y203313D01*
X52214Y203300D01*
X52221Y203287D01*
X52229Y203274D01*
X52236Y203261D01*
X52244Y203248D01*
X52251Y203235D01*
X52259Y203222D01*
X52266Y203209D01*
X52274Y203196D01*
X52281Y203183D01*
X52289Y203169D01*
X52296Y203156D01*
X52304Y203143D01*
X52311Y203130D01*
X52319Y203117D01*
X52326Y203104D01*
X52334Y203091D01*
X52341Y203078D01*
X52349Y203065D01*
X52356Y203052D01*
X52364Y203039D01*
X52372Y203026D01*
X52379Y203013D01*
X52386Y203000D01*
X52394Y202987D01*
X52402Y202974D01*
X52409Y202961D01*
X52417Y202948D01*
X52424Y202935D01*
X52432Y202922D01*
X52439Y202908D01*
X52447Y202895D01*
X52454Y202882D01*
X52462Y202869D01*
X52469Y202856D01*
X52477Y202843D01*
X52484Y202830D01*
X52492Y202817D01*
X52499Y202804D01*
X52507Y202791D01*
X52514Y202778D01*
X52522Y202765D01*
X52529Y202752D01*
X52537Y202739D01*
X52544Y202726D01*
X52552Y202713D01*
X52559Y202700D01*
X52567Y202687D01*
X52574Y202674D01*
X52582Y202660D01*
X52589Y202647D01*
X52597Y202634D01*
X52605Y202621D01*
X52612Y202608D01*
X52619Y202595D01*
X52627Y202582D01*
X52635Y202569D01*
X52642Y202556D01*
X52650Y202543D01*
X52657Y202530D01*
X52665Y202517D01*
X52672Y202504D01*
X52680Y202491D01*
X52687Y202478D01*
X52695Y202465D01*
X52702Y202452D01*
X52710Y202439D01*
X52717Y202426D01*
X52725Y202413D01*
X52732Y202400D01*
X52740Y202386D01*
X52747Y202374D01*
X52755Y202360D01*
X52762Y202347D01*
X52770Y202334D01*
X52777Y202321D01*
X52785Y202308D01*
X52792Y202295D01*
X52800Y202282D01*
X52807Y202269D01*
X52815Y202256D01*
X52822Y202243D01*
X52830Y202230D01*
X52838Y202217D01*
X52845Y202204D01*
X52852Y202191D01*
X52860Y202178D01*
X52868Y202165D01*
X52875Y202152D01*
X52883Y202139D01*
X52890Y202126D01*
X52898Y202113D01*
X52905Y202099D01*
X52913Y202086D01*
X52920Y202073D01*
X52928Y202060D01*
X52935Y202047D01*
X52943Y202034D01*
X52950Y202021D01*
X52958Y202008D01*
X52965Y201995D01*
X52973Y201982D01*
X52980Y201969D01*
X52988Y201956D01*
X52995Y201943D01*
X53003Y201930D01*
X53010Y201917D01*
X53018Y201904D01*
X53025Y201891D01*
X53033Y201878D01*
X53040Y201865D01*
X53048Y201852D01*
X53056Y201838D01*
X53063Y201825D01*
X53070Y201812D01*
X53078Y201799D01*
X53086Y201786D01*
X53093Y201773D01*
X53101Y201760D01*
X53108Y201747D01*
X53116Y201734D01*
X53123Y201721D01*
X53131Y201708D01*
X53138Y201695D01*
X53146Y201682D01*
X53153Y201669D01*
X53161Y201656D01*
X53168Y201643D01*
X53176Y201630D01*
X53183Y201617D01*
X53191Y201604D01*
X53198Y201591D01*
X53206Y201577D01*
X53213Y201565D01*
X53221Y201551D01*
X53228Y201538D01*
X53236Y201525D01*
X53243Y201512D01*
X53251Y201499D01*
X53258Y201486D01*
X53266Y201473D01*
X53273Y201460D01*
X53281Y201447D01*
X53289Y201434D01*
X53296Y201421D01*
X53304Y201408D01*
X53319Y201382D01*
X53334Y201356D01*
X53349Y201330D01*
X53364Y201304D01*
X53379Y201277D01*
X53394Y201251D01*
X53409Y201225D01*
X53424Y201199D01*
X53439Y201173D01*
X53454Y201147D01*
X53469Y201121D01*
X53484Y201095D01*
X53499Y201069D01*
X53514Y201043D01*
X53529Y201016D01*
X53544Y200990D01*
X53559Y200964D01*
X53574Y200938D01*
X53589Y200912D01*
X53604Y200886D01*
X53619Y200860D01*
X53634Y200834D01*
X53649Y200808D01*
X53664Y200782D01*
X53680Y200756D01*
X53695Y200729D01*
X53710Y200703D01*
X53725Y200677D01*
X53740Y200651D01*
X53755Y200625D01*
X53770Y200599D01*
X53785Y200573D01*
X53800Y200547D01*
X53815Y200521D01*
X53830Y200495D01*
X53845Y200469D01*
X53860Y200443D01*
X53875Y200416D01*
X53890Y200390D01*
X53905Y200364D01*
X53920Y200338D01*
X53935Y200312D01*
X53950Y200286D01*
X53965Y200260D01*
X53980Y200234D01*
X53996Y200208D01*
X54011Y200182D01*
X54026Y200156D01*
X54041Y200130D01*
X54063Y200090D01*
X54086Y200051D01*
X54108Y200012D01*
X54131Y199973D01*
X54154Y199934D01*
X54176Y199895D01*
X54199Y199856D01*
X54221Y199817D01*
X54244Y199777D01*
X54267Y199738D01*
X54289Y199699D01*
X54312Y199660D01*
X54334Y199621D01*
X54357Y199582D01*
X54379Y199543D01*
X54402Y199504D01*
X54425Y199464D01*
X54447Y199425D01*
X54470Y199386D01*
X54492Y199347D01*
X54515Y199308D01*
X54538Y199269D01*
X54560Y199230D01*
X54583Y199191D01*
X54605Y199152D01*
X54628Y199112D01*
X54651Y199073D01*
X54673Y199034D01*
X54696Y198995D01*
X54719Y198956D01*
X54741Y198917D01*
X54764Y198878D01*
X54786Y198839D01*
X54809Y198800D01*
X54839Y198747D01*
X54869Y198695D01*
X54899Y198643D01*
X54930Y198591D01*
X54960Y198539D01*
X54990Y198487D01*
X55020Y198435D01*
X55050Y198382D01*
X55080Y198330D01*
X55111Y198278D01*
X55141Y198226D01*
X55171Y198174D01*
X55201Y198122D01*
X55231Y198070D01*
X55261Y198018D01*
X55292Y197966D01*
X55322Y197913D01*
X55352Y197861D01*
X55390Y197796D01*
X55021Y196766D02*
X55036Y196766D01*
X54916Y196765D02*
X55021Y196766D01*
X54810Y196765D02*
X54916Y196765D01*
X54705Y196764D02*
X54810Y196765D01*
X54600Y196764D02*
X54705Y196764D01*
X54509Y196763D02*
X54600Y196764D01*
X54419Y196763D02*
X54509Y196763D01*
X54329Y196762D02*
X54419Y196763D01*
X54238Y196762D02*
X54329Y196762D01*
X54148Y196761D02*
X54238Y196762D01*
X54058Y196761D02*
X54148Y196761D01*
X53968Y196761D02*
X54058Y196761D01*
X53877Y196760D02*
X53968Y196761D01*
X53787Y196760D02*
X53877Y196760D01*
X53697Y196759D02*
X53787Y196760D01*
X53606Y196759D02*
X53697Y196759D01*
X53516Y196759D02*
X53606Y196759D01*
X53426Y196758D02*
X53516Y196759D01*
X53336Y196758D02*
X53426Y196758D01*
X53245Y196758D02*
X53336Y196758D01*
X53155Y196757D02*
X53245Y196758D01*
X53065Y196757D02*
X53155Y196757D01*
X52990Y196757D02*
X53065Y196757D01*
X52914Y196756D02*
X52990Y196757D01*
X52839Y196756D02*
X52914Y196756D01*
X52764Y196756D02*
X52839Y196756D01*
X52688Y196756D02*
X52764Y196756D01*
X52613Y196756D02*
X52688Y196756D01*
X52538Y196755D02*
X52613Y196756D01*
X52463Y196755D02*
X52538Y196755D01*
X52387Y196755D02*
X52463Y196755D01*
X52312Y196755D02*
X52387Y196755D01*
X52237Y196755D02*
X52312Y196755D01*
X52162Y196754D02*
X52237Y196755D01*
X52087Y196754D02*
X52162Y196754D01*
X52011Y196754D02*
X52087Y196754D01*
X51936Y196754D02*
X52011Y196754D01*
X51861Y196754D02*
X51936Y196754D01*
X51785Y196754D02*
X51861Y196754D01*
X51710Y196753D02*
X51785Y196754D01*
X51635Y196753D02*
X51710Y196753D01*
X51560Y196753D02*
X51635Y196753D01*
X51500Y196753D02*
X51560Y196753D01*
X51439Y196753D02*
X51500Y196753D01*
X51379Y196753D02*
X51439Y196753D01*
X51319Y196753D02*
X51379Y196753D01*
X51259Y196753D02*
X51319Y196753D01*
X51199Y196752D02*
X51259Y196753D01*
X51138Y196752D02*
X51199Y196752D01*
X51078Y196752D02*
X51138Y196752D01*
X51018Y196752D02*
X51078Y196752D01*
X50958Y196752D02*
X51018Y196752D01*
X50898Y196752D02*
X50958Y196752D01*
X50837Y196752D02*
X50898Y196752D01*
X50777Y196752D02*
X50837Y196752D01*
X50717Y196752D02*
X50777Y196752D01*
X50657Y196752D02*
X50717Y196752D01*
X50597Y196752D02*
X50657Y196752D01*
X50536Y196752D02*
X50597Y196752D01*
X50476Y196751D02*
X50536Y196752D01*
X50416Y196751D02*
X50476Y196751D01*
X50356Y196751D02*
X50416Y196751D01*
X50296Y196751D02*
X50356Y196751D01*
X50235Y196751D02*
X50296Y196751D01*
X50175Y196751D02*
X50235Y196751D01*
X50115Y196751D02*
X50175Y196751D01*
X50055Y196751D02*
X50115Y196751D01*
X50010Y196751D02*
X50055Y196751D01*
X49964Y196751D02*
X50010Y196751D01*
X49919Y196751D02*
X49964Y196751D01*
X49874Y196751D02*
X49919Y196751D01*
X49829Y196751D02*
X49874Y196751D01*
X49784Y196751D02*
X49829Y196751D01*
X49739Y196751D02*
X49784Y196751D01*
X49694Y196751D02*
X49739Y196751D01*
X49648Y196751D02*
X49694Y196751D01*
X49603Y196751D02*
X49648Y196751D01*
X49558Y196751D02*
X49603Y196751D01*
X49513Y196751D02*
X49558Y196751D01*
X49468Y196751D02*
X49513Y196751D01*
X49423Y196751D02*
X49468Y196751D01*
X49378Y196751D02*
X49423Y196751D01*
X49332Y196751D02*
X49378Y196751D01*
X49287Y196751D02*
X49332Y196751D01*
X49242Y196751D02*
X49287Y196751D01*
X49197Y196751D02*
X49242Y196751D01*
X49152Y196751D02*
X49197D01*
X49107Y196751D02*
X49152Y196751D01*
X49062Y196751D02*
X49107Y196751D01*
X49016Y196751D02*
X49062D01*
X48971Y196751D02*
X49016Y196751D01*
X48926Y196751D02*
X48971D01*
X48881D02*
X48926D01*
X48836D02*
X48881D01*
X48791D02*
X48836D01*
X48746D02*
X48791D01*
X48700D02*
X48746D01*
X48655Y196751D02*
X48700Y196751D01*
X48610Y196751D02*
X48655D01*
X48565Y196751D02*
X48610Y196751D01*
X48520Y196751D02*
X48565D01*
X48490Y196751D02*
X48520Y196751D01*
X48460Y196751D02*
X48490D01*
X48429Y196751D02*
X48460Y196751D01*
X48399Y196751D02*
X48429D01*
X48369Y196751D02*
X48399Y196751D01*
X48339Y196751D02*
X48369Y196751D01*
X48309Y196751D02*
X48339D01*
X48279Y196751D02*
X48309Y196751D01*
X48249Y196751D02*
X48279Y196751D01*
X48219Y196751D02*
X48249Y196751D01*
X48189Y196751D02*
X48219Y196751D01*
X48158Y196751D02*
X48189Y196751D01*
X48128Y196751D02*
X48158D01*
X48098Y196751D02*
X48128Y196751D01*
X48068Y196751D02*
X48098Y196751D01*
X48038Y196751D02*
X48068Y196751D01*
X48008Y196751D02*
X48038Y196751D01*
X47978Y196751D02*
X48008Y196751D01*
X47948Y196751D02*
X47978Y196751D01*
X47918Y196751D02*
X47948Y196751D01*
X47888Y196751D02*
X47918Y196751D01*
X47857Y196751D02*
X47888Y196751D01*
X47827Y196751D02*
X47857Y196751D01*
X47797Y196751D02*
X47827Y196751D01*
X47767Y196751D02*
X47797Y196751D01*
X47737Y196751D02*
X47767Y196751D01*
X47707Y196751D02*
X47737Y196751D01*
X47677Y196751D02*
X47707Y196751D01*
X47647Y196751D02*
X47677Y196751D01*
X47617Y196751D02*
X47647Y196751D01*
X47587Y196751D02*
X47617Y196751D01*
X47556Y196751D02*
X47587Y196751D01*
X47526Y196751D02*
X47556Y196751D01*
X47496Y196751D02*
X47526Y196751D01*
X47466Y196751D02*
X47496Y196751D01*
X47436Y196751D02*
X47466Y196751D01*
X47406Y196751D02*
X47436Y196751D01*
X47376Y196751D02*
X47406Y196751D01*
X47346Y196751D02*
X47376Y196751D01*
X47316Y196751D02*
X47346Y196751D01*
X47286Y196751D02*
X47316Y196751D01*
X47256Y196751D02*
X47286Y196751D01*
X47225Y196751D02*
X47256Y196751D01*
X47195Y196751D02*
X47225Y196751D01*
X47165Y196751D02*
X47195Y196751D01*
X47135Y196751D02*
X47165Y196751D01*
X47105Y196751D02*
X47135Y196751D01*
X47075Y196751D02*
X47105Y196751D01*
X47045Y196751D02*
X47075Y196751D01*
X47015Y196751D02*
X47045Y196751D01*
X47000Y196751D02*
X47015Y196751D01*
X46985Y196751D02*
X47000Y196751D01*
X46970Y196751D02*
X46985Y196751D01*
X46955Y196751D02*
X46970Y196751D01*
X46939Y196751D02*
X46955Y196751D01*
X46924Y196751D02*
X46939Y196751D01*
X46909Y196751D02*
X46924Y196751D01*
X46894Y196751D02*
X46909Y196751D01*
X46879Y196751D02*
X46894Y196751D01*
X46864Y196751D02*
X46879Y196751D01*
X46849Y196751D02*
X46864Y196751D01*
X46834Y196751D02*
X46849Y196751D01*
X46819Y196751D02*
X46834Y196751D01*
X46804Y196751D02*
X46819Y196751D01*
X46789Y196751D02*
X46804Y196751D01*
X46774Y196752D02*
X46789Y196751D01*
X46759Y196752D02*
X46774Y196752D01*
X46744Y196752D02*
X46759Y196752D01*
X46729Y196752D02*
X46744Y196752D01*
X46714Y196752D02*
X46729Y196752D01*
X46699Y196752D02*
X46714Y196752D01*
X46684Y196752D02*
X46699Y196752D01*
X46668Y196752D02*
X46684Y196752D01*
X46653Y196752D02*
X46668Y196752D01*
X46638Y196752D02*
X46653Y196752D01*
X46623Y196752D02*
X46638Y196752D01*
X46608Y196752D02*
X46623Y196752D01*
X46593Y196752D02*
X46608Y196752D01*
X46578Y196752D02*
X46593Y196752D01*
X46563Y196752D02*
X46578Y196752D01*
X46548Y196752D02*
X46563Y196752D01*
X46533Y196752D02*
X46548Y196752D01*
X46518Y196752D02*
X46533Y196752D01*
X46503Y196752D02*
X46518Y196752D01*
X46488Y196752D02*
X46503Y196752D01*
X46473Y196752D02*
X46488Y196752D01*
X46458Y196752D02*
X46473Y196752D01*
X46443Y196752D02*
X46458Y196752D01*
X46428Y196752D02*
X46443Y196752D01*
X46413Y196752D02*
X46428Y196752D01*
X46398Y196752D02*
X46413Y196752D01*
X46382Y196752D02*
X46398Y196752D01*
X46367Y196752D02*
X46382Y196752D01*
X46352Y196752D02*
X46367Y196752D01*
X46337Y196752D02*
X46352Y196752D01*
X46322Y196752D02*
X46337Y196752D01*
X46307Y196752D02*
X46322Y196752D01*
X46292Y196752D02*
X46307Y196752D01*
X46277Y196752D02*
X46292Y196752D01*
X46262Y196752D02*
X46277Y196752D01*
X46247Y196752D02*
X46262Y196752D01*
X46232Y196752D02*
X46247Y196752D01*
X46217Y196752D02*
X46232Y196752D01*
X46202Y196752D02*
X46217Y196752D01*
X46187Y196752D02*
X46202Y196752D01*
X46172Y196752D02*
X46187Y196752D01*
X46157Y196752D02*
X46172Y196752D01*
X46142Y196752D02*
X46157Y196752D01*
X46127Y196752D02*
X46142Y196752D01*
X46112Y196752D02*
X46127Y196752D01*
X46097Y196752D02*
X46112Y196752D01*
X46082Y196752D02*
X46097Y196752D01*
X46066Y196752D02*
X46082Y196752D01*
X46051Y196752D02*
X46066Y196752D01*
X46036Y196752D02*
X46051Y196752D01*
X46021Y196752D02*
X46036Y196752D01*
X46006Y196752D02*
X46021Y196752D01*
X45991Y196752D02*
X46006Y196752D01*
X45976Y196752D02*
X45991Y196752D01*
X45961Y196752D02*
X45976Y196752D01*
X45946Y196752D02*
X45961Y196752D01*
X45931Y196752D02*
X45946Y196752D01*
X45916Y196752D02*
X45931Y196752D01*
X45901Y196752D02*
X45916Y196752D01*
X45886Y196752D02*
X45901Y196752D01*
X45871Y196752D02*
X45886Y196752D01*
X45856Y196752D02*
X45871Y196752D01*
X45841Y196752D02*
X45856Y196752D01*
X45826Y196752D02*
X45841Y196752D01*
X45811Y196752D02*
X45826Y196752D01*
X45796Y196752D02*
X45811Y196752D01*
X45781Y196752D02*
X45796Y196752D01*
X45766Y196752D02*
X45781Y196752D01*
X45750Y196752D02*
X45766Y196752D01*
X45735Y196752D02*
X45750Y196752D01*
X45720Y196752D02*
X45735Y196752D01*
X45705Y196752D02*
X45720Y196752D01*
X45690Y196752D02*
X45705Y196752D01*
X45675Y196752D02*
X45690Y196752D01*
X45660Y196752D02*
X45675Y196752D01*
X45645Y196752D02*
X45660Y196752D01*
X45630Y196752D02*
X45645Y196752D01*
X45615Y196753D02*
X45630Y196752D01*
X45600Y196753D02*
X45615Y196753D01*
X45585Y196753D02*
X45600Y196753D01*
X45570Y196753D02*
X45585Y196753D01*
X45555Y196753D02*
X45570Y196753D01*
X45540Y196753D02*
X45555Y196753D01*
X45525Y196753D02*
X45540Y196753D01*
X45510Y196753D02*
X45525Y196753D01*
X45495Y196753D02*
X45510Y196753D01*
X45480Y196753D02*
X45495Y196753D01*
X45464Y196753D02*
X45480Y196753D01*
X45449Y196753D02*
X45464Y196753D01*
X45434Y196753D02*
X45449Y196753D01*
X45419Y196753D02*
X45434Y196753D01*
X45404Y196753D02*
X45419Y196753D01*
X45389Y196753D02*
X45404Y196753D01*
X45374Y196753D02*
X45389Y196753D01*
X45359Y196753D02*
X45374Y196753D01*
X45344Y196753D02*
X45359Y196753D01*
X45329Y196753D02*
X45344Y196753D01*
X45314Y196753D02*
X45329Y196753D01*
X45299Y196753D02*
X45314Y196753D01*
X45284Y196753D02*
X45299Y196753D01*
X45269Y196753D02*
X45284Y196753D01*
X45254Y196753D02*
X45269Y196753D01*
X45239Y196753D02*
X45254Y196753D01*
X45224Y196753D02*
X45239Y196753D01*
X45209Y196753D02*
X45224Y196753D01*
X45193Y196753D02*
X45209Y196753D01*
X45178Y196753D02*
X45193Y196753D01*
X45163Y196753D02*
X45178Y196753D01*
X45148Y196753D02*
X45163Y196753D01*
X45133Y196753D02*
X45148Y196753D01*
X45118Y196753D02*
X45133Y196753D01*
X45103Y196753D02*
X45118Y196753D01*
X45088Y196753D02*
X45103Y196753D01*
X45073Y196753D02*
X45088Y196753D01*
X45058Y196753D02*
X45073Y196753D01*
X45043Y196753D02*
X45058Y196753D01*
X45028Y196753D02*
X45043Y196753D01*
X45013Y196753D02*
X45028Y196753D01*
X44998Y196753D02*
X45013Y196753D01*
X44983Y196753D02*
X44998Y196753D01*
X44968Y196753D02*
X44983Y196753D01*
X44953Y196753D02*
X44968Y196753D01*
X44938Y196753D02*
X44953Y196753D01*
X44923Y196753D02*
X44938Y196753D01*
X44908Y196753D02*
X44923Y196753D01*
X44892Y196753D02*
X44908Y196753D01*
X44877Y196753D02*
X44892Y196753D01*
X44862Y196753D02*
X44877Y196753D01*
X44847Y196753D02*
X44862Y196753D01*
X44832Y196753D02*
X44847Y196753D01*
X44817Y196753D02*
X44832Y196753D01*
X44802Y196753D02*
X44817Y196753D01*
X44787Y196753D02*
X44802Y196753D01*
X44772Y196753D02*
X44787Y196753D01*
X44757Y196753D02*
X44772Y196753D01*
X44742Y196753D02*
X44757Y196753D01*
X44727Y196753D02*
X44742Y196753D01*
X44712Y196753D02*
X44727Y196753D01*
X44697Y196753D02*
X44712Y196753D01*
X44682Y196753D02*
X44697Y196753D01*
X44667Y196753D02*
X44682Y196753D01*
X44652Y196753D02*
X44667Y196753D01*
X44637Y196753D02*
X44652Y196753D01*
X44622Y196753D02*
X44637Y196753D01*
X44607Y196753D02*
X44622Y196753D01*
X44592Y196753D02*
X44607Y196753D01*
X44576Y196753D02*
X44592Y196753D01*
X44561Y196753D02*
X44576Y196753D01*
X44546Y196753D02*
X44561Y196753D01*
X44531Y196753D02*
X44546Y196753D01*
X44516Y196753D02*
X44531Y196753D01*
X44501Y196753D02*
X44516Y196753D01*
X44486Y196753D02*
X44501Y196753D01*
X44471Y196753D02*
X44486Y196753D01*
X44456Y196753D02*
X44471Y196753D01*
X44441Y196753D02*
X44456Y196753D01*
X44426Y196753D02*
X44441Y196753D01*
X44411Y196753D02*
X44426Y196753D01*
X44396Y196753D02*
X44411Y196753D01*
X44381Y196753D02*
X44396Y196753D01*
X44366Y196754D02*
X44381Y196753D01*
X44351Y196754D02*
X44366Y196754D01*
X44336Y196754D02*
X44351Y196754D01*
X44321Y196754D02*
X44336Y196754D01*
X44306Y196754D02*
X44321Y196754D01*
X44291Y196754D02*
X44306Y196754D01*
X44276Y196754D02*
X44291Y196754D01*
X44260Y196754D02*
X44276Y196754D01*
X44245Y196754D02*
X44260Y196754D01*
X44230Y196754D02*
X44245Y196754D01*
X44215Y196754D02*
X44230Y196754D01*
X44200Y196754D02*
X44215Y196754D01*
X44185Y196754D02*
X44200Y196754D01*
X44170Y196754D02*
X44185Y196754D01*
X44155Y196754D02*
X44170Y196754D01*
X44140Y196754D02*
X44155Y196754D01*
X44125Y196754D02*
X44140Y196754D01*
X44110Y196754D02*
X44125Y196754D01*
X44095Y196754D02*
X44110Y196754D01*
X44080Y196754D02*
X44095Y196754D01*
X44065Y196754D02*
X44080Y196754D01*
X44050Y196754D02*
X44065Y196754D01*
X44035Y196754D02*
X44050Y196754D01*
X44020Y196754D02*
X44035Y196754D01*
X43990Y196754D02*
X44020Y196754D01*
X43959Y196754D02*
X43990Y196754D01*
X43929Y196754D02*
X43959Y196754D01*
X43899Y196754D02*
X43929Y196754D01*
X43869Y196754D02*
X43899Y196754D01*
X43839Y196754D02*
X43869Y196754D01*
X43809Y196754D02*
X43839Y196754D01*
X43779Y196754D02*
X43809Y196754D01*
X43749Y196754D02*
X43779Y196754D01*
X43719Y196754D02*
X43749Y196754D01*
X43688Y196754D02*
X43719Y196754D01*
X43658Y196754D02*
X43688Y196754D01*
X43628Y196754D02*
X43658Y196754D01*
X43598Y196754D02*
X43628Y196754D01*
X43568Y196754D02*
X43598Y196754D01*
X43538Y196754D02*
X43568Y196754D01*
X43508Y196754D02*
X43538Y196754D01*
X43478Y196754D02*
X43508Y196754D01*
X43448Y196754D02*
X43478Y196754D01*
X43418Y196754D02*
X43448Y196754D01*
X43387Y196754D02*
X43418Y196754D01*
X43357Y196754D02*
X43387Y196754D01*
X43327Y196754D02*
X43357Y196754D01*
X43297Y196754D02*
X43327Y196754D01*
X43267Y196754D02*
X43297Y196754D01*
X43237Y196754D02*
X43267Y196754D01*
X43207Y196754D02*
X43237Y196754D01*
X43177Y196754D02*
X43207Y196754D01*
X43147Y196754D02*
X43177Y196754D01*
X43117Y196754D02*
X43147Y196754D01*
X43086Y196754D02*
X43117Y196754D01*
X43056Y196754D02*
X43086Y196754D01*
X43026Y196754D02*
X43056Y196754D01*
X42996Y196754D02*
X43026Y196754D01*
X42966Y196754D02*
X42996Y196754D01*
X42936Y196754D02*
X42966Y196754D01*
X42906Y196754D02*
X42936Y196754D01*
X42876Y196754D02*
X42906Y196754D01*
X42846Y196754D02*
X42876Y196754D01*
X42816Y196754D02*
X42846Y196754D01*
X42786Y196754D02*
X42816Y196754D01*
X42755Y196754D02*
X42786Y196754D01*
X42725Y196754D02*
X42755Y196754D01*
X42695Y196754D02*
X42725D01*
X42665Y196754D02*
X42695Y196754D01*
X42635Y196754D02*
X42665Y196754D01*
X42605Y196754D02*
X42635D01*
X42575Y196754D02*
X42605Y196754D01*
X42545Y196754D02*
X42575D01*
X42515Y196754D02*
X42545Y196754D01*
X42469Y196754D02*
X42515Y196754D01*
X42424Y196754D02*
X42469D01*
X42379Y196754D02*
X42424Y196754D01*
X42334Y196754D02*
X42379D01*
X42289D02*
X42334D01*
X42244Y196754D02*
X42289Y196754D01*
X42199Y196754D02*
X42244D01*
X42153D02*
X42199D01*
X42108D02*
X42153D01*
X42063Y196754D02*
X42108Y196754D01*
X42018Y196754D02*
X42063D01*
X41973D02*
X42018D01*
X41928Y196754D02*
X41973Y196754D01*
X41883Y196754D02*
X41928D01*
X41837Y196754D02*
X41883Y196754D01*
X41792Y196754D02*
X41837Y196754D01*
X41747Y196754D02*
X41792Y196754D01*
X41702Y196754D02*
X41747Y196754D01*
X41657Y196754D02*
X41702Y196754D01*
X41611Y196754D02*
X41657Y196754D01*
X41566Y196754D02*
X41611Y196754D01*
X41521Y196754D02*
X41566Y196754D01*
X41476Y196754D02*
X41521Y196754D01*
X41431Y196754D02*
X41476Y196754D01*
X41386Y196754D02*
X41431Y196754D01*
X41341Y196754D02*
X41386Y196754D01*
X41295Y196754D02*
X41341Y196754D01*
X41250Y196754D02*
X41295Y196754D01*
X41205Y196754D02*
X41250Y196754D01*
X41160Y196754D02*
X41205Y196754D01*
X41115Y196754D02*
X41160Y196754D01*
X41070Y196754D02*
X41115Y196754D01*
X41025Y196754D02*
X41070Y196754D01*
X40964Y196754D02*
X41025Y196754D01*
X40904Y196754D02*
X40964Y196754D01*
X40844Y196754D02*
X40904Y196754D01*
X40784Y196754D02*
X40844Y196754D01*
X40724Y196754D02*
X40784Y196754D01*
X40663Y196754D02*
X40724Y196754D01*
X40603Y196754D02*
X40663Y196754D01*
X40543Y196754D02*
X40603Y196754D01*
X40483Y196754D02*
X40543Y196754D01*
X40423Y196754D02*
X40483Y196754D01*
X40362Y196753D02*
X40423Y196754D01*
X40302Y196753D02*
X40362Y196753D01*
X40242Y196753D02*
X40302Y196753D01*
X40182Y196753D02*
X40242Y196753D01*
X40122Y196753D02*
X40182Y196753D01*
X40061Y196753D02*
X40122Y196753D01*
X39986Y196753D02*
X40061Y196753D01*
X39263Y197574D02*
X39307Y197651D01*
X39359Y197741D01*
X39402Y197818D01*
X39446Y197895D01*
X39490Y197972D01*
X39534Y198049D01*
X39578Y198126D01*
X39622Y198203D01*
X39666Y198280D01*
X39710Y198357D01*
X39754Y198434D01*
X39798Y198511D01*
X39842Y198588D01*
X39886Y198665D01*
X39930Y198742D01*
X39974Y198819D01*
X40018Y198896D01*
X40062Y198973D01*
X40106Y199050D01*
X40143Y199114D01*
X40179Y199178D01*
X40216Y199242D01*
X40253Y199306D01*
X40290Y199370D01*
X40326Y199434D01*
X40363Y199499D01*
X40400Y199563D01*
X40437Y199627D01*
X40473Y199691D01*
X40510Y199755D01*
X40547Y199819D01*
X40584Y199883D01*
X40620Y199947D01*
X40657Y200011D01*
X40694Y200076D01*
X40731Y200140D01*
X40768Y200204D01*
X40804Y200268D01*
X40841Y200332D01*
X40871Y200383D01*
X40900Y200434D01*
X40930Y200486D01*
X40959Y200537D01*
X40988Y200588D01*
X41018Y200639D01*
X41047Y200691D01*
X41077Y200742D01*
X41106Y200793D01*
X41136Y200844D01*
X41165Y200896D01*
X41195Y200947D01*
X41224Y200998D01*
X41254Y201049D01*
X41283Y201100D01*
X41313Y201152D01*
X41342Y201203D01*
X41372Y201254D01*
X41401Y201305D01*
X41431Y201357D01*
X41460Y201408D01*
X41490Y201459D01*
X41519Y201510D01*
X41549Y201562D01*
X41578Y201613D01*
X41601Y201651D01*
X41623Y201690D01*
X41645Y201728D01*
X41667Y201766D01*
X41689Y201805D01*
X41711Y201843D01*
X41733Y201882D01*
X41756Y201920D01*
X41778Y201958D01*
X41800Y201997D01*
X41822Y202035D01*
X41844Y202074D01*
X41866Y202112D01*
X41888Y202151D01*
X41911Y202189D01*
X41933Y202227D01*
X41955Y202266D01*
X41977Y202304D01*
X41999Y202343D01*
X42022Y202381D01*
X42044Y202419D01*
X42066Y202458D01*
X42088Y202496D01*
X42110Y202535D01*
X42132Y202573D01*
X42154Y202611D01*
X42177Y202650D01*
X42199Y202688D01*
X42221Y202727D01*
X42243Y202765D01*
X42265Y202803D01*
X42287Y202842D01*
X42310Y202880D01*
X42332Y202919D01*
X42347Y202944D01*
X42361Y202970D01*
X42376Y202995D01*
X42391Y203021D01*
X42406Y203047D01*
X42421Y203072D01*
X42435Y203098D01*
X42450Y203123D01*
X42465Y203149D01*
X42480Y203175D01*
X42494Y203200D01*
X42509Y203226D01*
X42524Y203251D01*
X42539Y203277D01*
X42554Y203303D01*
X42568Y203328D01*
X42583Y203354D01*
X42598Y203379D01*
X42613Y203405D01*
X42628Y203431D01*
X42642Y203456D01*
X42657Y203482D01*
X42672Y203507D01*
X42687Y203533D01*
X42702Y203558D01*
X42716Y203584D01*
X42731Y203610D01*
X42746Y203635D01*
X42761Y203661D01*
X42775Y203686D01*
X42790Y203712D01*
X42805Y203738D01*
X42820Y203763D01*
X42835Y203789D01*
X42849Y203815D01*
X42864Y203840D01*
X42879Y203866D01*
X42894Y203891D01*
X42909Y203917D01*
X42924Y203942D01*
X42938Y203968D01*
X42953Y203994D01*
X42968Y204019D01*
X42983Y204045D01*
X42998Y204070D01*
X43012Y204096D01*
X43027Y204122D01*
X43042Y204147D01*
X43057Y204173D01*
X43071Y204198D01*
X43079Y204211D01*
X43086Y204224D01*
X43094Y204237D01*
X43101Y204250D01*
X43108Y204262D01*
X43116Y204275D01*
X43123Y204288D01*
X43131Y204301D01*
X43138Y204313D01*
X43145Y204326D01*
X43153Y204339D01*
X43160Y204352D01*
X43168Y204365D01*
X43175Y204378D01*
X43183Y204390D01*
X43190Y204403D01*
X43197Y204416D01*
X43205Y204429D01*
X43212Y204441D01*
X43220Y204454D01*
X43227Y204467D01*
X43234Y204480D01*
X43242Y204493D01*
X43249Y204505D01*
X43257Y204518D01*
X43264Y204531D01*
X43271Y204544D01*
X43279Y204557D01*
X43286Y204570D01*
X43293Y204582D01*
X43301Y204595D01*
X43308Y204608D01*
X43316Y204621D01*
X43323Y204633D01*
X43330Y204646D01*
X43338Y204659D01*
X43345Y204672D01*
X43353Y204685D01*
X43360Y204697D01*
X43367Y204710D01*
X43375Y204723D01*
X43382Y204736D01*
X43390Y204749D01*
X43397Y204761D01*
X43404Y204774D01*
X43412Y204787D01*
X43419Y204800D01*
X43427Y204813D01*
X43434Y204825D01*
X43442Y204838D01*
X43449Y204851D01*
X43456Y204864D01*
X43464Y204876D01*
X43471Y204889D01*
X43479Y204902D01*
X43486Y204915D01*
X43493Y204928D01*
X43501Y204941D01*
X43508Y204953D01*
X43516Y204966D01*
X43523Y204979D01*
X43530Y204992D01*
X43538Y205005D01*
X43545Y205017D01*
X43553Y205030D01*
X43560Y205043D01*
X43567Y205056D01*
X43575Y205068D01*
X43582Y205081D01*
X43589Y205094D01*
X43597Y205107D01*
X43604Y205120D01*
X43612Y205132D01*
X43619Y205145D01*
X43626Y205158D01*
X43634Y205171D01*
X43641Y205184D01*
X43649Y205196D01*
X43656Y205209D01*
X43663Y205222D01*
X43671Y205235D01*
X43678Y205248D01*
X43686Y205260D01*
X43693Y205273D01*
X43701Y205286D01*
X43708Y205299D01*
X43715Y205311D01*
X43723Y205324D01*
X43730Y205337D01*
X43738Y205350D01*
X43745Y205363D01*
X43752Y205376D01*
X43760Y205388D01*
X43767Y205401D01*
X43775Y205414D01*
X43782Y205427D01*
X43789Y205439D01*
X43797Y205452D01*
X43804Y205465D01*
X43812Y205478D01*
X43819Y205491D01*
X43826Y205504D01*
X43834Y205516D01*
X43841Y205529D01*
X43849Y205542D01*
X43856Y205555D01*
X43863Y205567D01*
X43871Y205580D01*
X43878Y205593D01*
X43886Y205606D01*
X43893Y205619D01*
X43900Y205631D01*
X43908Y205644D01*
X43915Y205657D01*
X43923Y205670D01*
X43930Y205683D01*
X43937Y205695D01*
X43945Y205708D01*
X43952Y205721D01*
X43960Y205734D01*
X43967Y205747D01*
X43974Y205759D01*
X43982Y205772D01*
X43989Y205785D01*
X43997Y205798D01*
X44004Y205810D01*
X44011Y205823D01*
X44019Y205836D01*
X44026Y205849D01*
X44034Y205862D01*
X44041Y205874D01*
X44049Y205887D01*
X44056Y205900D01*
X44063Y205913D01*
X44071Y205926D01*
X44078Y205939D01*
X44085Y205951D01*
X44093Y205964D01*
X44100Y205977D01*
X44108Y205990D01*
X44115Y206002D01*
X44122Y206015D01*
X44130Y206028D01*
X44137Y206041D01*
X44145Y206054D01*
X44152Y206066D01*
X44159Y206079D01*
X44167Y206092D01*
X44174Y206105D01*
X44182Y206118D01*
X44189Y206130D01*
X44197Y206143D01*
X44204Y206156D01*
X44211Y206169D01*
X44219Y206182D01*
X44226Y206194D01*
X44234Y206207D01*
X44241Y206220D01*
X44248Y206233D01*
X44256Y206246D01*
X44263Y206258D01*
X44271Y206271D01*
X44278Y206284D01*
X44285Y206297D01*
X44293Y206310D01*
X44300Y206322D01*
X44308Y206335D01*
X44315Y206348D01*
X44322Y206361D01*
X44330Y206374D01*
X44337Y206386D01*
X44344Y206399D01*
X44352Y206412D01*
X44359Y206425D01*
X44367Y206437D01*
X44374Y206450D01*
X44381Y206463D01*
X44389Y206476D01*
X44396Y206489D01*
X44404Y206502D01*
X44411Y206514D01*
X44418Y206527D01*
X44426Y206540D01*
X44433Y206553D01*
X44441Y206565D01*
X44448Y206578D01*
X44456Y206591D01*
X44463Y206604D01*
X44470Y206617D01*
X44478Y206629D01*
X44485Y206642D01*
X44493Y206655D01*
X44500Y206668D01*
X44507Y206681D01*
X44515Y206693D01*
X44522Y206706D01*
X44530Y206719D01*
X44537Y206732D01*
X44544Y206745D01*
X44559Y206770D01*
X44574Y206796D01*
X44589Y206821D01*
X44603Y206847D01*
X44618Y206873D01*
X44633Y206898D01*
X44648Y206924D01*
X44663Y206949D01*
X44677Y206975D01*
X44692Y207000D01*
X44707Y207026D01*
X44722Y207052D01*
X44737Y207077D01*
X44752Y207103D01*
X44766Y207129D01*
X44781Y207154D01*
X44796Y207180D01*
X44811Y207205D01*
X44826Y207231D01*
X44840Y207256D01*
X44855Y207282D01*
X44870Y207308D01*
X44885Y207333D01*
X44899Y207359D01*
X44914Y207384D01*
X44929Y207410D01*
X44944Y207436D01*
X44959Y207461D01*
X44973Y207487D01*
X44988Y207512D01*
X45003Y207538D01*
X45018Y207564D01*
X45033Y207589D01*
X45047Y207615D01*
X45062Y207640D01*
X45077Y207666D01*
X45092Y207692D01*
X45107Y207717D01*
X45121Y207743D01*
X45136Y207768D01*
X45151Y207794D01*
X45166Y207820D01*
X45180Y207845D01*
X45195Y207871D01*
X45210Y207896D01*
X45225Y207922D01*
X45240Y207948D01*
X45254Y207973D01*
X45269Y207999D01*
X45284Y208024D01*
X45306Y208063D01*
X45328Y208101D01*
X45351Y208140D01*
X45373Y208178D01*
X45395Y208216D01*
X45417Y208255D01*
X45439Y208293D01*
X45461Y208332D01*
X45483Y208370D01*
X45506Y208408D01*
X45528Y208447D01*
X45550Y208485D01*
X45572Y208524D01*
X45594Y208562D01*
X45616Y208600D01*
X45639Y208639D01*
X45661Y208677D01*
X45683Y208716D01*
X45705Y208754D01*
X45727Y208792D01*
X45750Y208831D01*
X45772Y208869D01*
X45794Y208908D01*
X45816Y208946D01*
X45838Y208984D01*
X45860Y209023D01*
X45882Y209061D01*
X45905Y209100D01*
X45927Y209138D01*
X45949Y209177D01*
X45971Y209215D01*
X45993Y209253D01*
X46015Y209292D01*
X46045Y209343D01*
X46074Y209394D01*
X46104Y209446D01*
X46133Y209497D01*
X46163Y209548D01*
X46192Y209599D01*
X46222Y209650D01*
X46251Y209702D01*
X46281Y209753D01*
X46310Y209804D01*
X46340Y209855D01*
X46369Y209907D01*
X46399Y209958D01*
X46428Y210009D01*
X46458Y210060D01*
X46487Y210112D01*
X46517Y210163D01*
X46546Y210214D01*
X46576Y210265D01*
X46605Y210317D01*
X46642Y210381D01*
X46643Y210382D01*
X46644Y210385D01*
X46646Y210389D01*
X46647Y210392D01*
X46649Y210396D01*
X46651Y210399D01*
X46652Y210403D01*
X46654Y210407D01*
X46657Y210412D01*
X46659Y210416D01*
X46661Y210421D01*
X46663Y210425D01*
X46665Y210430D01*
X46667Y210434D01*
X46670Y210439D01*
X46672Y210443D01*
X46674Y210448D01*
X46676Y210452D01*
X46678Y210457D01*
X46681Y210461D01*
X46683Y210466D01*
X46685Y210471D01*
X46687Y210475D01*
X46690Y210480D01*
X46692Y210484D01*
X46694Y210489D01*
X46697Y210493D01*
X46699Y210498D01*
X46701Y210502D01*
X46704Y210507D01*
X46706Y210511D01*
X46709Y210516D01*
X46711Y210521D01*
X46714Y210525D01*
X46716Y210530D01*
X46718Y210534D01*
X46721Y210539D01*
X46723Y210543D01*
X46726Y210548D01*
X46729Y210552D01*
X46731Y210557D01*
X46734Y210561D01*
X46736Y210566D01*
X46739Y210571D01*
X46742Y210575D01*
X46744Y210579D01*
X46747Y210584D01*
X46749Y210589D01*
X46752Y210593D01*
X46755Y210598D01*
X46757Y210602D01*
X46760Y210607D01*
X46763Y210611D01*
X46766Y210615D01*
X46768Y210620D01*
X46771Y210624D01*
X46774Y210629D01*
X46777Y210633D01*
X46780Y210638D01*
X46782Y210642D01*
X46785Y210647D01*
X46788Y210651D01*
X46791Y210655D01*
X46794Y210660D01*
X46797Y210664D01*
X46800Y210668D01*
X46803Y210673D01*
X46806Y210677D01*
X46808Y210682D01*
X46812Y210686D01*
X46815Y210690D01*
X46817Y210694D01*
X46821Y210699D01*
X46824Y210703D01*
X46827Y210707D01*
X46830Y210711D01*
X46833Y210716D01*
X46836Y210720D01*
X46839Y210724D01*
X46842Y210728D01*
X46845Y210732D01*
X46849Y210736D01*
X46852Y210741D01*
X46855Y210745D01*
X46858Y210749D01*
X46861Y210753D01*
X46865Y210757D01*
X46868Y210761D01*
X46871Y210765D01*
X46875Y210769D01*
X46878Y210773D01*
X46881Y210777D01*
X46885Y210781D01*
X46888Y210785D01*
X46891Y210789D01*
X46895Y210793D01*
X46898Y210797D01*
X46902Y210801D01*
X46905Y210804D01*
X46909Y210808D01*
X46912Y210812D01*
X46916Y210816D01*
X46919Y210820D01*
X46923Y210823D01*
X46926Y210827D01*
X46930Y210831D01*
X46933Y210834D01*
X46937Y210838D01*
X46941Y210841D01*
X46944Y210845D01*
X46948Y210849D01*
X46952Y210852D01*
X46955Y210856D01*
X46959Y210859D01*
X46963Y210863D01*
X46967Y210866D01*
X46970Y210870D01*
X46974Y210873D01*
X46978Y210876D01*
X46982Y210880D01*
X46986Y210883D01*
X46990Y210886D01*
X46994Y210889D01*
X46997Y210893D01*
X47001Y210896D01*
X47005Y210899D01*
X47009Y210902D01*
X47013Y210905D01*
X47018Y210909D01*
X47023Y210912D01*
X47028Y210916D01*
X47033Y210920D01*
X47038Y210923D01*
X47043Y210927D01*
X47047Y210930D01*
X47052Y210933D01*
X47058Y210937D01*
X47063Y210940D01*
X47068Y210943D01*
X47073Y210946D01*
X47079Y210950D01*
X47085Y210953D01*
X47091Y210957D01*
X47097Y210960D01*
X47103Y210964D01*
X47110Y210967D01*
X47117Y210971D01*
X47124Y210975D01*
X47132Y210979D01*
X47141Y210982D01*
X216142Y171299D02*
Y187047D01*
X205906Y171299D02*
Y187047D01*
Y177992D02*
X216142D01*
X106299Y56496D02*
Y56890D01*
X109449Y56496D02*
Y56890D01*
X94291Y54921D02*
Y55315D01*
X90748Y54921D02*
Y55315D01*
X96653Y41535D02*
X97047D01*
X96653Y45079D02*
X97047D01*
X115354Y56496D02*
Y56890D01*
X112205Y56496D02*
Y56890D01*
X112402Y48228D02*
X112795D01*
X112402Y44685D02*
X112795D01*
X99016Y54921D02*
Y55315D01*
X102559Y54921D02*
Y55315D01*
X110630Y19488D02*
Y19882D01*
X107480Y19488D02*
Y19882D01*
X124803Y43504D02*
X125197D01*
X124803Y46260D02*
X125197D01*
X166142Y41142D02*
Y41535D01*
X169291Y41142D02*
Y41535D01*
X135433Y39961D02*
Y40354D01*
X132283Y39961D02*
Y40354D01*
X141339Y39961D02*
Y40354D01*
X138189Y39961D02*
Y40354D01*
X138583Y19488D02*
Y19882D01*
X135433Y19488D02*
Y19882D01*
X132677Y19488D02*
Y19882D01*
X129528Y19488D02*
Y19882D01*
X123622Y19488D02*
Y19882D01*
X126772Y19488D02*
Y19882D01*
X117717Y19488D02*
Y19882D01*
X120866Y19488D02*
Y19882D01*
X164764Y191535D02*
Y195866D01*
X154921Y191535D02*
Y195866D01*
X152165Y191535D02*
Y195866D01*
X142323Y191535D02*
Y195866D01*
X139567Y191535D02*
Y195866D01*
X129724Y191535D02*
Y195866D01*
X115748Y163189D02*
Y167520D01*
X105512Y163189D02*
Y167520D01*
X113779Y147244D02*
X120079D01*
Y141260D02*
Y148504D01*
X113779Y141260D02*
Y148504D01*
X284055Y106102D02*
Y110433D01*
X290748Y106102D02*
Y110433D01*
X126772Y77362D02*
Y77756D01*
X123228Y77362D02*
Y77756D01*
X103150Y83465D02*
X107087D01*
X103150Y77165D02*
X107087D01*
X77558Y159646D02*
Y155710D01*
X79526Y157678D02*
X75590D01*
X77560Y124606D02*
Y128542D01*
X75592Y126574D02*
X79528D01*
D11*
X189779Y157480D02*
X189279Y158346D01*
X188279D01*
X187779Y157480D01*
X188279Y156614D01*
X189279D01*
X189779Y157480D01*
D12*
X204468Y150197D02*
X210768Y160728D01*
X204075Y150098D02*
X217657D01*
X210768Y160630D02*
X217461Y149606D01*
X64054Y210872D02*
X63054Y211871D01*
X61055D01*
X60055Y210872D01*
Y206873D01*
X61055Y205873D01*
X63054D01*
X64054Y206873D01*
X66053Y205873D02*
Y209872D01*
X68053Y211871D01*
X70052Y209872D01*
Y205873D01*
Y208872D01*
X66053D01*
X72051Y211871D02*
Y206873D01*
X73051Y205873D01*
X75050D01*
X76050Y206873D01*
Y211871D01*
X78049D02*
X82048D01*
X80049D01*
Y205873D01*
X84047Y211871D02*
X86047D01*
X85047D01*
Y205873D01*
X84047D01*
X86047D01*
X92045Y211871D02*
X90045D01*
X89046Y210872D01*
Y206873D01*
X90045Y205873D01*
X92045D01*
X93044Y206873D01*
Y210872D01*
X92045Y211871D01*
X95044Y205873D02*
Y211871D01*
X99042Y205873D01*
Y211871D01*
X101042Y209872D02*
X102041D01*
Y208872D01*
X101042D01*
Y209872D01*
Y206873D02*
X102041D01*
Y205873D01*
X101042D01*
Y206873D01*
X60055Y202274D02*
Y196276D01*
Y199275D01*
X64054D01*
Y202274D01*
Y196276D01*
X69052Y202274D02*
X67053D01*
X66053Y201274D01*
Y197275D01*
X67053Y196276D01*
X69052D01*
X70052Y197275D01*
Y201274D01*
X69052Y202274D01*
X72051D02*
X76050D01*
X74051D01*
Y196276D01*
X88046Y201274D02*
X87046Y202274D01*
X85047D01*
X84047Y201274D01*
Y200274D01*
X85047Y199275D01*
X87046D01*
X88046Y198275D01*
Y197275D01*
X87046Y196276D01*
X85047D01*
X84047Y197275D01*
X90045Y202274D02*
Y197275D01*
X91045Y196276D01*
X93044D01*
X94044Y197275D01*
Y202274D01*
X96043Y196276D02*
Y202274D01*
X99042D01*
X100042Y201274D01*
Y199275D01*
X99042Y198275D01*
X96043D01*
X98043D02*
X100042Y196276D01*
X106040Y202274D02*
X102041D01*
Y199275D01*
X104041D01*
X102041D01*
Y196276D01*
X108040D02*
Y200274D01*
X110039Y202274D01*
X112038Y200274D01*
Y196276D01*
Y199275D01*
X108040D01*
X118036Y201274D02*
X117037Y202274D01*
X115037D01*
X114038Y201274D01*
Y197275D01*
X115037Y196276D01*
X117037D01*
X118036Y197275D01*
X124034Y202274D02*
X120036D01*
Y196276D01*
X124034D01*
X120036Y199275D02*
X122035D01*
X285252Y94731D02*
X289251D01*
X307661Y88402D02*
Y90401D01*
Y89401D01*
X301663D01*
X302663Y88402D01*
X301663Y93400D02*
Y97399D01*
X302663D01*
X306662Y93400D01*
X307661D01*
X302663Y99398D02*
X301663Y100398D01*
Y102397D01*
X302663Y103397D01*
X306662D01*
X307661Y102397D01*
Y100398D01*
X306662Y99398D01*
X302663D01*
X301663Y111394D02*
X305662D01*
X307661Y113393D01*
X305662Y115393D01*
X301663D01*
Y117392D02*
X307661D01*
Y120391D01*
X306662Y121391D01*
X302663D01*
X301663Y120391D01*
Y117392D01*
X302663Y127389D02*
X301663Y126389D01*
Y124390D01*
X302663Y123390D01*
X306662D01*
X307661Y124390D01*
Y126389D01*
X306662Y127389D01*
X274622Y37614D02*
Y43612D01*
X277621D01*
X278621Y42612D01*
Y40613D01*
X277621Y39614D01*
X274622D01*
X276621D02*
X278621Y37614D01*
X283619D02*
X281620D01*
X280620Y38614D01*
Y40613D01*
X281620Y41613D01*
X283619D01*
X284619Y40613D01*
Y39614D01*
X280620D01*
X286618Y41613D02*
X288617Y37614D01*
X290617Y41613D01*
X292616Y37614D02*
Y38614D01*
X293616D01*
Y37614D01*
X292616D01*
X303613Y43612D02*
Y37614D01*
X306612D01*
X307611Y38614D01*
Y39614D01*
X306612Y40613D01*
X303613D01*
X306612D01*
X307611Y41613D01*
Y42612D01*
X306612Y43612D01*
X303613D01*
X222260Y174225D02*
Y168227D01*
X224259Y170226D01*
X226259Y168227D01*
Y174225D01*
X228258Y168227D02*
Y172225D01*
X230257Y174225D01*
X232257Y172225D01*
Y168227D01*
Y171226D01*
X228258D01*
X234256Y168227D02*
Y174225D01*
X237255D01*
X238255Y173225D01*
Y171226D01*
X237255Y170226D01*
X234256D01*
X236255D02*
X238255Y168227D01*
X240254D02*
Y174225D01*
X244253Y168227D01*
Y174225D01*
X246252D02*
X248251D01*
X247252D01*
Y168227D01*
X246252D01*
X248251D01*
X251251D02*
Y174225D01*
X255249Y168227D01*
Y174225D01*
X261247Y173225D02*
X260248Y174225D01*
X258248D01*
X257248Y173225D01*
Y169227D01*
X258248Y168227D01*
X260248D01*
X261247Y169227D01*
Y171226D01*
X259248D01*
X263247Y172225D02*
X264246D01*
Y171226D01*
X263247D01*
Y172225D01*
Y169227D02*
X264246D01*
Y168227D01*
X263247D01*
Y169227D01*
X222260Y164627D02*
Y158629D01*
Y161628D01*
X226259D01*
Y164627D01*
Y158629D01*
X228258Y164627D02*
X230257D01*
X229258D01*
Y158629D01*
X228258D01*
X230257D01*
X237255Y163628D02*
X236255Y164627D01*
X234256D01*
X233256Y163628D01*
Y159629D01*
X234256Y158629D01*
X236255D01*
X237255Y159629D01*
Y161628D01*
X235256D01*
X239254Y164627D02*
Y158629D01*
Y161628D01*
X243253D01*
Y164627D01*
Y158629D01*
X222260Y155030D02*
Y151031D01*
X224259Y149031D01*
X226259Y151031D01*
Y155030D01*
X231257D02*
X229258D01*
X228258Y154030D01*
Y150031D01*
X229258Y149031D01*
X231257D01*
X232257Y150031D01*
Y154030D01*
X231257Y155030D01*
X234256D02*
Y149031D01*
X238255D01*
X240254Y155030D02*
X244253D01*
X242253D01*
Y149031D01*
X246252D02*
Y153030D01*
X248251Y155030D01*
X250251Y153030D01*
Y149031D01*
Y152031D01*
X246252D01*
X256249Y154030D02*
X255249Y155030D01*
X253250D01*
X252250Y154030D01*
Y150031D01*
X253250Y149031D01*
X255249D01*
X256249Y150031D01*
Y152031D01*
X254250D01*
X262247Y155030D02*
X258248D01*
Y149031D01*
X262247D01*
X258248Y152031D02*
X260248D01*
X25409Y121110D02*
X29408D01*
X27409Y123109D02*
Y119110D01*
X285252Y121110D02*
X289251D01*
X287251Y123109D02*
Y119110D01*
X25409Y94731D02*
X29408D01*
X12085Y111132D02*
X8087D01*
Y108133D01*
X10086Y109133D01*
X11086D01*
X12085Y108133D01*
Y106133D01*
X11086Y105134D01*
X9086D01*
X8087Y106133D01*
X14085Y108133D02*
X18083D01*
X20083Y105134D02*
X22082D01*
X21082D01*
Y111132D01*
X20083Y110132D01*
X29080Y105134D02*
X25081D01*
X29080Y109133D01*
Y110132D01*
X28080Y111132D01*
X26081D01*
X25081Y110132D01*
X37077Y111132D02*
Y107133D01*
X39077Y105134D01*
X41076Y107133D01*
Y111132D01*
X43075D02*
Y105134D01*
X46074D01*
X47074Y106133D01*
Y110132D01*
X46074Y111132D01*
X43075D01*
X53072Y110132D02*
X52072Y111132D01*
X50073D01*
X49073Y110132D01*
Y106133D01*
X50073Y105134D01*
X52072D01*
X53072Y106133D01*
X193427Y189038D02*
X192427Y188038D01*
Y186039D01*
X193427Y185039D01*
X197425D01*
X198425Y186039D01*
Y188038D01*
X197425Y189038D01*
X198425Y191037D02*
Y193037D01*
Y192037D01*
X192427D01*
X193427Y191037D01*
X192427Y196036D02*
Y200034D01*
X193427D01*
X197425Y196036D01*
X198425D01*
X185159Y189038D02*
X184159Y188038D01*
Y186039D01*
X185159Y185039D01*
X189158D01*
X190157Y186039D01*
Y188038D01*
X189158Y189038D01*
X190157Y191037D02*
Y193037D01*
Y192037D01*
X184159D01*
X185159Y191037D01*
X184159Y200034D02*
X185159Y198035D01*
X187158Y196036D01*
X189158D01*
X190157Y197036D01*
Y199035D01*
X189158Y200034D01*
X188158D01*
X187158Y199035D01*
Y196036D01*
X79830Y23798D02*
Y29796D01*
X82829D01*
X83829Y28796D01*
Y26797D01*
X82829Y25797D01*
X79830D01*
X81829D02*
X83829Y23798D01*
X85828D02*
X87827D01*
X86828D01*
Y29796D01*
X85828Y28796D01*
X94825Y23798D02*
X90826D01*
X94825Y27797D01*
Y28796D01*
X93825Y29796D01*
X91826D01*
X90826Y28796D01*
X208723Y61298D02*
X207723Y62297D01*
X205724D01*
X204724Y61298D01*
Y57299D01*
X205724Y56299D01*
X207723D01*
X208723Y57299D01*
Y59298D01*
X206724D01*
X210722Y56299D02*
Y60298D01*
X212722Y62297D01*
X214721Y60298D01*
Y56299D01*
Y59298D01*
X210722D01*
X216721Y62297D02*
X220719D01*
X218720D01*
Y56299D01*
X226717Y62297D02*
X222719D01*
Y56299D01*
X226717D01*
X222719Y59298D02*
X224718D01*
X170866Y18674D02*
X164868D01*
Y21673D01*
X165868Y22673D01*
X167867D01*
X168867Y21673D01*
Y18674D01*
Y20674D02*
X170866Y22673D01*
Y24672D02*
Y26672D01*
Y25672D01*
X164868D01*
X165868Y24672D01*
X170866Y32670D02*
X164868D01*
X167867Y29671D01*
Y33669D01*
X204724Y15053D02*
Y10055D01*
X205724Y9055D01*
X207723D01*
X208723Y10055D01*
Y15053D01*
X210722D02*
Y11055D01*
X212722Y9055D01*
X214721Y11055D01*
Y15053D01*
X216721D02*
Y9055D01*
X220719D01*
X225718Y15053D02*
X223718D01*
X222719Y14053D01*
Y10055D01*
X223718Y9055D01*
X225718D01*
X226717Y10055D01*
Y14053D01*
X225718Y15053D01*
X132677Y32977D02*
Y27979D01*
X133677Y26979D01*
X135676D01*
X136676Y27979D01*
Y32977D01*
X138675Y26979D02*
X140675D01*
X139675D01*
Y32977D01*
X138675Y31977D01*
X204724Y50486D02*
Y46488D01*
X206724Y44488D01*
X208723Y46488D01*
Y50486D01*
X214721Y49487D02*
X213721Y50486D01*
X211722D01*
X210722Y49487D01*
Y45488D01*
X211722Y44488D01*
X213721D01*
X214721Y45488D01*
X220719Y49487D02*
X219720Y50486D01*
X217720D01*
X216721Y49487D01*
Y45488D01*
X217720Y44488D01*
X219720D01*
X220719Y45488D01*
X208723Y73109D02*
X207723Y74108D01*
X205724D01*
X204724Y73109D01*
Y72109D01*
X205724Y71109D01*
X207723D01*
X208723Y70110D01*
Y69110D01*
X207723Y68110D01*
X205724D01*
X204724Y69110D01*
X210722Y74108D02*
Y68110D01*
X212722Y70110D01*
X214721Y68110D01*
Y74108D01*
X208723Y25864D02*
X207723Y26864D01*
X205724D01*
X204724Y25864D01*
Y21866D01*
X205724Y20866D01*
X207723D01*
X208723Y21866D01*
X213721Y26864D02*
X211722D01*
X210722Y25864D01*
Y21866D01*
X211722Y20866D01*
X213721D01*
X214721Y21866D01*
Y25864D01*
X213721Y26864D01*
X216721Y20866D02*
Y26864D01*
X218720Y24865D01*
X220719Y26864D01*
Y20866D01*
X222719D02*
Y26864D01*
X225718D01*
X226717Y25864D01*
Y23865D01*
X225718Y22865D01*
X222719D01*
X204724Y32677D02*
Y38675D01*
X207723D01*
X208723Y37675D01*
Y35676D01*
X207723Y34677D01*
X204724D01*
X214721Y37675D02*
X213721Y38675D01*
X211722D01*
X210722Y37675D01*
Y33677D01*
X211722Y32677D01*
X213721D01*
X214721Y33677D01*
Y35676D01*
X212722D01*
X219720Y38675D02*
X217720D01*
X216721Y37675D01*
Y33677D01*
X217720Y32677D01*
X219720D01*
X220719Y33677D01*
Y37675D01*
X219720Y38675D01*
X225718D02*
X223718D01*
X222719Y37675D01*
Y33677D01*
X223718Y32677D01*
X225718D01*
X226717Y33677D01*
Y37675D01*
X225718Y38675D01*
X228717D02*
Y32677D01*
X231716D01*
X232715Y33677D01*
Y37675D01*
X231716Y38675D01*
X228717D01*
X160200Y136898D02*
X164199D01*
X162199D01*
Y130900D01*
X166198D02*
X168197D01*
X167198D01*
Y136898D01*
X166198Y135898D01*
X79930Y77300D02*
Y83298D01*
X82929D01*
X83929Y82298D01*
Y80299D01*
X82929Y79299D01*
X79930D01*
X81929D02*
X83929Y77300D01*
X85928D02*
X87927D01*
X86928D01*
Y83298D01*
X85928Y82298D01*
X90926Y77300D02*
X92926D01*
X91926D01*
Y83298D01*
X90926Y82298D01*
X100787Y31496D02*
Y37494D01*
X103786D01*
X104786Y36494D01*
Y34495D01*
X103786Y33495D01*
X100787D01*
X102787D02*
X104786Y31496D01*
X106786D02*
X108785D01*
X107785D01*
Y37494D01*
X106786Y36494D01*
X111784D02*
X112784Y37494D01*
X114783D01*
X115782Y36494D01*
Y32496D01*
X114783Y31496D01*
X112784D01*
X111784Y32496D01*
Y36494D01*
X77165Y49409D02*
X71167D01*
Y52408D01*
X72167Y53408D01*
X74166D01*
X75166Y52408D01*
Y49409D01*
Y51409D02*
X77165Y53408D01*
X76166Y55408D02*
X77165Y56407D01*
Y58407D01*
X76166Y59406D01*
X72167D01*
X71167Y58407D01*
Y56407D01*
X72167Y55408D01*
X73167D01*
X74166Y56407D01*
Y59406D01*
X150000Y14961D02*
X144002D01*
Y17960D01*
X145002Y18959D01*
X147001D01*
X148001Y17960D01*
Y14961D01*
Y16960D02*
X150000Y18959D01*
X145002Y20959D02*
X144002Y21958D01*
Y23958D01*
X145002Y24957D01*
X146001D01*
X147001Y23958D01*
X148001Y24957D01*
X149000D01*
X150000Y23958D01*
Y21958D01*
X149000Y20959D01*
X148001D01*
X147001Y21958D01*
X146001Y20959D01*
X145002D01*
X147001Y21958D02*
Y23958D01*
X159843Y14961D02*
X153844D01*
Y17960D01*
X154844Y18959D01*
X156843D01*
X157843Y17960D01*
Y14961D01*
Y16960D02*
X159843Y18959D01*
X153844Y20959D02*
Y24957D01*
X154844D01*
X158843Y20959D01*
X159843D01*
X133071Y52362D02*
X127073D01*
Y55361D01*
X128073Y56361D01*
X130072D01*
X131071Y55361D01*
Y52362D01*
Y54361D02*
X133071Y56361D01*
X127073Y62359D02*
X128073Y60360D01*
X130072Y58360D01*
X132071D01*
X133071Y59360D01*
Y61359D01*
X132071Y62359D01*
X131071D01*
X130072Y61359D01*
Y58360D01*
X122095Y2362D02*
X116097D01*
Y5361D01*
X117097Y6361D01*
X119096D01*
X120096Y5361D01*
Y2362D01*
Y4361D02*
X122095Y6361D01*
X116097Y12359D02*
Y8360D01*
X119096D01*
X118097Y10360D01*
Y11359D01*
X119096Y12359D01*
X121096D01*
X122095Y11359D01*
Y9360D01*
X121096Y8360D01*
X105118Y14567D02*
X99120D01*
Y17566D01*
X100120Y18566D01*
X102119D01*
X103119Y17566D01*
Y14567D01*
Y16566D02*
X105118Y18566D01*
Y23564D02*
X99120D01*
X102119Y20565D01*
Y24564D01*
X158661Y36421D02*
X152663D01*
Y39420D01*
X153663Y40420D01*
X155662D01*
X156662Y39420D01*
Y36421D01*
Y38421D02*
X158661Y40420D01*
X153663Y42419D02*
X152663Y43419D01*
Y45418D01*
X153663Y46418D01*
X154663D01*
X155662Y45418D01*
Y44419D01*
Y45418D01*
X156662Y46418D01*
X157662D01*
X158661Y45418D01*
Y43419D01*
X157662Y42419D01*
X132230Y74600D02*
Y80598D01*
X135229D01*
X136229Y79598D01*
Y77599D01*
X135229Y76599D01*
X132230D01*
X134229D02*
X136229Y74600D01*
X142227D02*
X138228D01*
X142227Y78599D01*
Y79598D01*
X141227Y80598D01*
X139228D01*
X138228Y79598D01*
X104030Y179454D02*
Y185452D01*
X107029D01*
X108029Y184453D01*
Y182453D01*
X107029Y181454D01*
X104030D01*
X106029D02*
X108029Y179454D01*
X110028D02*
X112027D01*
X111028D01*
Y185452D01*
X110028Y184453D01*
X111849Y118048D02*
Y122047D01*
X110849Y123047D01*
X108850D01*
X107850Y122047D01*
Y118048D01*
X108850Y117048D01*
X110849D01*
X109849Y119048D02*
X111849Y117048D01*
X110849D02*
X111849Y118048D01*
X113848Y117048D02*
X115848D01*
X114848D01*
Y123047D01*
X113848Y122047D01*
X99694Y147881D02*
Y141883D01*
X102693D01*
X103693Y142882D01*
Y146881D01*
X102693Y147881D01*
X99694D01*
X109691Y141883D02*
X105693D01*
X109691Y145881D01*
Y146881D01*
X108692Y147881D01*
X106692D01*
X105693Y146881D01*
X205730Y202998D02*
Y197000D01*
X208729D01*
X209729Y198000D01*
Y201998D01*
X208729Y202998D01*
X205730D01*
X211728Y197000D02*
X213727D01*
X212728D01*
Y202998D01*
X211728Y201998D01*
X141007Y55786D02*
X140007Y56786D01*
X138008D01*
X137008Y55786D01*
Y51787D01*
X138008Y50787D01*
X140007D01*
X141007Y51787D01*
X143006Y50787D02*
X145005D01*
X144006D01*
Y56786D01*
X143006Y55786D01*
X152003Y56786D02*
X148004D01*
Y53786D01*
X150004Y54786D01*
X151003D01*
X152003Y53786D01*
Y51787D01*
X151003Y50787D01*
X149004D01*
X148004Y51787D01*
X82010Y53605D02*
X81010Y52605D01*
Y50606D01*
X82010Y49606D01*
X86008D01*
X87008Y50606D01*
Y52605D01*
X86008Y53605D01*
X87008Y55604D02*
Y57604D01*
Y56604D01*
X81010D01*
X82010Y55604D01*
X87008Y63602D02*
X81010D01*
X84009Y60603D01*
Y64601D01*
X129196Y8935D02*
X128196Y9935D01*
X126197D01*
X125197Y8935D01*
Y4937D01*
X126197Y3937D01*
X128196D01*
X129196Y4937D01*
X131195Y3937D02*
X133194D01*
X132195D01*
Y9935D01*
X131195Y8935D01*
X136193D02*
X137193Y9935D01*
X139192D01*
X140192Y8935D01*
Y7936D01*
X139192Y6936D01*
X138193D01*
X139192D01*
X140192Y5936D01*
Y4937D01*
X139192Y3937D01*
X137193D01*
X136193Y4937D01*
X76046Y45613D02*
X75046Y46613D01*
X73047D01*
X72047Y45613D01*
Y41614D01*
X73047Y40614D01*
X75046D01*
X76046Y41614D01*
X78045Y40614D02*
X80045D01*
X79045D01*
Y46613D01*
X78045Y45613D01*
X87042Y40614D02*
X83044D01*
X87042Y44613D01*
Y45613D01*
X86043Y46613D01*
X84043D01*
X83044Y45613D01*
X119608Y55967D02*
X118608Y54967D01*
Y52968D01*
X119608Y51968D01*
X123607D01*
X124606Y52968D01*
Y54967D01*
X123607Y55967D01*
X124606Y57967D02*
Y59966D01*
Y58966D01*
X118608D01*
X119608Y57967D01*
X124606Y62965D02*
Y64964D01*
Y63965D01*
X118608D01*
X119608Y62965D01*
X145002Y37070D02*
X144002Y36070D01*
Y34071D01*
X145002Y33071D01*
X149000D01*
X150000Y34071D01*
Y36070D01*
X149000Y37070D01*
X150000Y39069D02*
Y41068D01*
Y40069D01*
X144002D01*
X145002Y39069D01*
Y44067D02*
X144002Y45067D01*
Y47066D01*
X145002Y48066D01*
X149000D01*
X150000Y47066D01*
Y45067D01*
X149000Y44067D01*
X145002D01*
X238729Y142398D02*
X237729Y143398D01*
X235730D01*
X234730Y142398D01*
Y138400D01*
X235730Y137400D01*
X237729D01*
X238729Y138400D01*
X240728D02*
X241728Y137400D01*
X243727D01*
X244727Y138400D01*
Y142398D01*
X243727Y143398D01*
X241728D01*
X240728Y142398D01*
Y141399D01*
X241728Y140399D01*
X244727D01*
X210029Y142398D02*
X209029Y143398D01*
X207030D01*
X206030Y142398D01*
Y138400D01*
X207030Y137400D01*
X209029D01*
X210029Y138400D01*
X212028Y142398D02*
X213028Y143398D01*
X215027D01*
X216027Y142398D01*
Y141399D01*
X215027Y140399D01*
X216027Y139399D01*
Y138400D01*
X215027Y137400D01*
X213028D01*
X212028Y138400D01*
Y139399D01*
X213028Y140399D01*
X212028Y141399D01*
Y142398D01*
X213028Y140399D02*
X215027D01*
X272629Y110298D02*
X271629Y111298D01*
X269630D01*
X268630Y110298D01*
Y106300D01*
X269630Y105300D01*
X271629D01*
X272629Y106300D01*
X274628Y111298D02*
X278627D01*
Y110298D01*
X274628Y106300D01*
Y105300D01*
X121195Y179312D02*
X120196Y178312D01*
Y176313D01*
X121195Y175313D01*
X125194D01*
X126194Y176313D01*
Y178312D01*
X125194Y179312D01*
X120196Y185310D02*
X121195Y183311D01*
X123195Y181311D01*
X125194D01*
X126194Y182311D01*
Y184310D01*
X125194Y185310D01*
X124194D01*
X123195Y184310D01*
Y181311D01*
X158418Y211098D02*
X157419Y212098D01*
X155419D01*
X154420Y211098D01*
Y207100D01*
X155419Y206100D01*
X157419D01*
X158418Y207100D01*
X164417Y212098D02*
X160418D01*
Y209099D01*
X162417Y210099D01*
X163417D01*
X164417Y209099D01*
Y207100D01*
X163417Y206100D01*
X161417D01*
X160418Y207100D01*
X145887Y211080D02*
X144887Y212079D01*
X142888D01*
X141888Y211080D01*
Y207081D01*
X142888Y206081D01*
X144887D01*
X145887Y207081D01*
X150885Y206081D02*
Y212079D01*
X147886Y209080D01*
X151885D01*
X133206Y211098D02*
X132206Y212098D01*
X130207D01*
X129207Y211098D01*
Y207100D01*
X130207Y206100D01*
X132206D01*
X133206Y207100D01*
X135205Y211098D02*
X136205Y212098D01*
X138204D01*
X139204Y211098D01*
Y210099D01*
X138204Y209099D01*
X137205D01*
X138204D01*
X139204Y208099D01*
Y207100D01*
X138204Y206100D01*
X136205D01*
X135205Y207100D01*
X66399Y150898D02*
X65399Y151898D01*
X63400D01*
X62400Y150898D01*
Y146900D01*
X63400Y145900D01*
X65399D01*
X66399Y146900D01*
X72397Y145900D02*
X68398D01*
X72397Y149899D01*
Y150898D01*
X71397Y151898D01*
X69398D01*
X68398Y150898D01*
X66399Y87698D02*
X65399Y88698D01*
X63400D01*
X62400Y87698D01*
Y83700D01*
X63400Y82700D01*
X65399D01*
X66399Y83700D01*
X68398Y82700D02*
X70397D01*
X69398D01*
Y88698D01*
X68398Y87698D01*
D13*
X211260Y154232D02*
X211457Y154724D01*
X209882Y155413D02*
X210768Y157480D01*
X210080Y152462D02*
X210522Y152117D01*
X211138Y152265D01*
X210276Y151256D02*
X211138Y152265D01*
X210080Y152462D02*
X210276Y151256D01*
X210400Y157457D02*
X211261Y157481D01*
X209538Y154233D02*
X211261Y157481D01*
X209538Y154233D02*
X211925Y154971D01*
X210252Y151379D02*
X211925Y154971D01*
X210252Y151379D02*
X211039Y154307D01*
X208800Y153544D02*
X211039Y154307D01*
X208800Y153544D02*
X210400Y157457D01*
X217369Y149326D02*
X217369Y149326D01*
X217426Y149327D01*
X217481Y149331D01*
X217534Y149338D01*
X217584Y149347D01*
X217632Y149360D01*
X217678Y149375D01*
X217721Y149392D01*
X217762Y149412D01*
X217800Y149434D01*
X217836Y149459D01*
X217869Y149486D01*
X217900Y149514D01*
X217928Y149545D01*
X217953Y149578D01*
X217976Y149612D01*
X217996Y149648D01*
X218012Y149685D01*
X218026Y149723D01*
X218037Y149764D01*
X218045Y149805D01*
X218050Y149847D01*
X218052Y149890D01*
X218051Y149934D02*
X218052Y149890D01*
X218047Y149979D02*
X218051Y149934D01*
X218028Y150071D02*
X218047Y149979D01*
X217997Y150165D02*
X218028Y150071D01*
X217952Y150260D02*
X217997Y150165D01*
X217893Y150355D02*
X217952Y150260D01*
X211472Y160949D02*
X217893Y150355D01*
X211437Y161005D02*
X211472Y160949D01*
X211401Y161057D02*
X211437Y161005D01*
X211362Y161106D02*
X211401Y161057D01*
X211323Y161151D02*
X211362Y161106D01*
X211282Y161192D02*
X211323Y161151D01*
X211240Y161230D02*
X211282Y161192D01*
X211196Y161264D02*
X211240Y161230D01*
X211152Y161295D02*
X211196Y161264D01*
X211106Y161322D02*
X211152Y161295D01*
X211060Y161345D02*
X211106Y161322D01*
X211014Y161365D02*
X211060Y161345D01*
X210966Y161381D02*
X211014Y161365D01*
X210918Y161394D02*
X210966Y161381D01*
X210870Y161403D02*
X210918Y161394D01*
X210822Y161409D02*
X210870Y161403D01*
X210773Y161411D02*
X210822Y161409D01*
X210725Y161409D02*
X210773Y161411D01*
X210677Y161404D02*
X210725Y161409D01*
X210629Y161396D02*
X210677Y161404D01*
X210581Y161384D02*
X210629Y161396D01*
X210533Y161368D02*
X210581Y161384D01*
X210487Y161349D02*
X210533Y161368D01*
X210440Y161327D02*
X210487Y161349D01*
X210395Y161301D02*
X210440Y161327D01*
X210351Y161271D02*
X210395Y161301D01*
X210307Y161239D02*
X210351Y161271D01*
X210265Y161202D02*
X210307Y161239D01*
X210224Y161162D02*
X210265Y161202D01*
X210185Y161119D02*
X210224Y161162D01*
X210146Y161072D02*
X210185Y161119D01*
X210110Y161022D02*
X210146Y161072D01*
X210075Y160969D02*
X210110Y161022D01*
X203728Y150345D02*
X210075Y160969D01*
X203677Y150250D02*
X203728Y150345D01*
X203638Y150155D02*
X203677Y150250D01*
X203610Y150061D02*
X203638Y150155D01*
X203594Y149970D02*
X203610Y150061D01*
X203588Y149881D02*
X203594Y149970D01*
X203588Y149881D02*
X203594Y149796D01*
X203609Y149715D01*
X203635Y149640D01*
X203670Y149571D01*
X203714Y149508D01*
X203767Y149453D01*
X203829Y149406D01*
X203900Y149368D01*
X203978Y149340D01*
X204064Y149323D01*
X204157Y149317D01*
X217369Y149326D01*
D14*
X234252Y82677D02*
Y88583D01*
Y82677D02*
X257874D01*
Y88583D01*
X234252Y127953D02*
Y133858D01*
X257874D01*
Y127953D02*
Y133858D01*
X205512Y82677D02*
Y88583D01*
Y82677D02*
X229134D01*
Y88583D01*
X205512Y127953D02*
Y133858D01*
X229134D01*
Y127953D02*
Y133858D01*
M02*
