G04*
G04 #@! TF.GenerationSoftware,Altium Limited,Altium Designer,18.1.9 (240)*
G04*
G04 Layer_Color=16711935*
%FSLAX25Y25*%
%MOIN*%
G70*
G01*
G75*
%ADD53C,0.07493*%
%ADD55C,0.24816*%
%ADD56C,0.00800*%
%ADD57R,0.06312X0.06312*%
%ADD58C,0.06312*%
%ADD59C,0.06902*%
%ADD73C,0.28359*%
D53*
X102756Y17717D02*
D03*
X112756D02*
D03*
X48661Y17717D02*
D03*
X58661D02*
D03*
D55*
X334646Y196850D02*
D03*
X19685D02*
D03*
Y19685D02*
D03*
X334646D02*
D03*
D56*
Y205709D02*
D03*
X326969Y201279D02*
D03*
Y192421D02*
D03*
X334646Y187992D02*
D03*
X342323Y192421D02*
D03*
Y201279D02*
D03*
X19685Y205709D02*
D03*
X12008Y201279D02*
D03*
Y192421D02*
D03*
X19685Y187992D02*
D03*
X27362Y192421D02*
D03*
Y201279D02*
D03*
X19685Y28543D02*
D03*
X12008Y24114D02*
D03*
Y15256D02*
D03*
X19685Y10827D02*
D03*
X27362Y15256D02*
D03*
Y24114D02*
D03*
X334646Y28543D02*
D03*
X326969Y24114D02*
D03*
Y15256D02*
D03*
X334646Y10827D02*
D03*
X342323Y15256D02*
D03*
Y24114D02*
D03*
D57*
X81102Y169027D02*
D03*
Y115157D02*
D03*
D58*
Y182807D02*
D03*
Y101378D02*
D03*
D59*
X285433Y88583D02*
D03*
Y127953D02*
D03*
X256693Y88583D02*
D03*
Y127953D02*
D03*
X90945Y57087D02*
D03*
X71260D02*
D03*
D73*
X27559Y145768D02*
D03*
X326772D02*
D03*
X27559Y70768D02*
D03*
X326772D02*
D03*
M02*
