G04*
G04 #@! TF.GenerationSoftware,Altium Limited,Altium Designer,18.1.9 (240)*
G04*
G04 Layer_Color=8388736*
%FSLAX25Y25*%
%MOIN*%
G70*
G01*
G75*
%ADD33R,0.13780X0.67717*%
%ADD34R,0.07690X0.11233*%
%ADD35R,0.03162X0.03950*%
%ADD36R,0.02769X0.04147*%
%ADD37R,0.04737X0.04343*%
%ADD38C,0.08674*%
%ADD39R,0.05131X0.05131*%
%ADD40R,0.05131X0.05131*%
%ADD41R,0.03556X0.04343*%
G04:AMPARAMS|DCode=42|XSize=27.69mil|YSize=17.84mil|CornerRadius=4.98mil|HoleSize=0mil|Usage=FLASHONLY|Rotation=270.000|XOffset=0mil|YOffset=0mil|HoleType=Round|Shape=RoundedRectangle|*
%AMROUNDEDRECTD42*
21,1,0.02769,0.00787,0,0,270.0*
21,1,0.01772,0.01784,0,0,270.0*
1,1,0.00997,-0.00394,-0.00886*
1,1,0.00997,-0.00394,0.00886*
1,1,0.00997,0.00394,0.00886*
1,1,0.00997,0.00394,-0.00886*
%
%ADD42ROUNDEDRECTD42*%
G04:AMPARAMS|DCode=43|XSize=47.37mil|YSize=112.33mil|CornerRadius=4.98mil|HoleSize=0mil|Usage=FLASHONLY|Rotation=270.000|XOffset=0mil|YOffset=0mil|HoleType=Round|Shape=RoundedRectangle|*
%AMROUNDEDRECTD43*
21,1,0.04737,0.10236,0,0,270.0*
21,1,0.03740,0.11233,0,0,270.0*
1,1,0.00997,-0.05118,-0.01870*
1,1,0.00997,-0.05118,0.01870*
1,1,0.00997,0.05118,0.01870*
1,1,0.00997,0.05118,-0.01870*
%
%ADD43ROUNDEDRECTD43*%
%ADD44R,0.06509X0.05328*%
%ADD45R,0.11430X0.05328*%
%ADD46R,0.07800X0.14300*%
%ADD47R,0.11824X0.06115*%
%ADD48R,0.04816X0.04265*%
%ADD49R,0.08280X0.06115*%
%ADD50R,0.05328X0.07887*%
%ADD51R,0.01784X0.01784*%
%ADD52R,0.18162X0.15564*%
%ADD53C,0.07493*%
%ADD54C,0.40170*%
%ADD55C,0.24816*%
%ADD56C,0.00800*%
%ADD57R,0.06312X0.06312*%
%ADD58C,0.06312*%
%ADD59C,0.06902*%
D33*
X233268Y41339D02*
D03*
D34*
X245669Y171693D02*
D03*
Y187638D02*
D03*
D35*
X149370Y111614D02*
D03*
X154370D02*
D03*
X159370D02*
D03*
X164370D02*
D03*
D36*
Y88681D02*
D03*
X159370D02*
D03*
X154370D02*
D03*
X149370D02*
D03*
D37*
X147244Y53543D02*
D03*
Y59842D02*
D03*
X153150Y53543D02*
D03*
Y59842D02*
D03*
X77559Y17717D02*
D03*
Y24016D02*
D03*
X83465Y24016D02*
D03*
Y17717D02*
D03*
X148425Y16535D02*
D03*
Y22835D02*
D03*
X207087Y44488D02*
D03*
Y38189D02*
D03*
X173228Y43307D02*
D03*
Y37008D02*
D03*
X179134D02*
D03*
Y43307D02*
D03*
X176378Y16535D02*
D03*
Y22835D02*
D03*
X170472Y16535D02*
D03*
Y22835D02*
D03*
X164567Y16535D02*
D03*
Y22835D02*
D03*
X158661D02*
D03*
Y16535D02*
D03*
D38*
X218504Y70866D02*
D03*
Y59055D02*
D03*
Y47244D02*
D03*
Y35433D02*
D03*
Y23622D02*
D03*
Y11811D02*
D03*
D39*
X131890Y58661D02*
D03*
Y51575D02*
D03*
X140157D02*
D03*
Y58661D02*
D03*
X164370Y81102D02*
D03*
Y74016D02*
D03*
D40*
X139764Y43307D02*
D03*
X132677D02*
D03*
X148425Y46457D02*
D03*
X155512D02*
D03*
D41*
X167126Y44882D02*
D03*
X161614D02*
D03*
D42*
X168307Y38386D02*
D03*
X166339D02*
D03*
X164370D02*
D03*
X162402D02*
D03*
X160433D02*
D03*
X158465D02*
D03*
Y30906D02*
D03*
X160433D02*
D03*
X162402D02*
D03*
X164370D02*
D03*
X166339D02*
D03*
X168307D02*
D03*
D43*
X163386Y34646D02*
D03*
D44*
X162835Y168898D02*
D03*
Y175984D02*
D03*
D45*
X132283Y100394D02*
D03*
Y112205D02*
D03*
X119291Y100394D02*
D03*
Y112205D02*
D03*
X106299Y100394D02*
D03*
Y112205D02*
D03*
D46*
X228150Y187638D02*
D03*
X218307D02*
D03*
X208465D02*
D03*
X198622D02*
D03*
X188779D02*
D03*
X178937D02*
D03*
Y107638D02*
D03*
X188779D02*
D03*
X198622D02*
D03*
X208465D02*
D03*
X218307D02*
D03*
X228150D02*
D03*
D47*
X151024Y178740D02*
D03*
Y166142D02*
D03*
D48*
X162835Y162736D02*
D03*
Y149862D02*
D03*
D49*
X326772Y101969D02*
D03*
Y114567D02*
D03*
D50*
X138779Y80315D02*
D03*
X150197D02*
D03*
D51*
X158465Y31907D02*
D03*
Y32695D02*
D03*
D52*
X156870Y102657D02*
D03*
D53*
X102756Y17717D02*
D03*
X112756D02*
D03*
X48661Y17717D02*
D03*
X58661D02*
D03*
D54*
X27559Y145768D02*
D03*
X326772D02*
D03*
X27559Y70768D02*
D03*
X326772D02*
D03*
D55*
X334646Y196850D02*
D03*
X19685D02*
D03*
Y19685D02*
D03*
X334646D02*
D03*
D56*
Y205709D02*
D03*
X326969Y201279D02*
D03*
Y192421D02*
D03*
X334646Y187992D02*
D03*
X342323Y192421D02*
D03*
Y201279D02*
D03*
X19685Y205709D02*
D03*
X12008Y201279D02*
D03*
Y192421D02*
D03*
X19685Y187992D02*
D03*
X27362Y192421D02*
D03*
Y201279D02*
D03*
X19685Y28543D02*
D03*
X12008Y24114D02*
D03*
Y15256D02*
D03*
X19685Y10827D02*
D03*
X27362Y15256D02*
D03*
Y24114D02*
D03*
X334646Y28543D02*
D03*
X326969Y24114D02*
D03*
Y15256D02*
D03*
X334646Y10827D02*
D03*
X342323Y15256D02*
D03*
Y24114D02*
D03*
D57*
X81102Y169027D02*
D03*
Y115157D02*
D03*
D58*
Y182807D02*
D03*
Y101378D02*
D03*
D59*
X285433Y88583D02*
D03*
Y127953D02*
D03*
X256693Y88583D02*
D03*
Y127953D02*
D03*
X90945Y57087D02*
D03*
X71260D02*
D03*
M02*
