G04*
G04 #@! TF.GenerationSoftware,Altium Limited,Altium Designer,18.1.9 (240)*
G04*
G04 Layer_Physical_Order=1*
G04 Layer_Color=255*
%FSLAX25Y25*%
%MOIN*%
G70*
G01*
G75*
%ADD10C,0.00787*%
%ADD14C,0.00984*%
%ADD17R,0.06890X0.10433*%
%ADD18R,0.02362X0.03150*%
%ADD19R,0.01968X0.03347*%
%ADD20R,0.03937X0.03543*%
%ADD21R,0.04331X0.04331*%
%ADD22R,0.04331X0.04331*%
%ADD23R,0.02756X0.03543*%
G04:AMPARAMS|DCode=24|XSize=19.68mil|YSize=9.84mil|CornerRadius=0.98mil|HoleSize=0mil|Usage=FLASHONLY|Rotation=270.000|XOffset=0mil|YOffset=0mil|HoleType=Round|Shape=RoundedRectangle|*
%AMROUNDEDRECTD24*
21,1,0.01968,0.00787,0,0,270.0*
21,1,0.01772,0.00984,0,0,270.0*
1,1,0.00197,-0.00394,-0.00886*
1,1,0.00197,-0.00394,0.00886*
1,1,0.00197,0.00394,0.00886*
1,1,0.00197,0.00394,-0.00886*
%
%ADD24ROUNDEDRECTD24*%
%ADD25R,0.05709X0.04528*%
%ADD26R,0.10630X0.04528*%
%ADD27R,0.07000X0.13500*%
%ADD28R,0.11024X0.05315*%
%ADD29R,0.04016X0.03465*%
%ADD30R,0.07480X0.05315*%
%ADD31R,0.04528X0.07087*%
%ADD32R,0.00984X0.00984*%
%ADD60C,0.07874*%
G04:AMPARAMS|DCode=61|XSize=39.37mil|YSize=104.33mil|CornerRadius=0.98mil|HoleSize=0mil|Usage=FLASHONLY|Rotation=270.000|XOffset=0mil|YOffset=0mil|HoleType=Round|Shape=RoundedRectangle|*
%AMROUNDEDRECTD61*
21,1,0.03937,0.10236,0,0,270.0*
21,1,0.03740,0.10433,0,0,270.0*
1,1,0.00197,-0.05118,-0.01870*
1,1,0.00197,-0.05118,0.01870*
1,1,0.00197,0.05118,0.01870*
1,1,0.00197,0.05118,-0.01870*
%
%ADD61ROUNDEDRECTD61*%
%ADD62C,0.01968*%
%ADD63R,0.17362X0.14764*%
%ADD64C,0.06693*%
%ADD65C,0.39370*%
%ADD66C,0.24016*%
%ADD67R,0.05512X0.05512*%
%ADD68C,0.05512*%
%ADD69C,0.06102*%
%ADD70C,0.02362*%
%ADD71C,0.01575*%
G36*
X287008Y180315D02*
X224410D01*
Y200787D01*
X287008D01*
Y180315D01*
D02*
G37*
G36*
X338259Y215015D02*
X340599Y214388D01*
X342837Y213461D01*
X344935Y212250D01*
X346857Y210775D01*
X348570Y209062D01*
X350045Y207140D01*
X351256Y205042D01*
X352183Y202804D01*
X352810Y200464D01*
X353127Y198062D01*
Y196850D01*
Y180153D01*
X288160D01*
X288028Y180315D01*
Y200787D01*
X287950Y201178D01*
X287729Y201508D01*
X287398Y201729D01*
X287008Y201807D01*
X224410D01*
X224019Y201729D01*
X223689Y201508D01*
X223467Y201178D01*
X223390Y200787D01*
Y195631D01*
X222594Y195175D01*
X222406Y195175D01*
X214209D01*
X214020Y195175D01*
X213224Y195631D01*
Y201181D01*
X213147Y201571D01*
X212926Y201902D01*
X212595Y202123D01*
X212205Y202201D01*
X89764D01*
X89374Y202123D01*
X89043Y201902D01*
X88822Y201571D01*
X88744Y201181D01*
Y177004D01*
X1204Y177004D01*
Y196850D01*
Y198062D01*
X1520Y200464D01*
X2147Y202804D01*
X3074Y205042D01*
X4286Y207140D01*
X5761Y209062D01*
X7474Y210775D01*
X9396Y212250D01*
X11494Y213461D01*
X13732Y214388D01*
X16072Y215015D01*
X18474Y215331D01*
X335857D01*
X338259Y215015D01*
D02*
G37*
G36*
X212205Y172441D02*
X141732D01*
Y108268D01*
X1204D01*
Y175984D01*
X89764Y175984D01*
Y201181D01*
X212205D01*
Y172441D01*
D02*
G37*
G36*
X166535Y158661D02*
X143701D01*
Y171260D01*
X166535D01*
Y158661D01*
D02*
G37*
G36*
X353127Y108268D02*
X238583D01*
Y179134D01*
X353127D01*
Y108268D01*
D02*
G37*
G36*
X212598Y93898D02*
X143701D01*
Y156299D01*
X212598D01*
Y93898D01*
D02*
G37*
G36*
X222505Y180100D02*
X222901Y180028D01*
X223491Y179889D01*
X223689Y179594D01*
X224019Y179373D01*
X224410Y179295D01*
X237431D01*
X237563Y179134D01*
Y108268D01*
X237641Y107878D01*
X237862Y107547D01*
X238193Y107326D01*
X238583Y107248D01*
X353127D01*
Y19685D01*
Y18474D01*
X352810Y16072D01*
X352183Y13732D01*
X351256Y11494D01*
X350045Y9396D01*
X348570Y7474D01*
X346857Y5761D01*
X344935Y4286D01*
X342837Y3074D01*
X340599Y2147D01*
X338259Y1520D01*
X335857Y1204D01*
X18474D01*
X16072Y1520D01*
X13732Y2147D01*
X11494Y3074D01*
X9396Y4286D01*
X7474Y5761D01*
X5761Y7474D01*
X4286Y9396D01*
X3074Y11494D01*
X2147Y13732D01*
X1520Y16072D01*
X1204Y18474D01*
Y19685D01*
Y107248D01*
X141732D01*
X142565Y106684D01*
X142681Y106515D01*
Y93898D01*
X142759Y93507D01*
X142980Y93177D01*
X143311Y92956D01*
X143701Y92878D01*
X146764D01*
X147013Y92506D01*
X147200Y91894D01*
X147090Y91729D01*
X147012Y91339D01*
Y81327D01*
X145834D01*
X145700Y81527D01*
X145144Y81898D01*
X144488Y82029D01*
X143832Y81898D01*
X143276Y81527D01*
X142905Y80971D01*
X142774Y80315D01*
X142905Y79659D01*
X143276Y79103D01*
X143832Y78731D01*
X144488Y78601D01*
X145144Y78731D01*
X145700Y79103D01*
X145834Y79303D01*
X147012D01*
Y76772D01*
X147090Y76381D01*
X147146Y76297D01*
Y75984D01*
X147410D01*
X147641Y75830D01*
X148031Y75752D01*
X161024D01*
X161417Y74827D01*
Y71063D01*
X161912D01*
X162656Y70079D01*
Y70079D01*
X162786Y69423D01*
X163158Y68867D01*
X163714Y68495D01*
X164370Y68365D01*
X165026Y68495D01*
X165582Y68867D01*
X165954Y69423D01*
X166084Y70079D01*
Y70079D01*
X166828Y71063D01*
X167323D01*
Y76968D01*
X162043D01*
Y78150D01*
X167323D01*
Y78776D01*
X168307Y79427D01*
X168504Y79388D01*
X169160Y79519D01*
X169716Y79890D01*
X170088Y80446D01*
X170218Y81102D01*
X170088Y81758D01*
X169716Y82314D01*
X169160Y82686D01*
X168504Y82816D01*
X168307Y82777D01*
X167323Y83429D01*
Y84055D01*
X165883D01*
Y86221D01*
X166142D01*
Y91142D01*
X162599D01*
X161899Y91829D01*
X161855Y91894D01*
X162042Y92506D01*
X162291Y92878D01*
X212598D01*
X212989Y92956D01*
X213319Y93177D01*
X213540Y93507D01*
X213618Y93898D01*
Y99282D01*
X214020Y100100D01*
X214602Y100100D01*
X222594D01*
Y115175D01*
X214602D01*
X214020Y115175D01*
X213618Y115993D01*
Y156299D01*
X213540Y156689D01*
X213319Y157020D01*
X212989Y157241D01*
X212598Y157319D01*
X167963D01*
X167479Y158268D01*
X167484Y158303D01*
X167555Y158661D01*
Y171260D01*
X167688Y171421D01*
X212205D01*
X212595Y171499D01*
X212926Y171720D01*
X213147Y172051D01*
X213224Y172441D01*
Y179644D01*
X214020Y180100D01*
X214209Y180100D01*
X222505Y180100D01*
D02*
G37*
G36*
X161024Y76772D02*
X148031D01*
Y91339D01*
X161024D01*
Y76772D01*
D02*
G37*
%LPC*%
G36*
X334646Y209673D02*
X332972Y209563D01*
X331327Y209236D01*
X329739Y208697D01*
X328234Y207955D01*
X326840Y207023D01*
X325579Y205917D01*
X324473Y204656D01*
X323541Y203262D01*
X322799Y201757D01*
X322260Y200169D01*
X321933Y198524D01*
X321823Y196850D01*
X321933Y195177D01*
X322260Y193532D01*
X322799Y191943D01*
X323541Y190439D01*
X324473Y189044D01*
X325579Y187783D01*
X326840Y186677D01*
X328234Y185746D01*
X329739Y185004D01*
X331327Y184465D01*
X332972Y184137D01*
X334646Y184028D01*
X336319Y184137D01*
X337964Y184465D01*
X339553Y185004D01*
X341057Y185746D01*
X342452Y186677D01*
X343713Y187783D01*
X344819Y189044D01*
X345750Y190439D01*
X346492Y191943D01*
X347031Y193532D01*
X347359Y195177D01*
X347468Y196850D01*
X347359Y198524D01*
X347031Y200169D01*
X346492Y201757D01*
X345750Y203262D01*
X344819Y204656D01*
X343713Y205917D01*
X342452Y207023D01*
X341057Y207955D01*
X339553Y208697D01*
X337964Y209236D01*
X336319Y209563D01*
X334646Y209673D01*
D02*
G37*
G36*
X19685D02*
X18011Y209563D01*
X16366Y209236D01*
X14778Y208697D01*
X13274Y207955D01*
X11879Y207023D01*
X10618Y205917D01*
X9512Y204656D01*
X8580Y203262D01*
X7838Y201757D01*
X7299Y200169D01*
X6972Y198524D01*
X6862Y196850D01*
X6972Y195177D01*
X7299Y193532D01*
X7838Y191943D01*
X8580Y190439D01*
X9512Y189044D01*
X10618Y187783D01*
X11879Y186677D01*
X13274Y185746D01*
X14778Y185004D01*
X16366Y184465D01*
X18011Y184137D01*
X19685Y184028D01*
X21359Y184137D01*
X23004Y184465D01*
X24592Y185004D01*
X26096Y185746D01*
X27491Y186677D01*
X28752Y187783D01*
X29858Y189044D01*
X30790Y190439D01*
X31532Y191943D01*
X32071Y193532D01*
X32398Y195177D01*
X32508Y196850D01*
X32398Y198524D01*
X32071Y200169D01*
X31532Y201757D01*
X30790Y203262D01*
X29858Y204656D01*
X28752Y205917D01*
X27491Y207023D01*
X26096Y207955D01*
X24592Y208697D01*
X23004Y209236D01*
X21359Y209563D01*
X19685Y209673D01*
D02*
G37*
G36*
X81602Y186529D02*
Y183307D01*
X84825D01*
X84762Y183787D01*
X84383Y184701D01*
X83781Y185485D01*
X82996Y186088D01*
X82083Y186466D01*
X81602Y186529D01*
D02*
G37*
G36*
X80602Y186529D02*
X80122Y186466D01*
X79208Y186088D01*
X78424Y185485D01*
X77822Y184701D01*
X77443Y183787D01*
X77380Y183307D01*
X80602D01*
Y186529D01*
D02*
G37*
G36*
X84825Y182307D02*
X81602D01*
Y179084D01*
X82083Y179148D01*
X82996Y179526D01*
X83781Y180128D01*
X84383Y180913D01*
X84762Y181826D01*
X84825Y182307D01*
D02*
G37*
G36*
X80602D02*
X77380D01*
X77443Y181826D01*
X77822Y180913D01*
X78424Y180128D01*
X79208Y179526D01*
X80122Y179148D01*
X80602Y179084D01*
Y182307D01*
D02*
G37*
G36*
X84858Y172783D02*
X81602D01*
Y169527D01*
X84858D01*
Y172783D01*
D02*
G37*
G36*
X80602D02*
X77346D01*
Y169527D01*
X80602D01*
Y172783D01*
D02*
G37*
G36*
X84858Y168527D02*
X81602D01*
Y165271D01*
X84858D01*
Y168527D01*
D02*
G37*
G36*
X80602D02*
X77346D01*
Y165271D01*
X80602D01*
Y168527D01*
D02*
G37*
G36*
X30059Y166333D02*
Y148268D01*
X48125D01*
X48111Y148474D01*
X47582Y151133D01*
X46711Y153700D01*
X45511Y156132D01*
X44005Y158387D01*
X42217Y160426D01*
X40178Y162214D01*
X37924Y163720D01*
X35492Y164919D01*
X32924Y165791D01*
X30265Y166320D01*
X30059Y166333D01*
D02*
G37*
G36*
X25059D02*
X24853Y166320D01*
X22194Y165791D01*
X19626Y164919D01*
X17194Y163720D01*
X14940Y162214D01*
X12901Y160426D01*
X11113Y158387D01*
X9607Y156132D01*
X8408Y153700D01*
X7536Y151133D01*
X7007Y148474D01*
X6994Y148268D01*
X25059D01*
Y166333D01*
D02*
G37*
G36*
X48125Y143268D02*
X30059D01*
Y125202D01*
X30265Y125216D01*
X32924Y125745D01*
X35492Y126616D01*
X37924Y127815D01*
X40178Y129322D01*
X42217Y131110D01*
X44005Y133149D01*
X45511Y135403D01*
X46711Y137835D01*
X47582Y140402D01*
X48111Y143062D01*
X48125Y143268D01*
D02*
G37*
G36*
X25059D02*
X6994D01*
X7007Y143062D01*
X7536Y140402D01*
X8408Y137835D01*
X9607Y135403D01*
X11113Y133149D01*
X12901Y131110D01*
X14940Y129322D01*
X17194Y127815D01*
X19626Y126616D01*
X22194Y125745D01*
X24853Y125216D01*
X25059Y125202D01*
Y143268D01*
D02*
G37*
G36*
X84858Y118913D02*
X81602D01*
Y115657D01*
X84858D01*
Y118913D01*
D02*
G37*
G36*
X80602D02*
X77346D01*
Y115657D01*
X80602D01*
Y118913D01*
D02*
G37*
G36*
X84858Y114657D02*
X81602D01*
Y111402D01*
X84858D01*
Y114657D01*
D02*
G37*
G36*
X80602D02*
X77346D01*
Y111402D01*
X80602D01*
Y114657D01*
D02*
G37*
G36*
X329272Y166333D02*
Y148268D01*
X347337D01*
X347324Y148474D01*
X346795Y151133D01*
X345923Y153700D01*
X344724Y156132D01*
X343217Y158387D01*
X341430Y160426D01*
X339391Y162214D01*
X337136Y163720D01*
X334704Y164919D01*
X332137Y165791D01*
X329477Y166320D01*
X329272Y166333D01*
D02*
G37*
G36*
X324272D02*
X324066Y166320D01*
X321407Y165791D01*
X318839Y164919D01*
X316407Y163720D01*
X314152Y162214D01*
X312114Y160426D01*
X310326Y158387D01*
X308820Y156132D01*
X307620Y153700D01*
X306749Y151133D01*
X306220Y148474D01*
X306206Y148268D01*
X324272D01*
Y166333D01*
D02*
G37*
G36*
X285933Y131973D02*
Y128453D01*
X289453D01*
X289380Y129010D01*
X288972Y129996D01*
X288322Y130842D01*
X287476Y131491D01*
X286491Y131900D01*
X285933Y131973D01*
D02*
G37*
G36*
X257193D02*
Y128453D01*
X260713D01*
X260640Y129010D01*
X260232Y129996D01*
X259582Y130842D01*
X258736Y131491D01*
X257751Y131900D01*
X257193Y131973D01*
D02*
G37*
G36*
X284933Y131973D02*
X284376Y131900D01*
X283390Y131491D01*
X282544Y130842D01*
X281894Y129996D01*
X281486Y129010D01*
X281413Y128453D01*
X284933D01*
Y131973D01*
D02*
G37*
G36*
X256193D02*
X255635Y131900D01*
X254650Y131491D01*
X253804Y130842D01*
X253154Y129996D01*
X252746Y129010D01*
X252673Y128453D01*
X256193D01*
Y131973D01*
D02*
G37*
G36*
X347337Y143268D02*
X329272D01*
Y125202D01*
X329477Y125216D01*
X332137Y125745D01*
X334704Y126616D01*
X337136Y127815D01*
X339391Y129322D01*
X341430Y131110D01*
X343217Y133149D01*
X344724Y135403D01*
X345923Y137835D01*
X346795Y140402D01*
X347324Y143062D01*
X347337Y143268D01*
D02*
G37*
G36*
X324272D02*
X306206D01*
X306220Y143062D01*
X306749Y140402D01*
X307620Y137835D01*
X308820Y135403D01*
X310326Y133149D01*
X312114Y131110D01*
X314152Y129322D01*
X316407Y127815D01*
X318839Y126616D01*
X321407Y125745D01*
X324066Y125216D01*
X324272Y125202D01*
Y143268D01*
D02*
G37*
G36*
X289453Y127453D02*
X285933D01*
Y123932D01*
X286491Y124006D01*
X287476Y124414D01*
X288322Y125063D01*
X288972Y125910D01*
X289380Y126895D01*
X289453Y127453D01*
D02*
G37*
G36*
X260713D02*
X257193D01*
Y123932D01*
X257751Y124006D01*
X258736Y124414D01*
X259582Y125063D01*
X260232Y125910D01*
X260640Y126895D01*
X260713Y127453D01*
D02*
G37*
G36*
X284933D02*
X281413D01*
X281486Y126895D01*
X281894Y125910D01*
X282544Y125063D01*
X283390Y124414D01*
X284376Y124006D01*
X284933Y123932D01*
Y127453D01*
D02*
G37*
G36*
X256193D02*
X252673D01*
X252746Y126895D01*
X253154Y125910D01*
X253804Y125063D01*
X254650Y124414D01*
X255635Y124006D01*
X256193Y123932D01*
Y127453D01*
D02*
G37*
G36*
X81602Y105101D02*
Y101878D01*
X84825D01*
X84762Y102358D01*
X84383Y103272D01*
X83781Y104057D01*
X82996Y104659D01*
X82083Y105037D01*
X81602Y105101D01*
D02*
G37*
G36*
X80602D02*
X80122Y105037D01*
X79208Y104659D01*
X78424Y104057D01*
X77822Y103272D01*
X77443Y102358D01*
X77380Y101878D01*
X80602D01*
Y105101D01*
D02*
G37*
G36*
X84825Y100878D02*
X81602D01*
Y97655D01*
X82083Y97719D01*
X82996Y98097D01*
X83781Y98699D01*
X84383Y99484D01*
X84762Y100398D01*
X84825Y100878D01*
D02*
G37*
G36*
X80602D02*
X77380D01*
X77443Y100398D01*
X77822Y99484D01*
X78424Y98699D01*
X79208Y98097D01*
X80122Y97719D01*
X80602Y97655D01*
Y100878D01*
D02*
G37*
G36*
X285933Y92603D02*
Y89083D01*
X289453D01*
X289380Y89640D01*
X288972Y90626D01*
X288322Y91472D01*
X287476Y92121D01*
X286491Y92530D01*
X285933Y92603D01*
D02*
G37*
G36*
X257193D02*
Y89083D01*
X260713D01*
X260640Y89640D01*
X260232Y90626D01*
X259582Y91472D01*
X258736Y92121D01*
X257751Y92530D01*
X257193Y92603D01*
D02*
G37*
G36*
X284933Y92603D02*
X284376Y92530D01*
X283390Y92121D01*
X282544Y91472D01*
X281894Y90626D01*
X281486Y89640D01*
X281413Y89083D01*
X284933D01*
Y92603D01*
D02*
G37*
G36*
X256193D02*
X255635Y92530D01*
X254650Y92121D01*
X253804Y91472D01*
X253154Y90626D01*
X252746Y89640D01*
X252673Y89083D01*
X256193D01*
Y92603D01*
D02*
G37*
G36*
X289453Y88083D02*
X285933D01*
Y84562D01*
X286491Y84636D01*
X287476Y85044D01*
X288322Y85693D01*
X288972Y86540D01*
X289380Y87525D01*
X289453Y88083D01*
D02*
G37*
G36*
X260713D02*
X257193D01*
Y84562D01*
X257751Y84636D01*
X258736Y85044D01*
X259582Y85693D01*
X260232Y86540D01*
X260640Y87525D01*
X260713Y88083D01*
D02*
G37*
G36*
X284933D02*
X281413D01*
X281486Y87525D01*
X281894Y86540D01*
X282544Y85693D01*
X283390Y85044D01*
X284376Y84636D01*
X284933Y84562D01*
Y88083D01*
D02*
G37*
G36*
X256193D02*
X252673D01*
X252746Y87525D01*
X253154Y86540D01*
X253804Y85693D01*
X254650Y85044D01*
X255635Y84636D01*
X256193Y84562D01*
Y88083D01*
D02*
G37*
G36*
X329272Y91324D02*
Y73268D01*
X347328D01*
X346970Y75378D01*
X346327Y77610D01*
X345438Y79757D01*
X344314Y81790D01*
X342969Y83685D01*
X341421Y85417D01*
X339689Y86965D01*
X337794Y88310D01*
X335761Y89434D01*
X333614Y90323D01*
X331382Y90966D01*
X329272Y91324D01*
D02*
G37*
G36*
X324272D02*
X322162Y90966D01*
X319929Y90323D01*
X317783Y89434D01*
X315749Y88310D01*
X313854Y86965D01*
X312122Y85417D01*
X310574Y83685D01*
X309229Y81790D01*
X308106Y79757D01*
X307217Y77610D01*
X306574Y75378D01*
X306215Y73268D01*
X324272D01*
Y91324D01*
D02*
G37*
G36*
X30059D02*
Y73268D01*
X48116D01*
X47757Y75378D01*
X47114Y77610D01*
X46225Y79757D01*
X45101Y81790D01*
X43757Y83685D01*
X42209Y85417D01*
X40476Y86965D01*
X38581Y88310D01*
X36548Y89434D01*
X34402Y90323D01*
X32169Y90966D01*
X30059Y91324D01*
D02*
G37*
G36*
X25059D02*
X22949Y90966D01*
X20717Y90323D01*
X18570Y89434D01*
X16537Y88310D01*
X14642Y86965D01*
X12910Y85417D01*
X11361Y83685D01*
X10017Y81790D01*
X8893Y79757D01*
X8004Y77610D01*
X7361Y75378D01*
X7002Y73268D01*
X25059D01*
Y91324D01*
D02*
G37*
G36*
X218504Y75613D02*
X217578Y75522D01*
X216687Y75252D01*
X215866Y74813D01*
X215147Y74223D01*
X214557Y73504D01*
X214118Y72683D01*
X214001Y72296D01*
X213510Y72187D01*
X212934Y72137D01*
X212467Y72450D01*
X211811Y72580D01*
X211155Y72450D01*
X210599Y72078D01*
X210227Y71522D01*
X210097Y70866D01*
X210227Y70210D01*
X210599Y69654D01*
X211155Y69283D01*
X211811Y69152D01*
X212467Y69283D01*
X212934Y69595D01*
X213510Y69546D01*
X214001Y69436D01*
X214118Y69049D01*
X214557Y68229D01*
X215147Y67509D01*
X215866Y66919D01*
X216687Y66480D01*
X217578Y66210D01*
X218504Y66119D01*
X219430Y66210D01*
X220321Y66480D01*
X221141Y66919D01*
X221861Y67509D01*
X222451Y68229D01*
X222890Y69049D01*
X223160Y69940D01*
X223251Y70866D01*
X223160Y71792D01*
X222890Y72683D01*
X222451Y73504D01*
X221861Y74223D01*
X221141Y74813D01*
X220321Y75252D01*
X219430Y75522D01*
X218504Y75613D01*
D02*
G37*
G36*
Y63802D02*
X217578Y63711D01*
X216687Y63441D01*
X215866Y63002D01*
X215147Y62412D01*
X214557Y61693D01*
X214118Y60872D01*
X214020Y60547D01*
X213384Y60369D01*
X212926Y60332D01*
X212467Y60639D01*
X211811Y60769D01*
X211155Y60639D01*
X210599Y60267D01*
X210227Y59711D01*
X210097Y59055D01*
X210227Y58399D01*
X210599Y57843D01*
X211155Y57472D01*
X211811Y57341D01*
X212467Y57472D01*
X212926Y57778D01*
X213384Y57742D01*
X214020Y57563D01*
X214118Y57238D01*
X214557Y56418D01*
X215147Y55698D01*
X215866Y55108D01*
X216687Y54669D01*
X217578Y54399D01*
X218504Y54308D01*
X219430Y54399D01*
X220321Y54669D01*
X221141Y55108D01*
X221861Y55698D01*
X222451Y56418D01*
X222890Y57238D01*
X223160Y58129D01*
X223251Y59055D01*
X223160Y59981D01*
X222890Y60872D01*
X222451Y61693D01*
X221861Y62412D01*
X221141Y63002D01*
X220321Y63441D01*
X219430Y63711D01*
X218504Y63802D01*
D02*
G37*
G36*
X153150Y65494D02*
X152494Y65363D01*
X151938Y64991D01*
X151566Y64435D01*
X151436Y63779D01*
X151514Y63386D01*
X151082Y62625D01*
X150865Y62402D01*
X150394D01*
Y57284D01*
X155905D01*
Y62402D01*
X155435D01*
X155218Y62625D01*
X154785Y63386D01*
X154864Y63779D01*
X154733Y64435D01*
X154362Y64991D01*
X153805Y65363D01*
X153150Y65494D01*
D02*
G37*
G36*
X90945Y60958D02*
X89943Y60826D01*
X89009Y60440D01*
X88207Y59824D01*
X87592Y59022D01*
X87205Y58089D01*
X87073Y57087D01*
X87205Y56085D01*
X87592Y55151D01*
X88207Y54349D01*
X89009Y53734D01*
X89943Y53347D01*
X90945Y53215D01*
X91947Y53347D01*
X92881Y53734D01*
X93683Y54349D01*
X94298Y55151D01*
X94685Y56085D01*
X94817Y57087D01*
X94685Y58089D01*
X94298Y59022D01*
X93683Y59824D01*
X92881Y60440D01*
X91947Y60826D01*
X90945Y60958D01*
D02*
G37*
G36*
X347328Y68268D02*
X329272D01*
Y50211D01*
X331382Y50569D01*
X333614Y51213D01*
X335761Y52102D01*
X337794Y53226D01*
X339689Y54570D01*
X341421Y56118D01*
X342969Y57850D01*
X344314Y59745D01*
X345438Y61779D01*
X346327Y63925D01*
X346970Y66158D01*
X347328Y68268D01*
D02*
G37*
G36*
X324272D02*
X306215D01*
X306574Y66158D01*
X307217Y63925D01*
X308106Y61779D01*
X309229Y59745D01*
X310574Y57850D01*
X312122Y56118D01*
X313854Y54570D01*
X315749Y53226D01*
X317783Y52102D01*
X319929Y51213D01*
X322162Y50569D01*
X324272Y50211D01*
Y68268D01*
D02*
G37*
G36*
X48116D02*
X30059D01*
Y50211D01*
X32169Y50569D01*
X34402Y51213D01*
X36548Y52102D01*
X38581Y53226D01*
X40476Y54570D01*
X42209Y56118D01*
X43757Y57850D01*
X45101Y59745D01*
X46225Y61779D01*
X47114Y63925D01*
X47757Y66158D01*
X48116Y68268D01*
D02*
G37*
G36*
X25059D02*
X7002D01*
X7361Y66158D01*
X8004Y63925D01*
X8893Y61779D01*
X10017Y59745D01*
X11361Y57850D01*
X12910Y56118D01*
X14642Y54570D01*
X16537Y53226D01*
X18570Y52102D01*
X20717Y51213D01*
X22949Y50569D01*
X25059Y50211D01*
Y68268D01*
D02*
G37*
G36*
X167126Y50631D02*
X166470Y50501D01*
X165914Y50129D01*
X165542Y49573D01*
X165412Y48917D01*
X165510Y48425D01*
X165414Y48237D01*
X164961Y47441D01*
X164961Y47441D01*
X164961Y47441D01*
Y44128D01*
X164370Y43643D01*
X163714Y43513D01*
X163158Y43141D01*
X162786Y42585D01*
X162656Y41929D01*
X162786Y41273D01*
X163075Y40842D01*
X163338Y39910D01*
X163142Y39617D01*
X163073Y39272D01*
Y37500D01*
X163142Y37154D01*
X163338Y36861D01*
X163631Y36666D01*
X163976Y36597D01*
X164764D01*
X165109Y36666D01*
X165354Y36829D01*
X165599Y36666D01*
X165945Y36597D01*
X166732D01*
X167078Y36666D01*
X167323Y36829D01*
X167568Y36666D01*
X167913Y36597D01*
X168701D01*
X169046Y36666D01*
X169339Y36861D01*
X169535Y37154D01*
X169604Y37500D01*
Y39272D01*
X169535Y39617D01*
X169339Y39910D01*
X169786Y40796D01*
X169953Y40963D01*
X170473Y40748D01*
Y40748D01*
X175984D01*
Y40748D01*
X176378D01*
Y40748D01*
X181890D01*
Y41154D01*
X182783Y41708D01*
X182874Y41710D01*
X183465Y41593D01*
X184121Y41723D01*
X184677Y42095D01*
X185048Y42651D01*
X185179Y43307D01*
X185048Y43963D01*
X184677Y44519D01*
X184121Y44891D01*
X183465Y45021D01*
X182874Y44904D01*
X182783Y44906D01*
X181890Y45460D01*
Y45866D01*
X176378D01*
Y45866D01*
X175984D01*
Y45866D01*
X170473D01*
Y45072D01*
X170276Y44922D01*
X169291Y45408D01*
Y47441D01*
X169291D01*
X168838Y48237D01*
X168742Y48425D01*
X168840Y48917D01*
X168710Y49573D01*
X168338Y50129D01*
X167782Y50501D01*
X167126Y50631D01*
D02*
G37*
G36*
X218504Y51991D02*
X217578Y51900D01*
X216687Y51630D01*
X215866Y51191D01*
X215147Y50601D01*
X214557Y49882D01*
X214118Y49061D01*
X213848Y48170D01*
X213846Y48155D01*
X212205D01*
X211856Y48086D01*
X211560Y47888D01*
X210462Y46790D01*
X209842Y47047D01*
Y47047D01*
X204331D01*
Y46641D01*
X203437Y46087D01*
X203346Y46085D01*
X202756Y46202D01*
X202100Y46072D01*
X201544Y45700D01*
X201172Y45144D01*
X201042Y44488D01*
X201172Y43832D01*
X201544Y43276D01*
X202100Y42905D01*
X202756Y42774D01*
X203346Y42892D01*
X203437Y42889D01*
X204331Y42335D01*
Y41929D01*
X209842D01*
Y43676D01*
X210093Y43844D01*
X212582Y46333D01*
X213846D01*
X213848Y46318D01*
X214118Y45427D01*
X214557Y44607D01*
X215147Y43887D01*
X215866Y43297D01*
X216687Y42858D01*
X217578Y42588D01*
X218504Y42497D01*
X219430Y42588D01*
X220321Y42858D01*
X221141Y43297D01*
X221861Y43887D01*
X222451Y44607D01*
X222890Y45427D01*
X223160Y46318D01*
X223251Y47244D01*
X223160Y48170D01*
X222890Y49061D01*
X222451Y49882D01*
X221861Y50601D01*
X221141Y51191D01*
X220321Y51630D01*
X219430Y51900D01*
X218504Y51991D01*
D02*
G37*
G36*
X150000Y56102D02*
Y56102D01*
X149438Y56102D01*
X144488D01*
Y50984D01*
X145616D01*
X145945Y50368D01*
X145473Y49409D01*
X145473D01*
Y44311D01*
X142717D01*
Y46260D01*
X140836D01*
X140801Y47244D01*
X140873Y47316D01*
X141092Y47644D01*
X141169Y48031D01*
Y48622D01*
X143110D01*
Y54528D01*
X137205D01*
Y48622D01*
X138045D01*
X138217Y48491D01*
X138752Y47638D01*
Y46260D01*
X136811D01*
Y40354D01*
X142717D01*
Y42288D01*
X146439D01*
X147816Y40911D01*
X148144Y40691D01*
X148531Y40614D01*
X150623D01*
X150757Y40414D01*
X151313Y40042D01*
X151969Y39912D01*
X152624Y40042D01*
X153181Y40414D01*
X153314Y40614D01*
X156566D01*
X157009Y40171D01*
X157338Y39952D01*
X157236Y39617D01*
X157168Y39272D01*
Y37500D01*
X157236Y37154D01*
X157432Y36861D01*
X157725Y36666D01*
X158071Y36597D01*
X158858D01*
X159204Y36666D01*
X159449Y36829D01*
X159694Y36666D01*
X160039Y36597D01*
X160827D01*
X161172Y36666D01*
X161465Y36861D01*
X161661Y37154D01*
X161730Y37500D01*
Y39272D01*
X161661Y39617D01*
X161465Y39910D01*
X161344Y39991D01*
Y40361D01*
X161275Y40710D01*
X161077Y41006D01*
X158465Y43619D01*
Y49409D01*
X152559D01*
Y44922D01*
X151863Y44226D01*
X151378D01*
Y49409D01*
X150053D01*
X149663Y50139D01*
X150215Y50984D01*
X150394Y50984D01*
Y50984D01*
X155905D01*
Y56102D01*
X150956D01*
X150394Y56102D01*
X150394Y56102D01*
X150000Y56102D01*
D02*
G37*
G36*
X134843Y54528D02*
X128937D01*
Y48622D01*
X130878D01*
Y47638D01*
X130955Y47251D01*
X130960Y47244D01*
X130574Y46362D01*
X130465Y46260D01*
X129724D01*
Y40354D01*
X135630D01*
Y46260D01*
X133689D01*
Y46850D01*
X133612Y47238D01*
X133393Y47566D01*
X133320Y47638D01*
X133728Y48622D01*
X134843D01*
Y54528D01*
D02*
G37*
G36*
X209842Y40748D02*
X204331D01*
Y40342D01*
X203437Y39788D01*
X203346Y39786D01*
X202756Y39903D01*
X202100Y39772D01*
X201544Y39401D01*
X201172Y38845D01*
X201042Y38189D01*
X201172Y37533D01*
X201544Y36977D01*
X202100Y36605D01*
X202756Y36475D01*
X203346Y36592D01*
X203437Y36590D01*
X204331Y36036D01*
Y35630D01*
X209842D01*
Y35630D01*
X210741Y36002D01*
X211954Y34789D01*
X212250Y34591D01*
X212598Y34522D01*
X213846D01*
X213848Y34507D01*
X214118Y33616D01*
X214557Y32796D01*
X215147Y32076D01*
X215866Y31486D01*
X216687Y31047D01*
X217578Y30777D01*
X218504Y30686D01*
X219430Y30777D01*
X220321Y31047D01*
X221141Y31486D01*
X221861Y32076D01*
X222451Y32796D01*
X222890Y33616D01*
X223160Y34507D01*
X223251Y35433D01*
X223160Y36359D01*
X222890Y37250D01*
X222451Y38070D01*
X221861Y38790D01*
X221141Y39380D01*
X220321Y39819D01*
X219430Y40089D01*
X218504Y40180D01*
X217578Y40089D01*
X216687Y39819D01*
X215866Y39380D01*
X215147Y38790D01*
X214557Y38070D01*
X214118Y37250D01*
X213893Y36507D01*
X213194Y36421D01*
X212868Y36452D01*
X210487Y38833D01*
X210191Y39031D01*
X209842Y39100D01*
Y40748D01*
D02*
G37*
G36*
X181890Y39567D02*
X176378D01*
Y34449D01*
X178223D01*
Y30496D01*
X176000Y28273D01*
X170850D01*
X169501Y29623D01*
X169535Y29674D01*
X169604Y30020D01*
Y31791D01*
X169535Y32137D01*
X169339Y32430D01*
X169046Y32626D01*
X168701Y32695D01*
X167913D01*
X167568Y32626D01*
X167323Y32462D01*
X167078Y32626D01*
X166732Y32695D01*
X165945D01*
X165599Y32626D01*
X165354Y32462D01*
X165109Y32626D01*
X164764Y32695D01*
X163976D01*
X163631Y32626D01*
X163386Y32462D01*
X163141Y32626D01*
X162795Y32695D01*
X162008D01*
X161662Y32626D01*
X161417Y32462D01*
X161172Y32626D01*
X160827Y32695D01*
X160039D01*
X159744Y32937D01*
Y33187D01*
X157185D01*
Y31879D01*
X157168Y31791D01*
Y30020D01*
X157236Y29674D01*
X157323Y29544D01*
X154797Y27017D01*
X154577Y26689D01*
X154500Y26302D01*
Y20272D01*
X153150D01*
X152759Y20195D01*
X152429Y19974D01*
X152208Y19643D01*
X152130Y19253D01*
Y19180D01*
X151146Y19094D01*
X145669D01*
Y13976D01*
X146414D01*
X146930Y12992D01*
X146842Y12861D01*
X146711Y12205D01*
X146842Y11549D01*
X147213Y10993D01*
X147769Y10621D01*
X148425Y10491D01*
X149081Y10621D01*
X149637Y10993D01*
X150009Y11549D01*
X150139Y12205D01*
X150009Y12861D01*
X149921Y12992D01*
X150436Y13976D01*
X151146D01*
X151181Y13976D01*
X152130Y13891D01*
Y9449D01*
X152208Y9059D01*
X152429Y8728D01*
X152759Y8507D01*
X153150Y8429D01*
X181890Y8429D01*
X182280Y8507D01*
X182611Y8728D01*
X182832Y9059D01*
X182909Y9449D01*
X182909Y19253D01*
X182832Y19643D01*
X182611Y19974D01*
X182280Y20195D01*
X181890Y20272D01*
X181490D01*
X181365Y21251D01*
X181921Y21623D01*
X182292Y22179D01*
X182423Y22835D01*
X182292Y23491D01*
X181921Y24047D01*
X181365Y24418D01*
X180709Y24549D01*
X180118Y24431D01*
X180027Y24434D01*
X179134Y24988D01*
Y25394D01*
X177289D01*
Y26985D01*
X179778Y29474D01*
X179976Y29769D01*
X180045Y30118D01*
Y34449D01*
X181890D01*
Y39567D01*
D02*
G37*
G36*
X218504Y28369D02*
X217578Y28278D01*
X216687Y28008D01*
X215866Y27569D01*
X215147Y26979D01*
X214557Y26259D01*
X214118Y25439D01*
X213848Y24548D01*
X213846Y24533D01*
X212830D01*
X212629Y24834D01*
X212073Y25206D01*
X211417Y25336D01*
X210761Y25206D01*
X210205Y24834D01*
X209834Y24278D01*
X209703Y23622D01*
X209834Y22966D01*
X210205Y22410D01*
X210761Y22039D01*
X211417Y21908D01*
X212073Y22039D01*
X212629Y22410D01*
X212830Y22711D01*
X213846D01*
X213848Y22696D01*
X214118Y21805D01*
X214557Y20985D01*
X215147Y20265D01*
X215866Y19675D01*
X216687Y19236D01*
X217578Y18966D01*
X218504Y18875D01*
X219430Y18966D01*
X220321Y19236D01*
X221141Y19675D01*
X221861Y20265D01*
X222451Y20985D01*
X222890Y21805D01*
X223160Y22696D01*
X223251Y23622D01*
X223160Y24548D01*
X222890Y25439D01*
X222451Y26259D01*
X221861Y26979D01*
X221141Y27569D01*
X220321Y28008D01*
X219430Y28278D01*
X218504Y28369D01*
D02*
G37*
G36*
X71260Y60958D02*
X70258Y60826D01*
X69324Y60440D01*
X68522Y59824D01*
X67907Y59022D01*
X67520Y58089D01*
X67388Y57087D01*
X67520Y56085D01*
X67907Y55151D01*
X68522Y54349D01*
X69324Y53734D01*
X70258Y53347D01*
X70349Y53335D01*
Y30315D01*
X70418Y29966D01*
X70616Y29671D01*
X74803Y25483D01*
Y21457D01*
X80315D01*
Y21457D01*
X80709Y21457D01*
Y21457D01*
X86221D01*
Y26575D01*
X80709D01*
Y26575D01*
X80315Y26575D01*
Y26575D01*
X76289D01*
X72171Y30692D01*
Y53335D01*
X72262Y53347D01*
X73196Y53734D01*
X73998Y54349D01*
X74613Y55151D01*
X75000Y56085D01*
X75131Y57087D01*
X75000Y58089D01*
X74613Y59022D01*
X73998Y59824D01*
X73196Y60440D01*
X72262Y60826D01*
X71260Y60958D01*
D02*
G37*
G36*
X148425Y28092D02*
X147769Y27962D01*
X147213Y27590D01*
X146842Y27034D01*
X146711Y26378D01*
X145967Y25394D01*
X145669D01*
Y20276D01*
X151181D01*
Y25394D01*
X150883D01*
X150139Y26378D01*
X150009Y27034D01*
X149637Y27590D01*
X149081Y27962D01*
X148425Y28092D01*
D02*
G37*
G36*
X49161Y22035D02*
Y18216D01*
X52979D01*
X52896Y18851D01*
X52458Y19908D01*
X51761Y20817D01*
X50853Y21513D01*
X49796Y21951D01*
X49161Y22035D01*
D02*
G37*
G36*
X48161D02*
X47527Y21951D01*
X46469Y21513D01*
X45562Y20817D01*
X44865Y19908D01*
X44427Y18851D01*
X44343Y18216D01*
X48161D01*
Y22035D01*
D02*
G37*
G36*
X113256Y22035D02*
Y18216D01*
X117074D01*
X116990Y18851D01*
X116552Y19908D01*
X115856Y20817D01*
X114948Y21513D01*
X113891Y21951D01*
X113256Y22035D01*
D02*
G37*
G36*
X112256D02*
X111621Y21951D01*
X110564Y21513D01*
X109656Y20817D01*
X108959Y19908D01*
X108521Y18851D01*
X108438Y18216D01*
X112256D01*
Y22035D01*
D02*
G37*
G36*
X58661Y21886D02*
X57582Y21744D01*
X56577Y21327D01*
X55713Y20665D01*
X55050Y19801D01*
X54634Y18796D01*
X54492Y17717D01*
X54634Y16637D01*
X55050Y15632D01*
X55713Y14768D01*
X56577Y14106D01*
X57582Y13689D01*
X58661Y13547D01*
X59741Y13689D01*
X60746Y14106D01*
X61610Y14768D01*
X62272Y15632D01*
X62689Y16637D01*
X62711Y16805D01*
X74803D01*
Y15157D01*
X79724D01*
X80709Y15157D01*
X81299Y15157D01*
X86221D01*
Y16805D01*
X98706D01*
X98729Y16637D01*
X99145Y15632D01*
X99808Y14768D01*
X100671Y14106D01*
X101677Y13689D01*
X102756Y13547D01*
X103835Y13689D01*
X104841Y14106D01*
X105704Y14768D01*
X106367Y15632D01*
X106783Y16637D01*
X106925Y17717D01*
X106783Y18796D01*
X106367Y19801D01*
X105704Y20665D01*
X104841Y21327D01*
X103835Y21744D01*
X102756Y21886D01*
X101677Y21744D01*
X100671Y21327D01*
X99808Y20665D01*
X99145Y19801D01*
X98729Y18796D01*
X98706Y18628D01*
X86221D01*
Y20276D01*
X81299D01*
X80315Y20276D01*
X79724Y20276D01*
X74803D01*
Y18628D01*
X62711D01*
X62689Y18796D01*
X62272Y19801D01*
X61610Y20665D01*
X60746Y21327D01*
X59741Y21744D01*
X58661Y21886D01*
D02*
G37*
G36*
X52979Y17217D02*
X49161D01*
Y13398D01*
X49796Y13482D01*
X50853Y13920D01*
X51761Y14617D01*
X52458Y15525D01*
X52896Y16582D01*
X52979Y17217D01*
D02*
G37*
G36*
X48161D02*
X44343D01*
X44427Y16582D01*
X44865Y15525D01*
X45562Y14617D01*
X46469Y13920D01*
X47527Y13482D01*
X48161Y13398D01*
Y17217D01*
D02*
G37*
G36*
X117074Y17217D02*
X113256D01*
Y13398D01*
X113891Y13482D01*
X114948Y13920D01*
X115856Y14617D01*
X116552Y15525D01*
X116990Y16582D01*
X117074Y17217D01*
D02*
G37*
G36*
X112256D02*
X108438D01*
X108521Y16582D01*
X108959Y15525D01*
X109656Y14617D01*
X110564Y13920D01*
X111621Y13482D01*
X112256Y13398D01*
Y17217D01*
D02*
G37*
G36*
X218504Y16558D02*
X217578Y16467D01*
X216687Y16197D01*
X215866Y15758D01*
X215147Y15168D01*
X214557Y14448D01*
X214118Y13628D01*
X213848Y12737D01*
X213846Y12722D01*
X212830D01*
X212629Y13023D01*
X212073Y13395D01*
X211417Y13525D01*
X210761Y13395D01*
X210205Y13023D01*
X209834Y12467D01*
X209703Y11811D01*
X209834Y11155D01*
X210205Y10599D01*
X210761Y10227D01*
X211417Y10097D01*
X212073Y10227D01*
X212629Y10599D01*
X212830Y10900D01*
X213846D01*
X213848Y10885D01*
X214118Y9994D01*
X214557Y9174D01*
X215147Y8454D01*
X215866Y7864D01*
X216687Y7425D01*
X217578Y7155D01*
X218504Y7064D01*
X219430Y7155D01*
X220321Y7425D01*
X221141Y7864D01*
X221861Y8454D01*
X222451Y9174D01*
X222890Y9994D01*
X223160Y10885D01*
X223251Y11811D01*
X223160Y12737D01*
X222890Y13628D01*
X222451Y14448D01*
X221861Y15168D01*
X221141Y15758D01*
X220321Y16197D01*
X219430Y16467D01*
X218504Y16558D01*
D02*
G37*
G36*
X334646Y32508D02*
X332972Y32398D01*
X331327Y32071D01*
X329739Y31532D01*
X328234Y30790D01*
X326840Y29858D01*
X325579Y28752D01*
X324473Y27491D01*
X323541Y26096D01*
X322799Y24592D01*
X322260Y23004D01*
X321933Y21359D01*
X321823Y19685D01*
X321933Y18011D01*
X322260Y16366D01*
X322799Y14778D01*
X323541Y13274D01*
X324473Y11879D01*
X325579Y10618D01*
X326840Y9512D01*
X328234Y8580D01*
X329739Y7838D01*
X331327Y7299D01*
X332972Y6972D01*
X334646Y6862D01*
X336319Y6972D01*
X337964Y7299D01*
X339553Y7838D01*
X341057Y8580D01*
X342452Y9512D01*
X343713Y10618D01*
X344819Y11879D01*
X345750Y13274D01*
X346492Y14778D01*
X347031Y16366D01*
X347359Y18011D01*
X347468Y19685D01*
X347359Y21359D01*
X347031Y23004D01*
X346492Y24592D01*
X345750Y26096D01*
X344819Y27491D01*
X343713Y28752D01*
X342452Y29858D01*
X341057Y30790D01*
X339553Y31532D01*
X337964Y32071D01*
X336319Y32398D01*
X334646Y32508D01*
D02*
G37*
G36*
X19685D02*
X18011Y32398D01*
X16366Y32071D01*
X14778Y31532D01*
X13274Y30790D01*
X11879Y29858D01*
X10618Y28752D01*
X9512Y27491D01*
X8580Y26096D01*
X7838Y24592D01*
X7299Y23004D01*
X6972Y21359D01*
X6862Y19685D01*
X6972Y18011D01*
X7299Y16366D01*
X7838Y14778D01*
X8580Y13274D01*
X9512Y11879D01*
X10618Y10618D01*
X11879Y9512D01*
X13274Y8580D01*
X14778Y7838D01*
X16366Y7299D01*
X18011Y6972D01*
X19685Y6862D01*
X21359Y6972D01*
X23004Y7299D01*
X24592Y7838D01*
X26096Y8580D01*
X27491Y9512D01*
X28752Y10618D01*
X29858Y11879D01*
X30790Y13274D01*
X31532Y14778D01*
X32071Y16366D01*
X32398Y18011D01*
X32508Y19685D01*
X32398Y21359D01*
X32071Y23004D01*
X31532Y24592D01*
X30790Y26096D01*
X29858Y27491D01*
X28752Y28752D01*
X27491Y29858D01*
X26096Y30790D01*
X24592Y31532D01*
X23004Y32071D01*
X21359Y32398D01*
X19685Y32508D01*
D02*
G37*
%LPD*%
G36*
X181890Y19253D02*
X181890Y9449D01*
X153150Y9449D01*
X153150Y19253D01*
X181890Y19253D01*
D02*
G37*
D10*
X83465Y17717D02*
X102756D01*
X58661Y17717D02*
X77559D01*
X83464Y24016D02*
X83465Y24016D01*
X77559Y24016D02*
X83464D01*
X71260Y30315D02*
X77559Y24016D01*
X71260Y30315D02*
Y57087D01*
X211417Y23622D02*
X217717D01*
X170473Y27362D02*
X176378D01*
X168307Y29528D02*
X170473Y27362D01*
X168307Y29528D02*
Y30906D01*
X165479Y25976D02*
X169644D01*
X170472Y25148D01*
X164264Y27192D02*
X165479Y25976D01*
X164567Y22835D02*
Y25068D01*
X162402Y27233D02*
X164567Y25068D01*
X170472Y22835D02*
Y25148D01*
X211417Y11811D02*
X218504D01*
X176378Y22835D02*
X180709D01*
X179134Y30118D02*
Y37008D01*
X176378Y27362D02*
X179134Y30118D01*
X176378Y22835D02*
Y27362D01*
X212598Y35433D02*
X218504D01*
X209842Y38189D02*
X212598Y35433D01*
X207087Y38189D02*
X209842D01*
X202756D02*
X207087D01*
X212205Y47244D02*
X218504D01*
X209449Y44488D02*
X212205Y47244D01*
X207087Y44488D02*
X209449D01*
X207087Y44488D02*
X207087Y44488D01*
X202756Y44488D02*
X207087D01*
X158465Y38386D02*
Y40146D01*
X157725Y40886D02*
X158465Y40146D01*
X167126Y48917D02*
X167126Y48917D01*
Y44882D02*
Y48917D01*
X168307Y38386D02*
Y40748D01*
X164370Y81102D02*
X168504D01*
X168504Y81102D01*
X211811Y59055D02*
X218504D01*
X164264Y28911D02*
X164370Y29017D01*
X164264Y27192D02*
Y28911D01*
X164370Y29017D02*
Y30906D01*
X158465Y29254D02*
Y30906D01*
X160433Y28150D02*
Y30906D01*
X158661Y26378D02*
X160433Y28150D01*
X162402Y27233D02*
Y30906D01*
X157783Y43012D02*
X160433Y40361D01*
X156468Y43012D02*
X157783D01*
X155512Y43968D02*
X156468Y43012D01*
X160433Y38386D02*
Y40361D01*
X155512Y43968D02*
Y46457D01*
X161721Y41626D02*
Y44776D01*
Y41626D02*
X162402Y40945D01*
X161614Y44882D02*
X161721Y44776D01*
X162402Y38386D02*
Y40945D01*
X166339Y28051D02*
X166339Y28051D01*
Y30906D01*
X158661Y22835D02*
Y26378D01*
X148425Y22835D02*
Y26378D01*
X167126Y41732D02*
Y44882D01*
X166339Y40945D02*
X167126Y41732D01*
X164370Y38386D02*
Y41929D01*
X166339Y38386D02*
Y40945D01*
D14*
X217717Y23622D02*
X218504Y22835D01*
X139764Y43299D02*
X146858D01*
X179134Y43307D02*
X183465D01*
X148531Y41626D02*
X151969D01*
X146858Y43299D02*
X148531Y41626D01*
X139764Y43299D02*
Y43307D01*
X151969Y41626D02*
X156985D01*
X157725Y40886D01*
X170866Y43307D02*
X173228D01*
X168307Y40748D02*
X170866Y43307D01*
X211811Y70866D02*
X218504D01*
X148425Y12205D02*
Y16535D01*
X139764Y43307D02*
Y47638D01*
X140157Y48031D01*
X155512Y26302D02*
X158465Y29254D01*
X155512Y16142D02*
Y26302D01*
X131890Y47638D02*
Y51575D01*
Y47638D02*
X132677Y46850D01*
Y43307D02*
Y46850D01*
X140157Y51575D02*
X140157Y51575D01*
X140157Y48031D02*
Y51575D01*
X148425Y46457D02*
Y49606D01*
X147244Y50787D02*
X148425Y49606D01*
X147244Y50787D02*
Y53543D01*
X147244Y53543D01*
X153150D01*
Y59842D02*
Y63779D01*
X144488Y80315D02*
X144488Y80315D01*
X150197D01*
X173228Y43307D02*
X179134D01*
D17*
X245669Y171693D02*
D03*
Y187638D02*
D03*
D18*
X149370Y111614D02*
D03*
X154370D02*
D03*
X159370D02*
D03*
X164370D02*
D03*
D19*
Y88681D02*
D03*
X159370D02*
D03*
X154370D02*
D03*
X149370D02*
D03*
D20*
X147244Y53543D02*
D03*
Y59842D02*
D03*
X153150Y53543D02*
D03*
Y59842D02*
D03*
X77559Y17717D02*
D03*
Y24016D02*
D03*
X83465Y24016D02*
D03*
Y17717D02*
D03*
X148425Y16535D02*
D03*
Y22835D02*
D03*
X207087Y44488D02*
D03*
Y38189D02*
D03*
X173228Y43307D02*
D03*
Y37008D02*
D03*
X179134D02*
D03*
Y43307D02*
D03*
X176378Y16535D02*
D03*
Y22835D02*
D03*
X170472Y16535D02*
D03*
Y22835D02*
D03*
X164567Y16535D02*
D03*
Y22835D02*
D03*
X158661D02*
D03*
Y16535D02*
D03*
D21*
X131890Y58661D02*
D03*
Y51575D02*
D03*
X140157D02*
D03*
Y58661D02*
D03*
X164370Y81102D02*
D03*
Y74016D02*
D03*
D22*
X139764Y43307D02*
D03*
X132677D02*
D03*
X148425Y46457D02*
D03*
X155512D02*
D03*
D23*
X167126Y44882D02*
D03*
X161614D02*
D03*
D24*
X168307Y38386D02*
D03*
X166339D02*
D03*
X164370D02*
D03*
X162402D02*
D03*
X160433D02*
D03*
X158465D02*
D03*
Y30906D02*
D03*
X160433D02*
D03*
X162402D02*
D03*
X164370D02*
D03*
X166339D02*
D03*
X168307D02*
D03*
D25*
X162835Y168898D02*
D03*
Y175984D02*
D03*
D26*
X132283Y100394D02*
D03*
Y112205D02*
D03*
X119291Y100394D02*
D03*
Y112205D02*
D03*
X106299Y100394D02*
D03*
Y112205D02*
D03*
D27*
X228150Y187638D02*
D03*
X218307D02*
D03*
X208465D02*
D03*
X198622D02*
D03*
X188779D02*
D03*
X178937D02*
D03*
Y107638D02*
D03*
X188779D02*
D03*
X198622D02*
D03*
X208465D02*
D03*
X218307D02*
D03*
X228150D02*
D03*
D28*
X151024Y178740D02*
D03*
Y166142D02*
D03*
D29*
X162835Y162736D02*
D03*
Y149862D02*
D03*
D30*
X326772Y101969D02*
D03*
Y114567D02*
D03*
D31*
X138779Y80315D02*
D03*
X150197D02*
D03*
D32*
X158465Y31907D02*
D03*
Y32695D02*
D03*
D60*
X218504Y70866D02*
D03*
Y59055D02*
D03*
Y47244D02*
D03*
Y35433D02*
D03*
Y23622D02*
D03*
Y11811D02*
D03*
D61*
X163386Y34646D02*
D03*
D62*
X164370Y81102D02*
Y88976D01*
X164370Y70079D02*
Y74016D01*
X164370Y74016D02*
X164370Y74016D01*
X164370Y88976D02*
X164370Y88976D01*
D63*
X156870Y102657D02*
D03*
D64*
X102756Y17717D02*
D03*
X112756D02*
D03*
X48661Y17717D02*
D03*
X58661D02*
D03*
D65*
X27559Y145768D02*
D03*
X326772D02*
D03*
X27559Y70768D02*
D03*
X326772D02*
D03*
D66*
X334646Y196850D02*
D03*
X19685D02*
D03*
Y19685D02*
D03*
X334646D02*
D03*
D67*
X81102Y169027D02*
D03*
Y115157D02*
D03*
D68*
Y182807D02*
D03*
Y101378D02*
D03*
D69*
X285433Y88583D02*
D03*
Y127953D02*
D03*
X256693Y88583D02*
D03*
Y127953D02*
D03*
X90945Y57087D02*
D03*
X71260D02*
D03*
D70*
X159449Y74410D02*
D03*
X155512D02*
D03*
X151575D02*
D03*
X147638D02*
D03*
X141339D02*
D03*
X137402D02*
D03*
X129921Y88189D02*
D03*
Y84252D02*
D03*
Y80315D02*
D03*
Y76378D02*
D03*
Y72835D02*
D03*
X133858D02*
D03*
Y88189D02*
D03*
X208661Y152756D02*
D03*
X211417Y23622D02*
D03*
Y11811D02*
D03*
X180709Y22835D02*
D03*
X151969Y41626D02*
D03*
X202756Y44488D02*
D03*
X183465Y43307D02*
D03*
X140157Y111024D02*
D03*
X167126Y48917D02*
D03*
X202756Y38189D02*
D03*
X168504Y81102D02*
D03*
X211811Y59055D02*
D03*
Y70866D02*
D03*
X148425Y12205D02*
D03*
X147638Y63779D02*
D03*
X143701D02*
D03*
X139764Y62992D02*
D03*
X135827D02*
D03*
X127953D02*
D03*
X131890D02*
D03*
X133858Y76378D02*
D03*
Y84252D02*
D03*
Y80315D02*
D03*
X135827Y105512D02*
D03*
X128740D02*
D03*
X132283D02*
D03*
X122835D02*
D03*
X115748D02*
D03*
X119291D02*
D03*
X109843D02*
D03*
X102756D02*
D03*
X106299D02*
D03*
X153150Y63779D02*
D03*
X144488Y80315D02*
D03*
X166339Y28051D02*
D03*
X158661Y26378D02*
D03*
X148425D02*
D03*
X164370Y70079D02*
D03*
Y41929D02*
D03*
D71*
X166929Y34646D02*
D03*
X163386D02*
D03*
X159744D02*
D03*
M02*
