M48
;Layer_Color=9474304
;FILE_FORMAT=2:5
INCH,TZ
;TYPE=PLATED
T1F00S00C0.00787
T2F00S00C0.01181
T3F00S00C0.01968
T4F00S00C0.03346
T5F00S00C0.03543
T6F00S00C0.03937
T7F00S00C0.12205
T8F00S00C0.21299
%
T01
X159744Y34646
X163386
X166929
T02
X148425Y12205
Y26378
X158661
X166339Y28051
X164370Y41929
X167126Y48917
X183465Y43307
X202756Y44488
Y38189
X211417Y23622
Y11811
X180709Y22835
X151969Y41626
X153150Y63779
X147638
X143701
X139764Y62992
X135827
X131890
X127953
X129921Y72835
Y76378
Y80315
Y84252
Y88189
X133858
Y84252
Y80315
Y76378
Y72835
X137402Y74410
X141339
X147638
X151575
X155512
X159449
X164370Y70079
X168504Y81102
X144488Y80315
X135827Y105512
X132283
X128740
X122835
X119291
X115748
X109843
X106299
X102756
X140157Y111024
X208661Y152756
X211811Y70866
Y59055
T03
X12008Y15256
Y24114
X19685Y28543
X27362Y24114
Y15256
X19685Y10827
X326969Y15256
Y24114
X334646Y28543
X342323Y24114
Y15256
X334646Y10827
Y187992
X326969Y192421
Y201279
X334646Y205709
X342323Y201279
Y192421
X27362
Y201279
X19685Y205709
X12008Y201279
Y192421
X19685Y187992
T04
X256693Y88583
X285433
Y127953
X256693
X90945Y57087
X71260
T05
X81102Y101378
Y115157
Y169027
Y182807
T06
X48661Y17717
X58661
X102756Y17717
X112756
T07
X19685Y19685
X334646
Y196850
X19685
T08
X326772Y70768
Y145768
X27559
Y70768
M30
