G04*
G04 #@! TF.GenerationSoftware,Altium Limited,Altium Designer,18.1.9 (240)*
G04*
G04 Layer_Color=8388736*
%FSLAX25Y25*%
%MOIN*%
G70*
G01*
G75*
%ADD33R,0.13780X0.67717*%
%ADD34R,0.06509X0.05328*%
%ADD35R,0.05131X0.05131*%
%ADD36R,0.06902X0.06115*%
%ADD37R,0.01784X0.01784*%
%ADD38R,0.07690X0.11233*%
%ADD39R,0.03162X0.03950*%
%ADD40R,0.02769X0.04147*%
%ADD41R,0.04737X0.04343*%
%ADD42C,0.08674*%
%ADD43R,0.05131X0.05131*%
%ADD44R,0.03556X0.04343*%
G04:AMPARAMS|DCode=45|XSize=27.69mil|YSize=17.84mil|CornerRadius=4.98mil|HoleSize=0mil|Usage=FLASHONLY|Rotation=270.000|XOffset=0mil|YOffset=0mil|HoleType=Round|Shape=RoundedRectangle|*
%AMROUNDEDRECTD45*
21,1,0.02769,0.00787,0,0,270.0*
21,1,0.01772,0.01784,0,0,270.0*
1,1,0.00997,-0.00394,-0.00886*
1,1,0.00997,-0.00394,0.00886*
1,1,0.00997,0.00394,0.00886*
1,1,0.00997,0.00394,-0.00886*
%
%ADD45ROUNDEDRECTD45*%
G04:AMPARAMS|DCode=46|XSize=47.37mil|YSize=112.33mil|CornerRadius=4.98mil|HoleSize=0mil|Usage=FLASHONLY|Rotation=270.000|XOffset=0mil|YOffset=0mil|HoleType=Round|Shape=RoundedRectangle|*
%AMROUNDEDRECTD46*
21,1,0.04737,0.10236,0,0,270.0*
21,1,0.03740,0.11233,0,0,270.0*
1,1,0.00997,-0.05118,-0.01870*
1,1,0.00997,-0.05118,0.01870*
1,1,0.00997,0.05118,0.01870*
1,1,0.00997,0.05118,-0.01870*
%
%ADD46ROUNDEDRECTD46*%
%ADD47R,0.11430X0.05328*%
%ADD48R,0.07800X0.14300*%
%ADD49R,0.11824X0.06115*%
%ADD50R,0.04816X0.04265*%
%ADD51R,0.08280X0.06115*%
%ADD52R,0.05328X0.07887*%
%ADD53R,0.18162X0.15564*%
%ADD54C,0.40170*%
%ADD55C,0.24816*%
%ADD56C,0.00800*%
%ADD57R,0.06312X0.06312*%
%ADD58C,0.06312*%
%ADD59C,0.06902*%
D33*
X193898Y41339D02*
D03*
D34*
X177953Y195669D02*
D03*
Y188583D02*
D03*
X170079Y195669D02*
D03*
Y188583D02*
D03*
D35*
X83071Y16535D02*
D03*
X90158D02*
D03*
X100394Y43307D02*
D03*
X93307D02*
D03*
X109055Y46457D02*
D03*
X116142D02*
D03*
D36*
X123228Y169291D02*
D03*
Y161417D02*
D03*
D37*
X119095Y31907D02*
D03*
Y32695D02*
D03*
D38*
X211024Y171693D02*
D03*
Y187638D02*
D03*
D39*
X110000Y111614D02*
D03*
X115000D02*
D03*
X120000D02*
D03*
X125000D02*
D03*
D40*
Y88681D02*
D03*
X120000D02*
D03*
X115000D02*
D03*
X110000D02*
D03*
D41*
X107874Y53543D02*
D03*
Y59842D02*
D03*
X113779Y53543D02*
D03*
Y59842D02*
D03*
X109055Y16535D02*
D03*
Y22835D02*
D03*
X167717Y44488D02*
D03*
Y38189D02*
D03*
X133858Y43307D02*
D03*
Y37008D02*
D03*
X139764D02*
D03*
Y43307D02*
D03*
X137008Y16535D02*
D03*
Y22835D02*
D03*
X131102Y16535D02*
D03*
Y22835D02*
D03*
X125197Y16535D02*
D03*
Y22835D02*
D03*
X119291D02*
D03*
Y16535D02*
D03*
D42*
X179134Y70866D02*
D03*
Y59055D02*
D03*
Y47244D02*
D03*
Y35433D02*
D03*
Y23622D02*
D03*
Y11811D02*
D03*
D43*
X92520Y58661D02*
D03*
Y51575D02*
D03*
X100787D02*
D03*
Y58661D02*
D03*
X125000Y81102D02*
D03*
Y74016D02*
D03*
D44*
X127756Y44882D02*
D03*
X122244D02*
D03*
D45*
X128937Y38386D02*
D03*
X126969D02*
D03*
X125000D02*
D03*
X123031D02*
D03*
X121063D02*
D03*
X119095D02*
D03*
Y30906D02*
D03*
X121063D02*
D03*
X123031D02*
D03*
X125000D02*
D03*
X126969D02*
D03*
X128937D02*
D03*
D46*
X124016Y34646D02*
D03*
D47*
X159843Y199606D02*
D03*
Y187795D02*
D03*
X147244Y199606D02*
D03*
Y187795D02*
D03*
X134646Y199606D02*
D03*
Y187795D02*
D03*
D48*
X188779Y173858D02*
D03*
X178937D02*
D03*
X169095D02*
D03*
X159252D02*
D03*
X149409D02*
D03*
X139567D02*
D03*
Y93858D02*
D03*
X149409D02*
D03*
X159252D02*
D03*
X169095D02*
D03*
X178937D02*
D03*
X188779D02*
D03*
D49*
X110630Y171653D02*
D03*
Y159055D02*
D03*
D50*
X116929Y151319D02*
D03*
Y138445D02*
D03*
D51*
X287402Y101969D02*
D03*
Y114567D02*
D03*
D52*
X99410Y80315D02*
D03*
X110827D02*
D03*
D53*
X117500Y102657D02*
D03*
D54*
X27559Y145768D02*
D03*
X287402D02*
D03*
X27559Y70768D02*
D03*
X287402D02*
D03*
D55*
X295276Y196850D02*
D03*
X19685D02*
D03*
Y19685D02*
D03*
X295276D02*
D03*
D56*
Y205709D02*
D03*
X287598Y201279D02*
D03*
Y192421D02*
D03*
X295276Y187992D02*
D03*
X302953Y192421D02*
D03*
Y201279D02*
D03*
X19685Y205709D02*
D03*
X12008Y201279D02*
D03*
Y192421D02*
D03*
X19685Y187992D02*
D03*
X27362Y192421D02*
D03*
Y201279D02*
D03*
X19685Y28543D02*
D03*
X12008Y24114D02*
D03*
Y15256D02*
D03*
X19685Y10827D02*
D03*
X27362Y15256D02*
D03*
Y24114D02*
D03*
X295276Y28543D02*
D03*
X287598Y24114D02*
D03*
Y15256D02*
D03*
X295276Y10827D02*
D03*
X302953Y15256D02*
D03*
Y24114D02*
D03*
D57*
X77559Y169488D02*
D03*
Y114764D02*
D03*
D58*
Y183268D02*
D03*
Y100984D02*
D03*
D59*
X246063Y88583D02*
D03*
Y127953D02*
D03*
X217323Y88583D02*
D03*
Y127953D02*
D03*
M02*
