G04*
G04 #@! TF.GenerationSoftware,Altium Limited,Altium Designer,18.1.9 (240)*
G04*
G04 Layer_Physical_Order=2*
G04 Layer_Color=16711680*
%FSLAX25Y25*%
%MOIN*%
G70*
G01*
G75*
%ADD10C,0.00787*%
%ADD14C,0.00984*%
%ADD63C,0.01968*%
%ADD66C,0.24016*%
%ADD67R,0.05512X0.05512*%
%ADD68C,0.05512*%
%ADD69C,0.06102*%
%ADD70C,0.02362*%
%ADD71C,0.01575*%
%ADD72C,0.27559*%
G36*
X298889Y215015D02*
X301229Y214388D01*
X303467Y213461D01*
X305565Y212250D01*
X307487Y210775D01*
X309200Y209062D01*
X310675Y207140D01*
X311886Y205042D01*
X312813Y202804D01*
X313440Y200464D01*
X313756Y198062D01*
Y196850D01*
Y19685D01*
Y18474D01*
X313440Y16072D01*
X312813Y13732D01*
X311886Y11494D01*
X310675Y9396D01*
X309200Y7474D01*
X307487Y5761D01*
X305565Y4286D01*
X303467Y3074D01*
X301229Y2147D01*
X298889Y1520D01*
X296487Y1204D01*
X18474D01*
X16072Y1520D01*
X13732Y2147D01*
X11494Y3074D01*
X9396Y4286D01*
X7474Y5761D01*
X5761Y7474D01*
X4286Y9396D01*
X3074Y11494D01*
X2147Y13732D01*
X1520Y16072D01*
X1204Y18474D01*
Y19685D01*
Y196850D01*
Y198062D01*
X1520Y200464D01*
X2147Y202804D01*
X3074Y205042D01*
X4286Y207140D01*
X5761Y209062D01*
X7474Y210775D01*
X9396Y212250D01*
X11494Y213461D01*
X13732Y214388D01*
X16072Y215015D01*
X18474Y215331D01*
X296487D01*
X298889Y215015D01*
D02*
G37*
%LPC*%
G36*
X295276Y209685D02*
X293268Y209527D01*
X291309Y209057D01*
X289449Y208286D01*
X287732Y207234D01*
X286200Y205926D01*
X284892Y204395D01*
X283840Y202677D01*
X283069Y200817D01*
X282599Y198858D01*
X282441Y196850D01*
X282599Y194843D01*
X283069Y192884D01*
X283840Y191024D01*
X284892Y189306D01*
X286200Y187775D01*
X287732Y186467D01*
X289449Y185415D01*
X291309Y184644D01*
X293268Y184174D01*
X295276Y184016D01*
X297283Y184174D01*
X299242Y184644D01*
X301102Y185415D01*
X302820Y186467D01*
X304351Y187775D01*
X305659Y189306D01*
X306712Y191024D01*
X307482Y192884D01*
X307952Y194843D01*
X308110Y196850D01*
X307952Y198858D01*
X307482Y200817D01*
X306712Y202677D01*
X305659Y204395D01*
X304351Y205926D01*
X302820Y207234D01*
X301102Y208286D01*
X299242Y209057D01*
X297283Y209527D01*
X295276Y209685D01*
D02*
G37*
G36*
X19685D02*
X17677Y209527D01*
X15719Y209057D01*
X13858Y208286D01*
X12141Y207234D01*
X10609Y205926D01*
X9301Y204395D01*
X8249Y202677D01*
X7478Y200817D01*
X7008Y198858D01*
X6850Y196850D01*
X7008Y194843D01*
X7478Y192884D01*
X8249Y191024D01*
X9301Y189306D01*
X10609Y187775D01*
X12141Y186467D01*
X13858Y185415D01*
X15719Y184644D01*
X17677Y184174D01*
X19685Y184016D01*
X21693Y184174D01*
X23651Y184644D01*
X25512Y185415D01*
X27229Y186467D01*
X28761Y187775D01*
X30069Y189306D01*
X31121Y191024D01*
X31892Y192884D01*
X32362Y194843D01*
X32520Y196850D01*
X32362Y198858D01*
X31892Y200817D01*
X31121Y202677D01*
X30069Y204395D01*
X28761Y205926D01*
X27229Y207234D01*
X25512Y208286D01*
X23651Y209057D01*
X21693Y209527D01*
X19685Y209685D01*
D02*
G37*
G36*
X78059Y186990D02*
Y183768D01*
X81282D01*
X81218Y184248D01*
X80840Y185162D01*
X80238Y185947D01*
X79453Y186548D01*
X78540Y186927D01*
X78059Y186990D01*
D02*
G37*
G36*
X77059Y186990D02*
X76579Y186927D01*
X75665Y186548D01*
X74880Y185947D01*
X74278Y185162D01*
X73900Y184248D01*
X73837Y183768D01*
X77059D01*
Y186990D01*
D02*
G37*
G36*
Y182768D02*
X73837D01*
X73900Y182287D01*
X74278Y181374D01*
X74880Y180589D01*
X75665Y179987D01*
X76579Y179609D01*
X77059Y179545D01*
Y182768D01*
D02*
G37*
G36*
X81282D02*
X78059D01*
Y179545D01*
X78540Y179609D01*
X79453Y179987D01*
X80238Y180589D01*
X80840Y181374D01*
X81218Y182287D01*
X81282Y182768D01*
D02*
G37*
G36*
X81102Y173031D02*
X74016D01*
Y165945D01*
X81102D01*
Y173031D01*
D02*
G37*
G36*
X27559Y160380D02*
X25273Y160200D01*
X23044Y159664D01*
X20925Y158787D01*
X18970Y157589D01*
X17227Y156100D01*
X15738Y154356D01*
X14540Y152401D01*
X13662Y150283D01*
X13127Y148054D01*
X12947Y145768D01*
X13127Y143482D01*
X13662Y141252D01*
X14540Y139134D01*
X15738Y137179D01*
X16568Y136207D01*
X3615Y123255D01*
X3396Y122926D01*
X3319Y122539D01*
Y63386D01*
X3396Y62999D01*
X3615Y62670D01*
X20938Y45348D01*
X21266Y45128D01*
X21654Y45051D01*
X113754D01*
X120938Y37867D01*
X121266Y37648D01*
X121653Y37571D01*
X126772D01*
X127159Y37648D01*
X127487Y37867D01*
X131915Y42296D01*
X142749D01*
X142883Y42095D01*
X143439Y41723D01*
X144095Y41593D01*
X144750Y41723D01*
X145307Y42095D01*
X145678Y42651D01*
X145808Y43307D01*
X145678Y43963D01*
X145307Y44519D01*
X144750Y44891D01*
X144095Y45021D01*
X143439Y44891D01*
X142883Y44519D01*
X142749Y44319D01*
X131496D01*
X131109Y44242D01*
X130781Y44022D01*
X126353Y39594D01*
X122073D01*
X114889Y46778D01*
X114560Y46998D01*
X114173Y47074D01*
X22072D01*
X5342Y63805D01*
Y122120D01*
X17998Y134776D01*
X18970Y133946D01*
X20925Y132748D01*
X23044Y131871D01*
X25273Y131336D01*
X27559Y131156D01*
X29845Y131336D01*
X32074Y131871D01*
X34193Y132748D01*
X36148Y133946D01*
X37891Y135435D01*
X39380Y137179D01*
X40578Y139134D01*
X41456Y141252D01*
X41991Y143482D01*
X42171Y145768D01*
X41991Y148054D01*
X41456Y150283D01*
X40578Y152401D01*
X39380Y154356D01*
X37891Y156100D01*
X36148Y157589D01*
X34193Y158787D01*
X32074Y159664D01*
X29845Y160200D01*
X27559Y160380D01*
D02*
G37*
G36*
X246063Y131825D02*
X245061Y131693D01*
X244127Y131306D01*
X243325Y130691D01*
X242710Y129889D01*
X242323Y128955D01*
X242191Y127953D01*
X242323Y126951D01*
X242710Y126017D01*
X243325Y125215D01*
X244127Y124600D01*
X245061Y124213D01*
X246063Y124081D01*
X247065Y124213D01*
X247999Y124600D01*
X248801Y125215D01*
X249416Y126017D01*
X249803Y126951D01*
X249935Y127953D01*
X249803Y128955D01*
X249416Y129889D01*
X248801Y130691D01*
X247999Y131306D01*
X247065Y131693D01*
X246063Y131825D01*
D02*
G37*
G36*
X217323D02*
X216321Y131693D01*
X215387Y131306D01*
X214585Y130691D01*
X213970Y129889D01*
X213583Y128955D01*
X213451Y127953D01*
X213583Y126951D01*
X213970Y126017D01*
X214585Y125215D01*
X215387Y124600D01*
X216321Y124213D01*
X217323Y124081D01*
X218325Y124213D01*
X219259Y124600D01*
X220060Y125215D01*
X220676Y126017D01*
X221063Y126951D01*
X221195Y127953D01*
X221063Y128955D01*
X220676Y129889D01*
X220060Y130691D01*
X219259Y131306D01*
X218325Y131693D01*
X217323Y131825D01*
D02*
G37*
G36*
X81102Y118307D02*
X74016D01*
Y111221D01*
X81102D01*
Y118307D01*
D02*
G37*
G36*
X196457Y109194D02*
X195801Y109064D01*
X195245Y108692D01*
X195111Y108492D01*
X186614D01*
X186227Y108415D01*
X185899Y108196D01*
X178419Y100715D01*
X178199Y100387D01*
X178122Y100000D01*
Y77978D01*
X172677Y72533D01*
X172441Y72580D01*
X171785Y72450D01*
X171229Y72078D01*
X170857Y71522D01*
X170727Y70866D01*
X170857Y70210D01*
X171229Y69654D01*
X171785Y69283D01*
X172441Y69152D01*
X173097Y69283D01*
X173653Y69654D01*
X174024Y70210D01*
X174155Y70866D01*
X174108Y71103D01*
X179849Y76844D01*
X180068Y77172D01*
X180145Y77559D01*
Y99581D01*
X187033Y106469D01*
X195111D01*
X195245Y106268D01*
X195801Y105897D01*
X196457Y105766D01*
X197113Y105897D01*
X197669Y106268D01*
X198040Y106824D01*
X198171Y107480D01*
X198040Y108136D01*
X197669Y108692D01*
X197113Y109064D01*
X196457Y109194D01*
D02*
G37*
G36*
X78059Y104707D02*
Y101484D01*
X81282D01*
X81218Y101965D01*
X80840Y102878D01*
X80238Y103663D01*
X79453Y104265D01*
X78540Y104643D01*
X78059Y104707D01*
D02*
G37*
G36*
X77059D02*
X76579Y104643D01*
X75665Y104265D01*
X74880Y103663D01*
X74278Y102878D01*
X73900Y101965D01*
X73837Y101484D01*
X77059D01*
Y104707D01*
D02*
G37*
G36*
X81282Y100484D02*
X78059D01*
Y97262D01*
X78540Y97325D01*
X79453Y97703D01*
X80238Y98305D01*
X80840Y99090D01*
X81218Y100004D01*
X81282Y100484D01*
D02*
G37*
G36*
X77059D02*
X73837D01*
X73900Y100004D01*
X74278Y99090D01*
X74880Y98305D01*
X75665Y97703D01*
X76579Y97325D01*
X77059Y97262D01*
Y100484D01*
D02*
G37*
G36*
X246563Y92603D02*
Y89083D01*
X250083D01*
X250010Y89640D01*
X249602Y90626D01*
X248952Y91472D01*
X248106Y92121D01*
X247121Y92530D01*
X246563Y92603D01*
D02*
G37*
G36*
X217823D02*
Y89083D01*
X221343D01*
X221270Y89640D01*
X220862Y90626D01*
X220212Y91472D01*
X219366Y92121D01*
X218380Y92530D01*
X217823Y92603D01*
D02*
G37*
G36*
X245563Y92603D02*
X245005Y92530D01*
X244020Y92121D01*
X243174Y91472D01*
X242524Y90626D01*
X242116Y89640D01*
X242043Y89083D01*
X245563D01*
Y92603D01*
D02*
G37*
G36*
X216823D02*
X216265Y92530D01*
X215280Y92121D01*
X214434Y91472D01*
X213784Y90626D01*
X213376Y89640D01*
X213302Y89083D01*
X216823D01*
Y92603D01*
D02*
G37*
G36*
X221343Y88083D02*
X217823D01*
Y84562D01*
X218380Y84636D01*
X219366Y85044D01*
X220212Y85693D01*
X220862Y86540D01*
X221270Y87525D01*
X221343Y88083D01*
D02*
G37*
G36*
X250083D02*
X246563D01*
Y84562D01*
X247121Y84636D01*
X248106Y85044D01*
X248952Y85693D01*
X249602Y86540D01*
X250010Y87525D01*
X250083Y88083D01*
D02*
G37*
G36*
X245563D02*
X242043D01*
X242116Y87525D01*
X242524Y86540D01*
X243174Y85693D01*
X244020Y85044D01*
X245005Y84636D01*
X245563Y84562D01*
Y88083D01*
D02*
G37*
G36*
X216823D02*
X213302D01*
X213376Y87525D01*
X213784Y86540D01*
X214434Y85693D01*
X215280Y85044D01*
X216265Y84636D01*
X216823Y84562D01*
Y88083D01*
D02*
G37*
G36*
X289902Y85367D02*
Y73268D01*
X302001D01*
X301501Y75349D01*
X300611Y77498D01*
X299395Y79482D01*
X297885Y81251D01*
X296116Y82762D01*
X294132Y83977D01*
X291983Y84867D01*
X289902Y85367D01*
D02*
G37*
G36*
X284902D02*
X282820Y84867D01*
X280671Y83977D01*
X278688Y82762D01*
X276919Y81251D01*
X275408Y79482D01*
X274192Y77498D01*
X273302Y75349D01*
X272802Y73268D01*
X284902D01*
Y85367D01*
D02*
G37*
G36*
X30059D02*
Y73268D01*
X42158D01*
X41659Y75349D01*
X40768Y77498D01*
X39553Y79482D01*
X38042Y81251D01*
X36273Y82762D01*
X34290Y83977D01*
X32140Y84867D01*
X30059Y85367D01*
D02*
G37*
G36*
X25059D02*
X22978Y84867D01*
X20829Y83977D01*
X18845Y82762D01*
X17076Y81251D01*
X15565Y79482D01*
X14350Y77498D01*
X13459Y75349D01*
X12960Y73268D01*
X25059D01*
Y85367D01*
D02*
G37*
G36*
X105118Y82029D02*
X104462Y81898D01*
X103906Y81527D01*
X103534Y80971D01*
X103404Y80315D01*
X103534Y79659D01*
X103906Y79103D01*
X104106Y78969D01*
Y72441D01*
X104183Y72054D01*
X104403Y71726D01*
X112112Y64016D01*
X112065Y63779D01*
X112196Y63124D01*
X112567Y62568D01*
X113124Y62196D01*
X113779Y62066D01*
X114436Y62196D01*
X114991Y62568D01*
X115363Y63124D01*
X115494Y63779D01*
X115363Y64435D01*
X114991Y64991D01*
X114436Y65363D01*
X113779Y65494D01*
X113543Y65447D01*
X106130Y72860D01*
Y78969D01*
X106330Y79103D01*
X106702Y79659D01*
X106832Y80315D01*
X106702Y80971D01*
X106330Y81527D01*
X105774Y81898D01*
X105118Y82029D01*
D02*
G37*
G36*
X129134Y82816D02*
X128478Y82686D01*
X127922Y82314D01*
X127550Y81758D01*
X127420Y81102D01*
X127550Y80446D01*
X127922Y79890D01*
X128478Y79519D01*
X129134Y79388D01*
X129489Y79459D01*
X150537Y58411D01*
X150832Y58213D01*
X151181Y58144D01*
X171028D01*
X171229Y57843D01*
X171785Y57472D01*
X172441Y57341D01*
X173097Y57472D01*
X173653Y57843D01*
X174024Y58399D01*
X174155Y59055D01*
X174024Y59711D01*
X173653Y60267D01*
X173097Y60639D01*
X172441Y60769D01*
X171785Y60639D01*
X171229Y60267D01*
X171028Y59966D01*
X151558D01*
X130777Y80748D01*
X130848Y81102D01*
X130717Y81758D01*
X130346Y82314D01*
X129790Y82686D01*
X129134Y82816D01*
D02*
G37*
G36*
X302001Y68268D02*
X289902D01*
Y56168D01*
X291983Y56668D01*
X294132Y57558D01*
X296116Y58774D01*
X297885Y60285D01*
X299395Y62054D01*
X300611Y64037D01*
X301501Y66186D01*
X302001Y68268D01*
D02*
G37*
G36*
X284902D02*
X272802D01*
X273302Y66186D01*
X274192Y64037D01*
X275408Y62054D01*
X276919Y60285D01*
X278688Y58774D01*
X280671Y57558D01*
X282820Y56668D01*
X284902Y56168D01*
Y68268D01*
D02*
G37*
G36*
X42158D02*
X30059D01*
Y56168D01*
X32140Y56668D01*
X34290Y57558D01*
X36273Y58774D01*
X38042Y60285D01*
X39553Y62054D01*
X40768Y64037D01*
X41659Y66186D01*
X42158Y68268D01*
D02*
G37*
G36*
X25059D02*
X12960D01*
X13459Y66186D01*
X14350Y64037D01*
X15565Y62054D01*
X17076Y60285D01*
X18845Y58774D01*
X20829Y57558D01*
X22978Y56668D01*
X25059Y56168D01*
Y68268D01*
D02*
G37*
G36*
X125000Y71793D02*
X124344Y71662D01*
X123788Y71291D01*
X123416Y70735D01*
X123286Y70079D01*
X123416Y69423D01*
X123487Y69318D01*
Y42690D01*
X123416Y42585D01*
X123286Y41929D01*
X123416Y41273D01*
X123788Y40717D01*
X124344Y40346D01*
X125000Y40215D01*
X125656Y40346D01*
X126212Y40717D01*
X126584Y41273D01*
X126714Y41929D01*
X126584Y42585D01*
X126513Y42690D01*
Y46632D01*
X127013Y46900D01*
X127100Y46842D01*
X127756Y46711D01*
X128412Y46842D01*
X128968Y47213D01*
X129169Y47514D01*
X159071D01*
X161742Y44843D01*
X161672Y44488D01*
X161802Y43832D01*
X162174Y43276D01*
X162730Y42905D01*
X163386Y42774D01*
X164042Y42905D01*
X164598Y43276D01*
X164969Y43832D01*
X165100Y44488D01*
X164969Y45144D01*
X164598Y45700D01*
X164042Y46072D01*
X163386Y46202D01*
X163031Y46132D01*
X160093Y49069D01*
X159798Y49267D01*
X159449Y49336D01*
X129169D01*
X128968Y49637D01*
X128412Y50009D01*
X127756Y50139D01*
X127100Y50009D01*
X127013Y49951D01*
X126513Y50218D01*
Y69318D01*
X126584Y69423D01*
X126714Y70079D01*
X126584Y70735D01*
X126212Y71291D01*
X125656Y71662D01*
X125000Y71793D01*
D02*
G37*
G36*
X112598Y43340D02*
X111943Y43210D01*
X111386Y42838D01*
X111015Y42282D01*
X110884Y41626D01*
X111015Y40970D01*
X111386Y40414D01*
X111687Y40213D01*
Y37402D01*
X111757Y37053D01*
X111954Y36757D01*
X120554Y28158D01*
X120235Y27769D01*
X119947Y27962D01*
X119291Y28092D01*
X118635Y27962D01*
X118079Y27590D01*
X117878Y27289D01*
X110468D01*
X110267Y27590D01*
X109711Y27962D01*
X109055Y28092D01*
X108399Y27962D01*
X107843Y27590D01*
X107472Y27034D01*
X107341Y26378D01*
X107472Y25722D01*
X107843Y25166D01*
X108399Y24794D01*
X109055Y24664D01*
X109711Y24794D01*
X110267Y25166D01*
X110468Y25467D01*
X117878D01*
X118079Y25166D01*
X118635Y24794D01*
X119291Y24664D01*
X119947Y24794D01*
X120503Y25166D01*
X120875Y25722D01*
X121005Y26378D01*
X120875Y27034D01*
X120683Y27322D01*
X121071Y27640D01*
X123478Y25234D01*
X123773Y25036D01*
X124122Y24967D01*
X140877D01*
X140927Y24467D01*
X140683Y24418D01*
X140127Y24047D01*
X139755Y23491D01*
X139625Y22835D01*
X139755Y22179D01*
X140127Y21623D01*
X140683Y21251D01*
X141339Y21121D01*
X141693Y21191D01*
X151718Y11167D01*
X152014Y10969D01*
X152362Y10900D01*
X170634D01*
X170835Y10599D01*
X171391Y10227D01*
X172047Y10097D01*
X172703Y10227D01*
X173259Y10599D01*
X173631Y11155D01*
X173761Y11811D01*
X173631Y12467D01*
X173259Y13023D01*
X172703Y13395D01*
X172047Y13525D01*
X171391Y13395D01*
X170835Y13023D01*
X170634Y12722D01*
X152740D01*
X142982Y22480D01*
X143053Y22835D01*
X142922Y23491D01*
X142551Y24047D01*
X141995Y24418D01*
X141751Y24467D01*
X141800Y24967D01*
X169414D01*
X170404Y23977D01*
X170333Y23622D01*
X170464Y22966D01*
X170835Y22410D01*
X171391Y22039D01*
X172047Y21908D01*
X172703Y22039D01*
X173259Y22410D01*
X173631Y22966D01*
X173761Y23622D01*
X173631Y24278D01*
X173259Y24834D01*
X172703Y25206D01*
X172047Y25336D01*
X171692Y25265D01*
X170436Y26522D01*
X170140Y26720D01*
X169791Y26789D01*
X153852D01*
X153716Y27289D01*
X153892Y27407D01*
X163031Y36546D01*
X163386Y36475D01*
X164042Y36605D01*
X164598Y36977D01*
X164969Y37533D01*
X165100Y38189D01*
X164969Y38845D01*
X164598Y39401D01*
X164042Y39772D01*
X163386Y39903D01*
X162730Y39772D01*
X162174Y39401D01*
X161802Y38845D01*
X161672Y38189D01*
X161742Y37834D01*
X152871Y28962D01*
X128382D01*
X128181Y29263D01*
X127624Y29635D01*
X126969Y29765D01*
X126313Y29635D01*
X125757Y29263D01*
X125385Y28707D01*
X125254Y28051D01*
X125385Y27395D01*
X125456Y27289D01*
X125189Y26789D01*
X124499D01*
X113510Y37779D01*
Y40213D01*
X113810Y40414D01*
X114182Y40970D01*
X114312Y41626D01*
X114182Y42282D01*
X113810Y42838D01*
X113254Y43210D01*
X112598Y43340D01*
D02*
G37*
G36*
X287402Y160380D02*
X285116Y160200D01*
X282886Y159664D01*
X280768Y158787D01*
X278813Y157589D01*
X277069Y156100D01*
X275580Y154356D01*
X274382Y152401D01*
X273505Y150283D01*
X272970Y148054D01*
X272790Y145768D01*
X272970Y143482D01*
X273505Y141252D01*
X274382Y139134D01*
X275580Y137179D01*
X277069Y135435D01*
X278813Y133946D01*
X280768Y132748D01*
X282886Y131871D01*
X285116Y131336D01*
X287402Y131156D01*
X289687Y131336D01*
X291917Y131871D01*
X294035Y132748D01*
X295990Y133946D01*
X296455Y134343D01*
X306963Y123835D01*
Y60614D01*
X253953Y7604D01*
X88583Y7604D01*
X86204D01*
X77628Y16181D01*
X77698Y16535D01*
X77568Y17191D01*
X77196Y17747D01*
X76640Y18119D01*
X75984Y18249D01*
X75328Y18119D01*
X74772Y17747D01*
X74401Y17191D01*
X74270Y16535D01*
X74401Y15879D01*
X74772Y15323D01*
X75328Y14952D01*
X75984Y14821D01*
X76339Y14892D01*
X85182Y6049D01*
X85478Y5851D01*
X85827Y5782D01*
X88583D01*
X254331Y5782D01*
X254679Y5851D01*
X254975Y6049D01*
X308518Y59592D01*
X308716Y59887D01*
X308785Y60236D01*
Y124213D01*
X308716Y124561D01*
X308518Y124857D01*
X297829Y135547D01*
X299223Y137179D01*
X300421Y139134D01*
X301298Y141252D01*
X301834Y143482D01*
X302013Y145768D01*
X301834Y148054D01*
X301298Y150283D01*
X300421Y152401D01*
X299223Y154356D01*
X297734Y156100D01*
X295990Y157589D01*
X294035Y158787D01*
X291917Y159664D01*
X289687Y160200D01*
X287402Y160380D01*
D02*
G37*
G36*
X295276Y32520D02*
X293268Y32362D01*
X291309Y31892D01*
X289449Y31121D01*
X287732Y30069D01*
X286200Y28761D01*
X284892Y27229D01*
X283840Y25512D01*
X283069Y23651D01*
X282599Y21693D01*
X282441Y19685D01*
X282599Y17677D01*
X283069Y15719D01*
X283840Y13858D01*
X284892Y12141D01*
X286200Y10609D01*
X287732Y9301D01*
X289449Y8249D01*
X291309Y7478D01*
X293268Y7008D01*
X295276Y6850D01*
X297283Y7008D01*
X299242Y7478D01*
X301102Y8249D01*
X302820Y9301D01*
X304351Y10609D01*
X305659Y12141D01*
X306712Y13858D01*
X307482Y15719D01*
X307952Y17677D01*
X308110Y19685D01*
X307952Y21693D01*
X307482Y23651D01*
X306712Y25512D01*
X305659Y27229D01*
X304351Y28761D01*
X302820Y30069D01*
X301102Y31121D01*
X299242Y31892D01*
X297283Y32362D01*
X295276Y32520D01*
D02*
G37*
G36*
X19685D02*
X17677Y32362D01*
X15719Y31892D01*
X13858Y31121D01*
X12141Y30069D01*
X10609Y28761D01*
X9301Y27229D01*
X8249Y25512D01*
X7478Y23651D01*
X7008Y21693D01*
X6850Y19685D01*
X7008Y17677D01*
X7478Y15719D01*
X8249Y13858D01*
X9301Y12141D01*
X10609Y10609D01*
X12141Y9301D01*
X13858Y8249D01*
X15719Y7478D01*
X17677Y7008D01*
X19685Y6850D01*
X21693Y7008D01*
X23651Y7478D01*
X25512Y8249D01*
X27229Y9301D01*
X28761Y10609D01*
X30069Y12141D01*
X31121Y13858D01*
X31892Y15719D01*
X32362Y17677D01*
X32520Y19685D01*
X32362Y21693D01*
X31892Y23651D01*
X31121Y25512D01*
X30069Y27229D01*
X28761Y28761D01*
X27229Y30069D01*
X25512Y31121D01*
X23651Y31892D01*
X21693Y32362D01*
X19685Y32520D01*
D02*
G37*
%LPD*%
D10*
X286319Y145768D02*
X307874Y124213D01*
Y60236D02*
Y124213D01*
X254331Y6693D02*
X307874Y60236D01*
X88583Y6693D02*
X254331Y6693D01*
X112598Y37402D02*
Y41626D01*
Y37402D02*
X124122Y25878D01*
X169791D01*
X109055Y26378D02*
X119291D01*
X75984Y16535D02*
X85827Y6693D01*
X127756Y48425D02*
X159449D01*
X163386Y44488D01*
X85827Y6693D02*
X88583D01*
X141339Y22835D02*
X152362Y11811D01*
X172047D01*
X169791Y25878D02*
X172047Y23622D01*
X286319Y145768D02*
X287402D01*
X153248Y28051D02*
X163386Y38189D01*
X126969Y28051D02*
X153248D01*
X129134Y81102D02*
X151181Y59055D01*
X172441D01*
D14*
X4331Y122539D02*
X27559Y145768D01*
X4331Y63386D02*
Y122539D01*
X179134Y77559D02*
Y100000D01*
X172441Y70866D02*
X179134Y77559D01*
Y100000D02*
X186614Y107480D01*
X196457D01*
X4331Y63386D02*
X21654Y46063D01*
X114173D01*
X121653Y38583D01*
X105118Y72441D02*
X113779Y63779D01*
X105118Y72441D02*
Y80315D01*
X121653Y38583D02*
X126772D01*
X131496Y43307D01*
X144095D01*
D63*
X125000Y41929D02*
Y70079D01*
D66*
X295276Y196850D02*
D03*
X19685D02*
D03*
Y19685D02*
D03*
X295276D02*
D03*
D67*
X77559Y169488D02*
D03*
Y114764D02*
D03*
D68*
Y183268D02*
D03*
Y100984D02*
D03*
D69*
X246063Y88583D02*
D03*
Y127953D02*
D03*
X217323Y88583D02*
D03*
Y127953D02*
D03*
D70*
X179921Y200394D02*
D03*
X175984D02*
D03*
X172047D02*
D03*
X168110D02*
D03*
X185039Y84646D02*
D03*
X192520D02*
D03*
X188779D02*
D03*
X196457Y107480D02*
D03*
X144095Y43307D02*
D03*
X127756Y48425D02*
D03*
X163386Y44488D02*
D03*
X75984Y16535D02*
D03*
X120079Y74410D02*
D03*
X116142D02*
D03*
X112205D02*
D03*
X108268D02*
D03*
X101969D02*
D03*
X98032D02*
D03*
X90551Y88189D02*
D03*
Y84252D02*
D03*
Y80315D02*
D03*
Y76378D02*
D03*
Y72835D02*
D03*
X94488D02*
D03*
Y88189D02*
D03*
X172047Y23622D02*
D03*
Y11811D02*
D03*
X141339Y22835D02*
D03*
X112598Y41626D02*
D03*
X163386Y38189D02*
D03*
X129134Y81102D02*
D03*
X172441Y59055D02*
D03*
Y70866D02*
D03*
X108268Y63779D02*
D03*
X104331D02*
D03*
X100394Y62992D02*
D03*
X96457D02*
D03*
X88583D02*
D03*
X92520D02*
D03*
X94488Y76378D02*
D03*
Y84252D02*
D03*
Y80315D02*
D03*
X131102Y194488D02*
D03*
X138189D02*
D03*
X134646D02*
D03*
X143701D02*
D03*
X150787D02*
D03*
X147244D02*
D03*
X156299D02*
D03*
X163386D02*
D03*
X159843D02*
D03*
X113779Y63779D02*
D03*
X105118Y80315D02*
D03*
X126969Y28051D02*
D03*
X119291Y26378D02*
D03*
X109055D02*
D03*
X125000Y70079D02*
D03*
Y41929D02*
D03*
D71*
X127559Y34646D02*
D03*
X124016D02*
D03*
X120374D02*
D03*
D72*
X27559Y145768D02*
D03*
X287402D02*
D03*
X27559Y70768D02*
D03*
X287402D02*
D03*
M02*
