G04*
G04 #@! TF.GenerationSoftware,Altium Limited,Altium Designer,18.1.9 (240)*
G04*
G04 Layer_Color=32896*
%FSLAX25Y25*%
%MOIN*%
G70*
G01*
G75*
%ADD12C,0.01000*%
%ADD74R,1.37402X1.05906*%
D12*
X234039Y193520D02*
Y199518D01*
X230041Y193520D01*
Y199518D01*
X225042D02*
X227042D01*
X228041Y198518D01*
Y194519D01*
X227042Y193520D01*
X225042D01*
X224043Y194519D01*
Y198518D01*
X225042Y199518D01*
X222043D02*
X218044D01*
X220044D01*
Y193520D01*
X212047Y199518D02*
X216045D01*
Y193520D01*
X212047D01*
X216045Y196519D02*
X214046D01*
X206048Y198518D02*
X207048Y199518D01*
X209047D01*
X210047Y198518D01*
Y197518D01*
X209047Y196519D01*
X207048D01*
X206048Y195519D01*
Y194519D01*
X207048Y193520D01*
X209047D01*
X210047Y194519D01*
X204049Y197518D02*
X203049D01*
Y196519D01*
X204049D01*
Y197518D01*
Y194519D02*
X203049D01*
Y193520D01*
X204049D01*
Y194519D01*
X299394Y75012D02*
Y69014D01*
X295395D01*
X290397Y75012D02*
X292396D01*
X293396Y74013D01*
Y70014D01*
X292396Y69014D01*
X290397D01*
X289397Y70014D01*
Y74013D01*
X290397Y75012D01*
X284399D02*
X286398D01*
X287398Y74013D01*
Y70014D01*
X286398Y69014D01*
X284399D01*
X283399Y70014D01*
Y74013D01*
X284399Y75012D01*
X281399Y69014D02*
Y75012D01*
X278400D01*
X277401Y74013D01*
Y72013D01*
X278400Y71014D01*
X281399D01*
X265405Y74013D02*
X266404Y75012D01*
X268404D01*
X269403Y74013D01*
Y70014D01*
X268404Y69014D01*
X266404D01*
X265405Y70014D01*
Y72013D01*
X267404D01*
X263405Y69014D02*
Y73013D01*
X261406Y75012D01*
X259407Y73013D01*
Y69014D01*
Y72013D01*
X263405D01*
X257407Y75012D02*
X255408D01*
X256408D01*
Y69014D01*
X257407D01*
X255408D01*
X252409D02*
Y75012D01*
X248410Y69014D01*
Y75012D01*
X240413Y69014D02*
Y73013D01*
X238413Y75012D01*
X236414Y73013D01*
Y69014D01*
Y72013D01*
X240413D01*
X234415Y69014D02*
Y75012D01*
X230416Y69014D01*
Y75012D01*
X228417Y69014D02*
Y73013D01*
X226417Y75012D01*
X224418Y73013D01*
Y69014D01*
Y72013D01*
X228417D01*
X222419Y75012D02*
Y69014D01*
X218420D01*
X216421Y75012D02*
Y74013D01*
X214421Y72013D01*
X212422Y74013D01*
Y75012D01*
X214421Y72013D02*
Y69014D01*
X206424Y74013D02*
X207423Y75012D01*
X209423D01*
X210422Y74013D01*
Y73013D01*
X209423Y72013D01*
X207423D01*
X206424Y71014D01*
Y70014D01*
X207423Y69014D01*
X209423D01*
X210422Y70014D01*
X204424Y75012D02*
X202425D01*
X203425D01*
Y69014D01*
X204424D01*
X202425D01*
X195427Y74013D02*
X196427Y75012D01*
X198426D01*
X199426Y74013D01*
Y73013D01*
X198426Y72013D01*
X196427D01*
X195427Y71014D01*
Y70014D01*
X196427Y69014D01*
X198426D01*
X199426Y70014D01*
X193428Y73013D02*
X192428D01*
Y72013D01*
X193428D01*
Y73013D01*
Y70014D02*
X192428D01*
Y69014D01*
X193428D01*
Y70014D01*
X295395Y64415D02*
X296395Y65415D01*
X298394D01*
X299394Y64415D01*
Y63415D01*
X298394Y62416D01*
X296395D01*
X295395Y61416D01*
Y60416D01*
X296395Y59417D01*
X298394D01*
X299394Y60416D01*
X293396Y65415D02*
Y59417D01*
Y62416D01*
X289397D01*
Y65415D01*
Y59417D01*
X284399Y65415D02*
X286398D01*
X287398Y64415D01*
Y60416D01*
X286398Y59417D01*
X284399D01*
X283399Y60416D01*
Y64415D01*
X284399Y65415D01*
X281399Y59417D02*
Y65415D01*
X278400D01*
X277401Y64415D01*
Y62416D01*
X278400Y61416D01*
X281399D01*
X279400D02*
X277401Y59417D01*
X275401Y65415D02*
X271403D01*
X273402D01*
Y59417D01*
X259407Y65415D02*
X261406D01*
X260406D01*
Y60416D01*
X261406Y59417D01*
X262406D01*
X263405Y60416D01*
X253409Y65415D02*
X257407D01*
Y62416D01*
X255408Y63415D01*
X254408D01*
X253409Y62416D01*
Y60416D01*
X254408Y59417D01*
X256408D01*
X257407Y60416D01*
X295395Y54817D02*
X296395Y55817D01*
X298394D01*
X299394Y54817D01*
Y50819D01*
X298394Y49819D01*
X296395D01*
X295395Y50819D01*
X290397Y55817D02*
X292396D01*
X293396Y54817D01*
Y50819D01*
X292396Y49819D01*
X290397D01*
X289397Y50819D01*
Y54817D01*
X290397Y55817D01*
X287398Y49819D02*
Y55817D01*
X283399Y49819D01*
Y55817D01*
X281399Y49819D02*
Y55817D01*
X277401Y49819D01*
Y55817D01*
X271403D02*
X275401D01*
Y49819D01*
X271403D01*
X275401Y52818D02*
X273402D01*
X265405Y54817D02*
X266404Y55817D01*
X268404D01*
X269403Y54817D01*
Y50819D01*
X268404Y49819D01*
X266404D01*
X265405Y50819D01*
X263405Y55817D02*
X259407D01*
X261406D01*
Y49819D01*
X247410Y55817D02*
X251409D01*
Y52818D01*
X249410Y53818D01*
X248410D01*
X247410Y52818D01*
Y50819D01*
X248410Y49819D01*
X250410D01*
X251409Y50819D01*
X245411Y54817D02*
X244411Y55817D01*
X242412D01*
X241412Y54817D01*
Y50819D01*
X242412Y49819D01*
X244411D01*
X245411Y50819D01*
Y54817D01*
X230416Y55817D02*
X232415D01*
X233415Y54817D01*
Y50819D01*
X232415Y49819D01*
X230416D01*
X229416Y50819D01*
Y54817D01*
X230416Y55817D01*
X227417D02*
Y49819D01*
Y52818D01*
X223418D01*
Y55817D01*
Y49819D01*
X221419D02*
Y55817D01*
X219420Y53818D01*
X217420Y55817D01*
Y49819D01*
X205424Y54817D02*
X206424Y55817D01*
X208423D01*
X209423Y54817D01*
Y53818D01*
X208423Y52818D01*
X206424D01*
X205424Y51818D01*
Y50819D01*
X206424Y49819D01*
X208423D01*
X209423Y50819D01*
X200426Y55817D02*
X202425D01*
X203425Y54817D01*
Y50819D01*
X202425Y49819D01*
X200426D01*
X199426Y50819D01*
Y54817D01*
X200426Y55817D01*
X197427D02*
Y50819D01*
X196427Y49819D01*
X194428D01*
X193428Y50819D01*
Y55817D01*
X191429Y49819D02*
Y55817D01*
X188430D01*
X187430Y54817D01*
Y52818D01*
X188430Y51818D01*
X191429D01*
X189429D02*
X187430Y49819D01*
X181432Y54817D02*
X182431Y55817D01*
X184431D01*
X185431Y54817D01*
Y50819D01*
X184431Y49819D01*
X182431D01*
X181432Y50819D01*
X175434Y55817D02*
X179432D01*
Y49819D01*
X175434D01*
X179432Y52818D02*
X177433D01*
X167436Y55817D02*
X163438D01*
X165437D01*
Y49819D01*
X158439Y55817D02*
X160439D01*
X161438Y54817D01*
Y50819D01*
X160439Y49819D01*
X158439D01*
X157440Y50819D01*
Y54817D01*
X158439Y55817D01*
X145443D02*
X147443D01*
X146443D01*
Y50819D01*
X147443Y49819D01*
X148442D01*
X149442Y50819D01*
X139445Y55817D02*
X141445Y54817D01*
X143444Y52818D01*
Y50819D01*
X142445Y49819D01*
X140445D01*
X139445Y50819D01*
Y51818D01*
X140445Y52818D01*
X143444D01*
D74*
X168307Y135236D02*
D03*
M02*
