M48
;Layer_Color=9474304
;FILE_FORMAT=2:5
INCH,TZ
;TYPE=PLATED
T1F00S00C0.00787
T2F00S00C0.01181
T3F00S00C0.01968
T4F00S00C0.03346
T5F00S00C0.03543
T6F00S00C0.12205
T7F00S00C0.21299
%
T01
X120374Y34646
X124016
X127559
T02
X75984Y16535
X109055Y26378
X119291
X126969Y28051
X125000Y41929
X127756Y48425
X144095Y43307
X163386Y44488
Y38189
X172047Y23622
Y11811
X141339Y22835
X112598Y41626
X113779Y63779
X108268
X104331
X100394Y62992
X96457
X92520
X88583
X90551Y72835
Y76378
Y80315
Y84252
Y88189
X94488
Y84252
Y80315
Y76378
Y72835
X98032Y74410
X101969
X108268
X112205
X116142
X120079
X125000Y70079
X129134Y81102
X105118Y80315
X172441Y70866
Y59055
X185039Y84646
X188779
X192520
X196457Y107480
X179921Y200394
X175984
X172047
X168110
X163386Y194488
X159843
X156299
X150787
X147244
X143701
X138189
X134646
X131102
T03
X12008Y15256
Y24114
X19685Y28543
X27362Y24114
Y15256
X19685Y10827
X287598Y15256
Y24114
X295276Y28543
X302953Y24114
Y15256
X295276Y10827
Y187992
X287598Y192421
Y201279
X295276Y205709
X302953Y201279
Y192421
X27362
Y201279
X19685Y205709
X12008Y201279
Y192421
X19685Y187992
T04
X217323Y88583
X246063
Y127953
X217323
T05
X77559Y100984
Y114764
Y169488
Y183268
T06
X19685Y19685
X295276
Y196850
X19685
T07
X287402Y70768
Y145768
X27559
Y70768
M30
